<?xml version="1.0" encoding="UTF-8"?>
<svg xmlns="http://www.w3.org/2000/svg" viewBox="0 0 1618 2427">
  <defs>
    <style>
      .cls-1 {
        fill: #80637c;
      }

      .cls-1, .cls-2, .cls-3, .cls-4, .cls-5, .cls-6, .cls-7, .cls-8, .cls-9, .cls-10, .cls-11, .cls-12, .cls-13, .cls-14, .cls-15, .cls-16, .cls-17, .cls-18, .cls-19, .cls-20, .cls-21, .cls-22, .cls-23, .cls-24, .cls-25, .cls-26, .cls-27, .cls-28, .cls-29, .cls-30, .cls-31, .cls-32, .cls-33, .cls-34, .cls-35, .cls-36, .cls-37, .cls-38, .cls-39, .cls-40, .cls-41, .cls-42, .cls-43, .cls-44, .cls-45, .cls-46, .cls-47, .cls-48 {
        stroke-width: 0px;
      }

      .cls-2 {
        fill: #f5ac93;
      }

      .cls-3 {
        fill: #dcc3cb;
      }

      .cls-4 {
        fill: #85a63c;
      }

      .cls-5 {
        fill: #ab8d9f;
      }

      .cls-6 {
        fill: #966892;
      }

      .cls-7 {
        fill: #2a6135;
      }

      .cls-8 {
        fill: #3f795f;
      }

      .cls-9 {
        fill: #f7c1c4;
      }

      .cls-10 {
        fill: #a88c9d;
      }

      .cls-11 {
        fill: #42304b;
      }

      .cls-12 {
        fill: #aa8fa0;
      }

      .cls-13 {
        fill: #6a506d;
      }

      .cls-14 {
        fill: #5d4160;
      }

      .cls-15 {
        fill: #7a3c52;
      }

      .cls-16 {
        fill: #e0c4ca;
      }

      .cls-17 {
        fill: #a78797;
      }

      .cls-18 {
        fill: #9a7b8f;
      }

      .cls-19 {
        fill: #f7d9ca;
      }

      .cls-20 {
        fill: #5b3b53;
      }

      .cls-21 {
        fill: #f39a71;
      }

      .cls-22 {
        fill: #45324d;
      }

      .cls-23 {
        fill: #794453;
      }

      .cls-24 {
        fill: #886d79;
      }

      .cls-25 {
        fill: #2c6257;
      }

      .cls-26 {
        fill: #fdf0e6;
      }

      .cls-27 {
        fill: #fad6c8;
      }

      .cls-28 {
        fill: #9b7d90;
      }

      .cls-29 {
        fill: #ee7a7f;
      }

      .cls-30 {
        fill: #f9ccbc;
      }

      .cls-31 {
        fill: #ed741f;
      }

      .cls-32 {
        fill: #e06064;
      }

      .cls-33 {
        fill: #412e49;
      }

      .cls-49 {
        fill: #c6867b;
        stroke-width: .5px;
      }

      .cls-49, .cls-50, .cls-51, .cls-52, .cls-53 {
        stroke-miterlimit: 10;
      }

      .cls-49, .cls-52 {
        stroke: #c6867b;
      }

      .cls-34 {
        fill: #a48398;
      }

      .cls-35 {
        fill: #de725b;
      }

      .cls-50 {
        stroke: #886d79;
        stroke-width: 5px;
      }

      .cls-50, .cls-51, .cls-52, .cls-53 {
        fill: none;
      }

      .cls-36 {
        fill: #619a64;
      }

      .cls-37 {
        fill: #987a8e;
      }

      .cls-51 {
        stroke: #f59e00;
        stroke-width: 4px;
      }

      .cls-38 {
        fill: #f6b6b2;
      }

      .cls-39 {
        fill: #543960;
      }

      .cls-40 {
        fill: #ed7085;
      }

      .cls-41 {
        fill: #a4849a;
      }

      .cls-52 {
        stroke-width: 6px;
      }

      .cls-53 {
        stroke: #fff;
        stroke-width: 8px;
      }

      .cls-42 {
        fill: #fff;
      }

      .cls-43 {
        fill: #84627c;
      }

      .cls-44 {
        fill: #fde4c5;
      }

      .cls-45 {
        fill: #f8c4bb;
      }

      .cls-46 {
        fill: #704f53;
      }

      .cls-47 {
        fill: #775371;
      }

      .cls-48 {
        fill: #b6d2cc;
      }
    </style>
  </defs>
  <g id="_Слой_9" data-name="Слой 9">
    <path class="cls-4" d="M-1634.52,2095.62c-19.11-66.43,179.34,17.07,619.96,73.86,71.32,9.19,132.41,16.65,210.76,9.88,119.48-10.32,159.91-43.43,265.4-73.14,152.17-42.86,392.88-65.46,483.97-17.79,78.6,41.14,143.14,345.71,31.18,350.67-425.78,18.87-1234.54,13.03-1594.71-7.17-81.29-4.56-6.98-302.99-16.56-336.32Z"/>
    <path class="cls-7" d="M-53.41,2215.4c15.16-35.47,32.41-49.74,37.65-53.83,14.11-11.01,33.89-20.59,37.65-16.56,3.18,3.41-5.89,15.73-11.73,23.66-26.64,36.21-52.59,45.26-66.65,77.5-3.04,6.97-4.5,12.67-3.7,13.01,1.49.66,7.78-19.04,25.3-33.13,15.21-12.23,38.36-19.82,46.9-12.42,2.31,2,4.01,5.49,3.09,8.28-2.17,6.53-17.46,5.41-28.39,7.69-34.98,7.29-46.99,53.93-53.69,51.47-5.62-2.07.75-35.64,13.58-65.66Z"/>
    <path class="cls-31" d="M8.66,2288.87l-17.41,55.61,46.73,39.11c13.81,11.56,2.34,33.81-15.08,29.28l-63.5-16.52-44.82,44.5c-13.16,13.07-35.03-.22-29.49-17.93l17.41-55.61-46.73-39.11c-13.81-11.56-2.34-33.81,15.08-29.28l63.5,16.52,44.82-44.5c13.16-13.07,35.03.22,29.49,17.93Z"/>
    <path class="cls-42" d="M-32.08,1960.65l9.93,44.41,37.95-27.5c8.62-6.25,19.62,3.8,14.17,12.95l-22.26,37.39,45.12,1.09c10.85.26,13.29,15.35,3.08,19.02l-41.42,14.89,33.78,27.26c8.38,6.77,1.3,20.14-9.01,17l-44.26-13.49,7.15,43.73c1.7,10.38-11.93,15.78-17.8,7.05l-25.98-38.63-25.98,38.63c-5.87,8.73-19.5,3.33-17.8-7.05l7.15-43.73-44.26,13.49c-10.31,3.14-17.4-10.23-9.01-17l33.78-27.26-41.42-14.89c-10.21-3.67-7.77-18.76,3.08-19.02l45.12-1.09-22.26-37.39c-5.44-9.15,5.55-19.19,14.17-12.95l37.95,27.5,9.93-44.41c2.28-10.22,16.84-10.22,19.13,0Z"/>
  </g>
  <g id="_Слой_11" data-name="Слой 11">
    <path class="cls-48" d="M1630.38,2439.1L0,2429.08c19.42-402.08-2.47-794.15-2.26-1196.25C-2.05,822.02,0,408.66,0,.42c554.02,0,1063.97,0,1618,0l12.38,2438.68Z"/>
    <path class="cls-9" d="M907.4,2333.78c6.54-2.43,13.06,1.03,17.53,5.77,4.79,5.08,8.09,11.5,11.29,17.65,3.33,6.41,6.53,12.93,10.8,18.78,4.23,5.8,9.42,10.65,15.17,14.91,6.36,4.73,13.28,8.63,20.18,12.52,2.81,1.58,5.33-2.74,2.52-4.32-12.23-6.88-25.1-14.07-33.55-25.64-8.62-11.8-12.73-26.7-22.87-37.44-5.61-5.94-14.25-10.08-22.4-7.05-1.27.47-2.13,1.69-1.75,3.08.33,1.22,1.8,2.22,3.08,1.75h0Z"/>
    <path class="cls-38" d="M33.42,1309.59c86.71,11.18,128.41,43.26,150.44,70.21,25.89,31.66,31.45,64.53,53.49,66.86,31.01,3.29,40.8-59.54,76.89-80.24,102.51-58.78,294.73,292.61,511.51,274.14,169.7-14.45,200.5-242.46,401.19-244.05,90.92-.72,176.58,45.35,224-3.34,32.45-33.33,14.64-77.83,50.15-113.67,39.37-39.73,78.36-31.62,129.29-21.28l4.56,1185.38-1646.11-18.08L0,1301.96l33.42,7.63Z"/>
    <path class="cls-25" d="M1343.68,2164.72c8.73-14.53,21.35-26.54,36.21-34.67,4.16-2.27,8.48-4.23,12.94-5.84,1.27-.46,2.12-1.7,1.75-3.08-.34-1.23-1.8-2.21-3.08-1.75-16.78,6.07-31.89,16.6-43.28,30.35-3.26,3.93-6.23,8.09-8.86,12.46-1.66,2.76,2.66,5.28,4.32,2.52h0Z"/>
    <path class="cls-25" d="M1346.08,2165.6c12.21-13.62,26.83-24.88,43.12-33.19,2.87-1.46.34-5.78-2.52-4.32-12.93,6.6-24.91,15.07-35.46,25.05-3.01,2.85-5.9,5.83-8.67,8.92-2.14,2.39,1.38,5.94,3.54,3.54h0Z"/>
    <path class="cls-9" d="M1011.91,2173.96c-4.13-7.84-11.22-13.27-17.97-18.73-3.44-2.78-6.83-5.63-9.8-8.92-3.11-3.45-5.73-7.31-7.85-11.44-2.37-4.62-4.02-9.57-4.99-14.66-.25-1.33-1.85-2.08-3.08-1.75-1.39.38-2,1.74-1.75,3.08,1.8,9.45,5.99,18.31,12,25.81,5.67,7.08,13.23,12.06,19.94,18.05,3.62,3.23,6.89,6.77,9.17,11.09,1.5,2.85,5.82.32,4.32-2.52h0Z"/>
    <path class="cls-1" d="M1271.18,2094.59c-44.55-9.79-107.19-31.42-145.55-86.08-35.27-50.26-35.58-107.86-38.33-107.33-3.04.58-8.1,72.09,31.62,136.08,44.69,72.01,120.92,93.98,143.75,99.66l8.51-42.33"/>
    <path class="cls-1" d="M419.9,2063.65c7.56-.35,19.28-1.64,32.47-6.57,45.17-16.89,65.16-60.58,72.89-77.5,6.09-13.31,14.39-35.82,16.11-65.99v40.09l-14.37,41.24-37.69,50.33-50.75,29.15-18.66,4.33v-15.09Z"/>
    <circle class="cls-44" cx="457.72" cy="1166.88" r="9.36"/>
    <circle class="cls-44" cx="122.46" cy="87.3" r="12.49"/>
    <circle class="cls-44" cx="1063.86" cy="956.06" r="7.59"/>
  </g>
  <g id="_Слой_12" data-name="Слой 12">
    <g id="_Слой_16" data-name="Слой 16">
      <path class="cls-26" d="M777.42,330.31c-39.63-4.49-145.29,26.56-715.38-5.98-4.94-1.66-10.5-4.2-15.24-8.22-20.34-17.27-14.75-52.73,9.15-65.78,23.77-12.98,49.56,5.01,78.25-9.72,17.45-8.96,14.58-19.04,33.53-29.15,22.67-12.1,49.66-.04,57.92-9.72,4.52-5.29-.1-11.57-2.03-17.94-9.66-31.9,47.95-67.2,51.82-69.52,50.72-30.4,137.97-34.44,184.94-5.98,48.72,29.52,35.13,82.49,85.36,94.94,20.62,5.11,23.73-3.62,46.74,1.5,52.82,11.74,43.03,59.18,99.58,78.49,24.85,8.48,44.01,5.22,65.03,20.93,10.92,8.16,27.67,26.99,20.32,26.16Z"/>
      <path class="cls-26" d="M1584.03,693.17c-39.63-4.49-145.29,26.56-715.38-5.98-4.94-1.66-10.5-4.2-15.24-8.22-20.34-17.27-14.75-52.73,9.15-65.78,23.77-12.98,49.56,5.01,78.25-9.72,17.45-8.96,14.58-19.04,33.53-29.15,22.67-12.1,49.66-.04,57.92-9.72,4.52-5.29-.1-11.57-2.03-17.94-9.66-31.9,47.95-67.2,51.82-69.52,50.72-30.4,137.97-34.44,184.94-5.98,48.72,29.52,35.13,82.49,85.36,94.94,20.62,5.11,23.73-3.62,46.74,1.5,52.82,11.74,43.03,59.18,99.58,78.49,24.85,8.48,44.01,5.22,65.03,20.93,10.92,8.16,27.67,26.99,20.32,26.16Z"/>
      <path class="cls-26" d="M784.77,1039.59c-39.63-4.49-145.29,26.56-715.38-5.98-4.94-1.66-10.5-4.2-15.24-8.22-20.34-17.27-14.75-52.73,9.15-65.78,23.77-12.98,49.56,5.01,78.25-9.72,17.45-8.96,14.58-19.04,33.53-29.15,22.67-12.1,49.66-.04,57.92-9.72,4.52-5.29-.1-11.57-2.03-17.94-9.66-31.9,47.95-67.2,51.82-69.52,50.72-30.4,137.97-34.44,184.94-5.98,48.72,29.52,35.13,82.49,85.36,94.94,20.62,5.11,23.73-3.62,46.74,1.5,52.82,11.74,43.03,59.18,99.58,78.49,24.85,8.48,44.01,5.22,65.03,20.93,10.92,8.16,27.67,26.99,20.32,26.16Z"/>
      <path class="cls-26" d="M1618,.42h-358.05c-13.27,9.03-12.63,17.95-28.25,25.97-28.69,14.73-54.48-3.26-78.25,9.72-23.89,13.05-29.49,48.51-9.15,65.78,4.74,4.02,10.31,6.57,15.24,8.22,208.39,11.89,354.71,15.29,458.44,15.04V.42Z"/>
    </g>
    <path class="cls-6" d="M834.91,238.87c-41.68,155.43-83.36,310.86-125.03,466.3-4.85,18.09-9.7,36.19-14.55,54.28h279.18l-139.59-520.57Z"/>
    <path class="cls-3" d="M710.58,819.38c22.94-10.02,58.06-22,102.16-24.61,62.47-3.7,111.45,13.29,137.56,24.61l20.23,123.05c22.09,113.63,42.5,197.85,56.64,252.26,6.44,24.77,13.8,51.91,27.31,86.14,26.99,68.37,53.43,101.43,69.79,131.26,44.94,81.96,7.3,127.78,17.29,296.72,4.85,82.08,9.76,165.12,47.17,249.17,71.09,159.7,212.97,177.12,207.29,224-16.62,137.05-1214.68,90.09-1216.41,26.43-.58-21.4,134.55-23.47,215.97-138.43,21.74-30.68,35.73-63.89,49.65-96.9,34.8-82.56,48.39-151.48,53.37-182.47,12.65-78.74,7.74-131.49,7.45-171.14-.6-80.15-7.48-231.45,101.78-347.32l9.8-19.4,79.52-331.87,13.45-101.48Z"/>
    <path class="cls-33" d="M828.74,852.9c30.02,27.34,60.03,54.68,90.05,82.02.64,17.01,2.04,34.92,4.42,53.6,8.33,65.41,26.31,121.03,45.35,165.32l-54.53,62.57-57.98,53.38-31,40.18-78.64-90.69-60.27-62.57,41.33-116.53,13.2-99.88,88.07-87.41Z"/>
    <path class="cls-13" d="M783.61,1049.53c.32,26.22.64,52.43.96,78.65l-12.06,10.13-32.61,16.45,84.36,148.18,88.84-150.8-36.95-15.68-7.47-78.76"/>
    <path class="cls-19" d="M815.76,1298.23c-11.79-15.33-24.31-30.91-37.6-46.63-30.83-36.46-61.75-68.94-91.75-97.76l24.82-63.17,20.19-70.4,4.96-29.74,4.19-39.18-.6-13.16c5.44-3.75,10.92-7.72,16.41-11.93,30.7-23.52,54.92-49.11,73.99-73.56,7.39,9.04,15.58,18.33,24.66,27.69,22.79,23.49,45.76,41.9,66.63,56.25.38,4.02,1.02,11.15,1.67,20.05,1.68,22.86,2.15,39.71,2.23,41.82.56,15.51,9.23,54.14,45.1,155.93-117.05,115.72-139.19,144.04-136.26,147.29,1.45,1.61,8.02-4.01,74.37-51.34,58.02-41.39,81.8-57.64,82.52-82.52.38-12.98-5.68-22.67-8.16-26.87-16.88-28.64-35.48-87.55-46.06-217.82l-23.51-17.75-84.33-73.87-41.85,41.72-49.42,40.3-12.47,6.24-8.64,80.12-17.75,66.82-21.59,63.69-15.83,34.54,71.97,74.04,82.11,59.2Z"/>
    <path class="cls-20" d="M834.91,737.09c-159.54,0-288.88,30.77-288.88,68.74,0,26.89,64.88,50.16,159.4,61.46l6.09-51.96c20.06-7.68,44.88-14.92,73.76-18.63,69.08-8.87,125.77,7.02,158.48,19.37l11.5,52.26c99.45-10.86,168.52-34.76,168.52-62.5,0-37.96-129.34-68.74-288.88-68.74Z"/>
    <path class="cls-14" d="M784.13,1086.51c1.68,2.86,12.68,20.86,36.86,26.13,29.06,6.34,50.92-11.44,52.59-12.84v-50.93h-89.45v37.64Z"/>
    <path class="cls-16" d="M828.74,852.9c-11.35,11.75-26.38,25.24-39.67,37.7-17.55,16.46-34.12,35.54-48.4,49.71-.05,2.76,2.05.22,2.14,5.07.47,27.6.84,49.09,8.25,68.43,10.09,26.35,34.88,52.99,66.49,59.21,10.95,2.16,19.4,1.21,21.36.97,40.04-4.92,61.21-46.57,64.55-53.39l9.68-39.08,2.45-49.52-86.85-79.11Z"/>
    <path class="cls-34" d="M830.52,852.94c1.79,3.56,5.08,9.73,10.07,16.78,27.65,39.09,53.29,53.71,67.13,69.23,3.28,3.68-.74,2.16-1.68,23.92-.14,3.3-1.69,40.46.84,40.7,2.3.22,8.96-29.79,8.39-62.94-.07-4.21-.25-7.79-.42-10.49"/>
    <path class="cls-34" d="M827.74,857.44c-1.83,3.56-5.22,9.73-10.34,16.78-28.4,39.09-54.72,53.71-68.94,69.23-3.37,3.68.76,2.16,1.72,23.92.15,3.3,1.74,40.46-.86,40.7-2.36.22-9.2-29.79-8.62-62.94.07-4.21.26-7.79.43-10.49"/>
    <polygon class="cls-42" points="827.35 985.39 821.63 1005.08 833.07 1005.08 827.35 985.39"/>
    <path class="cls-6" d="M830.15,1015.54c-.56-.92,1.57-3.28,3.36-4.48,4.32-2.88,10.27-1.32,10.45,0,.27,2.02-12.64,6.4-13.8,4.48Z"/>
    <path class="cls-6" d="M824.26,1015.54c.49-.92-1.38-3.28-2.96-4.48-3.8-2.88-9.05-1.32-9.2,0-.24,2.02,11.14,6.4,12.16,4.48Z"/>
    <path class="cls-6" d="M755.26,961.27c1.97.25,4.75.88,5.46,2.73.99,2.58-2.75,5.74-1.71,7.17.83,1.13,3.24-.77,6.48,0,4.74,1.12,6.19,6.74,8.53,6.14,1.2-.31.78-1.79,2.39-3.07,0,0,1.82-1.45,10.92,0,5.87-5.01,10.66-6.1,13.99-6.14,2.81-.03,5.93.67,6.14,0,.28-.9-5.41-1.94-7.17-6.14-1.54-3.68,1.06-7.1,0-7.85-1.76-1.23-7.78,8.96-16.38,11.26-5.11,1.37-12.5.3-23.2-8.53"/>
    <path class="cls-6" d="M897.74,961.27c-1.8.25-4.33.88-4.98,2.73-.91,2.58,2.51,5.74,1.56,7.17-.76,1.13-2.95-.77-5.92,0-4.32,1.12-5.65,6.74-7.78,6.14-1.1-.31-.71-1.79-2.18-3.07,0,0-1.66-1.45-9.96,0-5.36-5.01-9.72-6.1-12.77-6.14-2.57-.03-5.41.67-5.6,0-.25-.9,4.93-1.94,6.54-6.14,1.41-3.68-.97-7.1,0-7.85,1.6-1.23,7.1,8.96,14.94,11.26,4.67,1.37,11.41.3,21.17-8.53"/>
    <path class="cls-6" d="M775.34,925.58c19.52,4.5,29.62,5.74,30.32,3.74.36-1.05-1.85-2.99-6.64-5.81"/>
    <path class="cls-6" d="M875.41,925.58c-15.11,4.5-22.93,5.74-23.46,3.74-.28-1.05,1.43-2.99,5.14-5.81"/>
    <polyline class="cls-12" points="827.04 831.58 772.2 884.77 724.22 919.25 726.23 942.89 720.96 981.28 677.54 1008.63 675.83 1009.44 711.52 818.94 777.38 804.54 849.54 799.36 949.76 820.67 966.37 914.57 893.06 884.62 852.98 849.47 838.66 837.95 833.51 834.5"/>
    <path class="cls-25" d="M-20.83,2446.47l1655.77-2.87v-176.81c-11.99-9.31-30.21-23.95-51.55-43.25-64.93-58.73-80.58-89.88-109.1-115.76-50.36-45.68-112.29-44.22-234.1-39.43-94.56,3.71-162.13,17.9-195.97,24.17-67.54,12.52-93.94,50.05-543.41-6.36-83-10.42-182.16-27.61-301.89,19.08-99.21,38.68-171.19,105.1-217.15,156.46"/>
    <path class="cls-18" d="M710.01,831.56c26.47-12.11,52.98-18.94,68.41-21.44,44.85-7.28,83.75-.69,128.6,6.91,15.86,2.69,34.75,4.72,43.28,6.65v-4.65l-26.74-10.8-19.01-4.39-28.58-6.44-28.2-3.16-28.41-.07-14.61.07-31.12,4.17-27.16,5.75-34.92,11.15-2.2,10.38.68,5.86Z"/>
    <rect class="cls-11" x="247.32" y="1700.95" width="124.05" height="42.69"/>
    <rect class="cls-15" x="266.39" y="1744.15" width="88.17" height="10.93"/>
    <rect class="cls-46" x="265.26" y="1755.58" width="88.17" height="13.64"/>
    <rect class="cls-23" x="277.16" y="1769.22" width="62.02" height="389.98"/>
    <polygon class="cls-22" points="337.68 1853.76 337.68 1769.73 278.64 1769.73 337.68 1853.76"/>
    <rect class="cls-11" x="1270.8" y="1700.95" width="124.05" height="42.69"/>
    <rect class="cls-15" x="1289.88" y="1744.15" width="88.17" height="10.93"/>
    <rect class="cls-46" x="1288.74" y="1755.58" width="88.17" height="13.64"/>
    <rect class="cls-23" x="1300.64" y="1769.22" width="62.02" height="389.98"/>
    <polygon class="cls-22" points="1300.64 1853.25 1300.64 1769.22 1364.51 1769.22 1300.64 1853.25"/>
    <g>
      <g>
        <path class="cls-49" d="M193.11,1969.58c1.59-5.35,3.26-10.76,8.05-15.23,4.33-4.04,12.44-8.48,16.26-5.31,6.25,5.19.25,30.06-12.56,44.96-2.8,3.26-7.83,9.11-11.28,7.73-5.22-2.11-4.15-19.8-.48-32.14Z"/>
        <path class="cls-49" d="M179.57,1975.9c-3.72-2.71-7.54-5.41-13.43-5.45-5.32-.03-13.85,2.1-15.46,6.79-2.63,7.67,13.57,21.18,30.67,23.32,3.74.47,10.45,1.31,12.57-1.88,3.22-4.85-5.75-16.52-14.35-22.79Z"/>
        <path class="cls-49" d="M164.39,1885.51c1.59-5.35,3.26-10.76,8.05-15.23,4.33-4.04,12.44-8.48,16.26-5.31,6.25,5.19.25,30.06-12.56,44.96-2.8,3.26-7.83,9.11-11.28,7.73-5.22-2.11-4.15-19.8-.48-32.14Z"/>
        <path class="cls-49" d="M150.85,1891.83c-3.72-2.71-7.54-5.41-13.43-5.45-5.32-.03-13.85,2.1-15.46,6.79-2.63,7.67,13.57,21.18,30.67,23.32,3.74.47,10.45,1.31,12.57-1.88,3.22-4.85-5.75-16.52-14.35-22.79Z"/>
        <path class="cls-49" d="M212.92,2045.23c1.59-5.35,3.26-10.76,8.05-15.23,4.33-4.04,12.44-8.48,16.26-5.31,6.25,5.19.25,30.06-12.56,44.96-2.8,3.26-7.83,9.11-11.28,7.73-5.22-2.11-4.15-19.8-.48-32.14Z"/>
        <path class="cls-49" d="M199.38,2051.54c-3.72-2.71-7.54-5.41-13.43-5.45-5.32-.03-13.85,2.1-15.46,6.79-2.63,7.67,13.57,21.18,30.67,23.32,3.74.47,10.45,1.31,12.57-1.88,3.22-4.85-5.75-16.52-14.35-22.79Z"/>
      </g>
      <path class="cls-52" d="M216.29,2126.55c-2.01-32.02-6.78-70.04-16.95-111.99-8.2-33.84-17.8-61.41-25.04-80.23-5.94-15.43-11.62-28.43-16.21-38.4"/>
    </g>
    <path class="cls-6" d="M799.82,1031.76c1.84,1.74,16.02,14.72,35.16,11.57,9.97-1.64,16.76-6.9,19.9-9.72"/>
    <path class="cls-25" d="M235.11,2257.96c-17.37,5.32-29.82,19.41-40.01,33.76-11.98,16.87-22.55,34.82-31.87,53.29-4.67,9.25-8.91,19.14-16.67,26.29-2.37,2.19,1.17,5.71,3.54,3.54,6.82-6.28,11.13-14.6,15.2-22.8,4.57-9.19,9.37-18.26,14.52-27.13,5.26-9.05,10.85-17.92,16.75-26.57,4.88-7.16,10.08-14.15,16.19-20.33,6.68-6.75,14.52-12.42,23.67-15.22,3.07-.94,1.76-5.77-1.33-4.82h0Z"/>
    <path class="cls-25" d="M237.59,2262.52c-8.74-2.09-17.06,1.83-23.71,7.29-6.83,5.61-12.23,13.04-17.09,20.35-10.14,15.24-18.05,31.81-28.42,46.92-6.02,8.77-12.6,17.13-19.66,25.08-2.13,2.4,1.39,5.95,3.54,3.54,12.25-13.77,22.92-28.79,32.14-44.74,4.42-7.64,8.64-15.4,13.29-22.91,4.53-7.31,9.45-14.57,15.47-20.76,5.86-6.02,14.24-12.07,23.12-9.95,3.13.75,4.46-4.07,1.33-4.82h0Z"/>
    <path class="cls-25" d="M235.04,2261.39c-17.85,4.3-26.02,22.41-32.95,37.54-7.8,17.03-15.99,33.92-25.66,49.99-5.46,9.08-11.4,17.88-17.95,26.21-.98,1.25.77,3.03,1.77,1.77,11.42-14.5,20.98-30.33,29.48-46.69,4.29-8.25,8.33-16.63,12.24-25.07,3.85-8.29,7.31-16.9,12.34-24.57s12.2-14.54,21.39-16.76c1.56-.38.9-2.79-.66-2.41h0Z"/>
    <path class="cls-25" d="M235.05,2269.55c-14.91,2.89-28.5,10.5-39.85,20.46-12.18,10.69-21.64,24.11-29.35,38.27-4.52,8.31-8.47,16.91-12.18,25.61-.62,1.46,1.53,2.74,2.16,1.26,6.42-15.04,13.59-29.89,23.13-43.24,8.91-12.48,20.04-23.54,33.42-31.18,7.27-4.15,15.12-7.18,23.34-8.77,1.58-.31.91-2.72-.66-2.41h0Z"/>
    <g>
      <g>
        <path class="cls-36" d="M1527.75,2136.22c-.92-2.47-1.89-4.96-4.67-7.02-2.51-1.86-7.21-3.91-9.42-2.45-3.62,2.39-.14,13.85,7.28,20.72,1.63,1.5,4.54,4.2,6.53,3.56,3.03-.97,2.4-9.12.28-14.82Z"/>
        <path class="cls-36" d="M1535.59,2139.14c2.16-1.25,4.37-2.49,7.78-2.51,3.08-.01,8.03.97,8.96,3.13,1.53,3.53-7.87,9.76-17.77,10.75-2.17.22-6.06.61-7.29-.87-1.86-2.23,3.33-7.62,8.31-10.5Z"/>
        <path class="cls-36" d="M1544.39,2097.48c-.92-2.47-1.89-4.96-4.67-7.02-2.51-1.86-7.21-3.91-9.42-2.45-3.62,2.39-.14,13.85,7.28,20.72,1.63,1.5,4.54,4.2,6.53,3.56,3.03-.97,2.4-9.12.28-14.82Z"/>
        <path class="cls-36" d="M1552.24,2100.39c2.16-1.25,4.37-2.49,7.78-2.51,3.08-.01,8.03.97,8.96,3.13,1.53,3.53-7.87,9.76-17.77,10.75-2.17.22-6.06.61-7.29-.87-1.86-2.23,3.33-7.62,8.31-10.5Z"/>
        <path class="cls-36" d="M1516.28,2171.09c-.92-2.47-1.89-4.96-4.67-7.02-2.51-1.86-7.21-3.91-9.42-2.45-3.62,2.39-.14,13.85,7.28,20.72,1.63,1.5,4.54,4.2,6.53,3.56,3.03-.97,2.4-9.12.28-14.82Z"/>
        <path class="cls-36" d="M1524.12,2174c2.16-1.25,4.37-2.49,7.78-2.51,3.08-.01,8.03.97,8.96,3.13,1.53,3.53-7.87,9.76-17.77,10.75-2.17.22-6.06.61-7.29-.87-1.86-2.23,3.33-7.62,8.31-10.5Z"/>
      </g>
      <path class="cls-36" d="M1514.32,2208.57c1.17-14.76,3.93-32.28,9.82-51.62,4.75-15.59,10.32-28.3,14.51-36.98,3.44-7.11,6.73-13.1,9.4-17.7"/>
    </g>
    <g>
      <g>
        <path class="cls-49" d="M1455.21,2008.08c-2-5.35-4.1-10.76-10.12-15.23-5.44-4.04-15.64-8.48-20.45-5.31-7.86,5.19-.31,30.06,15.79,44.96,3.53,3.26,9.85,9.11,14.18,7.73,6.56-2.11,5.21-19.8.6-32.14Z"/>
        <path class="cls-49" d="M1472.22,2014.4c4.68-2.71,9.48-5.41,16.88-5.45,6.68-.03,17.42,2.1,19.44,6.79,3.31,7.67-17.07,21.18-38.55,23.32-4.7.47-13.14,1.31-15.81-1.88-4.04-4.85,7.23-16.52,18.03-22.79Z"/>
        <path class="cls-49" d="M1491.31,1924.02c-2-5.35-4.1-10.76-10.12-15.23-5.44-4.04-15.64-8.48-20.45-5.31-7.86,5.19-.31,30.06,15.79,44.96,3.53,3.26,9.85,9.11,14.18,7.73,6.56-2.11,5.21-19.8.6-32.14Z"/>
        <path class="cls-49" d="M1508.33,1930.33c4.68-2.71,9.48-5.41,16.88-5.45,6.68-.03,17.42,2.1,19.44,6.79,3.31,7.67-17.07,21.18-38.55,23.32-4.7.47-13.14,1.31-15.81-1.88-4.04-4.85,7.23-16.52,18.03-22.79Z"/>
        <path class="cls-49" d="M1430.31,2083.73c-2-5.35-4.1-10.76-10.12-15.23-5.44-4.04-15.64-8.48-20.45-5.31-7.86,5.19-.31,30.06,15.79,44.96,3.53,3.26,9.85,9.11,14.18,7.73,6.56-2.11,5.21-19.8.6-32.14Z"/>
        <path class="cls-49" d="M1447.32,2090.05c4.68-2.71,9.48-5.41,16.88-5.45,6.68-.03,17.42,2.1,19.44,6.79,3.31,7.67-17.07,21.18-38.55,23.32-4.7.47-13.14,1.31-15.81-1.88-4.04-4.85,7.23-16.52,18.03-22.79Z"/>
      </g>
      <path class="cls-52" d="M1426.07,2165.06c2.53-32.02,8.53-70.04,21.3-111.99,10.31-33.84,22.38-61.41,31.49-80.23,7.47-15.43,14.61-28.43,20.38-38.4"/>
    </g>
    <path class="cls-41" d="M509.12,1700.44c82.68,1.94,614.34-1.31,630.61-1.86.24,0,1.31,7.89,2.13,15.51.61,5.64-.05,9.67,1.32,21.57,0,0,.75,22.45,3.09,41.37.58,4.67,9.62,75.89,19.15,115.03,8.06,33.08,33.09,80.33,61.85,132.17,23.08,41.6,51.1,40.67,49.46,53.09-2.62,19.91-68.08,30.26-245.49,37.55-124.18,5.11-196.06,4.31-322.69,4.17-178.5-.2-317.08,1.06-323.39-31.99-.97-5.07,11.41-26.33,36.16-68.85,10.16-17.45,12.38-20.53,19.47-33.38,4.15-7.53,43.87-108.19,50.07-146.74,7.23-44.95,5.96-64.04,16.69-118.92,2.33-11.93-.81-18.79,1.56-18.73Z"/>
    <polyline class="cls-5" points="496.79 1819.15 633.33 1981.38 683.55 2118.73 431.75 2116.63 385.16 2087.07 402.58 2050.59"/>
    <g>
      <path class="cls-43" d="M1254.64,2069.25c-24.63-4.99-57.93-15.02-91.19-37.26-77.65-51.93-101.9-134.89-109.81-131.39-6.16,2.73.28,56.69,34.32,101.97,50.26,66.87,136.88,83.14,158.84,87.26,4.92.93,9.02,1.56,11.77,1.96"/>
      <path class="cls-1" d="M951.65,2127.4c-10.45-38.12-23.73-94.55-31.92-164.16-9.34-79.4-8.29-144.09-10.94-144.09-2.36,0-2.83,53.76-6.38,111.26-5.32,86.03-16.04,155.7-24.62,202.46l73.87-5.47Z"/>
      <path class="cls-1" d="M634.78,2142.23c20.31-26.41,42.11-60.55,59.75-102.85,48.01-115.13,36.29-221.56,26.45-274.26-1.52,11.33-5.31,280.13-118.52,370.25"/>
      <path class="cls-43" d="M404,2103.04c30.54-12.07,86.16-44.88,108.32-80.55,36.9-59.41,20.09-131.34,25.23-131.63,4.15-.23,20.92,46.24,8.54,98.26-14.65,61.59-64.7,108.02-114.34,127.52-7.44,2.92-5.49-6.4-9.92-5.21"/>
    </g>
    <path class="cls-5" d="M1139.74,1698.59c-53.05,47.65-72.26,136.28-52.44,202.59,26.93,90.08,115.13,118.45,122.04,120.55l11.74,2.52-36.95-76.98"/>
    <polyline class="cls-28" points="509.12 1700.44 1139.74 1698.59 1143.29 1729.59 505.64 1729.29 509.12 1700.44"/>
    <path class="cls-37" d="M1039.87,1705.02c-12.85,83.75-15.96,106.16-15.6,106.22.52.09,2.1-47.42,32.72-87.09,8.26-10.7,16.8-18.47,23.62-23.86l-41.17-1.7.43,6.43Z"/>
    <path class="cls-29" d="M706.67,726.54c30.19-4.84,56.06-7.27,75.83-8.58,75.15-4.97,130.48,1.8,146.7,3.96,13.9,1.85,25.37,3.82,33.31,5.28l7.8,17.16-163.45-6.96-107.34,6.96,7.15-17.82Z"/>
    <polygon class="cls-51" points="754.56 641.74 752.59 645.58 726.8 695.61 785.34 688.25 754.56 641.74"/>
    <line class="cls-51" x1="754.71" y1="643.05" x2="754.71" y2="691.93"/>
    <polyline class="cls-51" points="804.57 690.8 837.15 641.74 870 690.8"/>
    <polyline class="cls-51" points="837.28 666.27 837.28 683 837.28 691.93 826.38 683 848.19 683.8"/>
    <polygon class="cls-51" points="920.89 644.47 888.26 690.8 947.21 695.61 920.89 644.47"/>
    <polyline class="cls-51" points="920.54 652.54 920.54 668.68 920.54 685.18 927.21 668.68"/>
    <polyline class="cls-51" points="823.45 571.81 825.39 568.69 828.71 563.39 839.94 576.02 823.45 585.14 818.18 581.99 829.06 596.02 857.49 554.61 878.19 561.63 871.53 600.59 856.44 607.61 854.27 601.99 861.7 598.48"/>
    <polyline class="cls-51" points="857.02 503.39 826.38 474.61 815.26 485.84 829.3 503.39 861.34 473.71 872.11 463.73 837.28 455.66 865.8 479.52"/>
    <polyline class="cls-51" points="789.99 439.52 794.55 455.66 800.52 439.52"/>
    <polyline class="cls-51" points="782.27 513.92 766.83 525.15 785.34 537.78 760.16 557.43"/>
    <line class="cls-51" x1="752.79" y1="606.22" x2="743.32" y2="613.94"/>
    <polyline class="cls-51" points="818.18 322.62 843.69 313.6 800.52 404.59 857.2 400.08"/>
  </g>
  <g id="_Слой_13" data-name="Слой 13">
    <polygon class="cls-39" points="879.98 1213.5 804.64 1271.32 827.41 1302.95 879.98 1213.5"/>
  </g>
  <g id="_Слой_15" data-name="Слой 15">
    <path class="cls-36" d="M242.26,2245.46c-11.57-11.53-39.21,6.17-53.72,11.29-34.04,12.02-39.47,42.61-51.32,98-7.5,35.06-11.31,42.76-7.2,46.69,8.71,8.32,32.51-9.86,38.85-10.78,22.61-3.26,51.53-24.96,71.61-60.76,16.86-30.07,11.12-75.14,1.78-84.45Z"/>
    <path class="cls-36" d="M554.21,2202.47c-12.17-1.01-21.3,4.51-23.48,5.91-18.31,11.72-26.67,39.31-25.55,61.31,1,19.51,9.29,31.44,3.11,49.49-1.13,3.31-4.15,10.92-2.76,11.82,1.21.79,4.37-4.43,10.01-8.13,7.61-4.97,15.35-4.32,18.99-4.43,18.69-.59,41.16-25.18,50.07-49.86,3.93-10.88,9.89-27.39,2.07-43.58-6.24-12.92-19.21-21.43-32.46-22.53Z"/>
    <path class="cls-36" d="M756.02,2163.07c4.62,9.67-1.61,25.75-13.06,37.51-13.28,13.64-35.55,23.5-49.19,22.82-3.2-.16-8.26-1.02-14.74,1.72-7.62,3.22-11.8,9.15-13.3,8.69-1.59-.49,3-7.18,5.65-14.57,4.75-13.21-1.47-15.41,1.32-26.26,3.87-15.04,20.14-27.67,24.09-30.73,5.52-4.28,21.68-16.83,35.21-15.88,6.41.45,10.7,3.82,15.67,7.73,2.9,2.28,6.48,5.1,8.33,8.98Z"/>
    <path class="cls-36" d="M896.05,2326.71c9.09-13.95,31.15-14.45,45.58-8.5,4.86,2,9.25,4.9,37.98,47.65,15,22.32,20.33,31.23,17.26,36.2-1.4,2.28-4.47,3.57-16.57,2.95-16.75-.85-28.81-1.45-44.54-8.86-14.04-6.61-33.56-15.81-40.74-36.94-1.23-3.62-6.91-20.33,1.04-32.5Z"/>
    <path class="cls-36" d="M1154.95,2116.47c8.28,3.85,19.72,3.56,27.62-2.95,12.73-10.5,10.57-32.44,10.01-38.04-1.65-16.73-8.95-20.72-7.6-36.57.9-10.56,4.96-18.39,3.45-19.21-1.33-.72-4.17,5.52-11.39,13.3-9.08,9.77-19.91,16.39-29.35,22.16-5.61,3.43-5.78,3.18-6.91,4.43-10.67,11.94-6.03,47.49,14.16,56.88Z"/>
    <path class="cls-36" d="M989.42,2192.6c-2.6-.27-26.68-3.15-35.18-20.33-4.9-9.9-2.29-19.85-.6-26.27,3.18-12.11,8.6-12.9,12.47-27.49,2.42-9.12,1.61-13.75,4.72-14.82,4.05-1.38,9.1,5.16,19.87,15.07,21.03,19.33,26.48,17.1,30.89,27.02,5.08,11.43,2.43,24.7-3.54,33.44-1.65,2.41-6.93,10.16-17.2,12.79-1.19.3-5.16,1.24-11.42.58Z"/>
    <path class="cls-36" d="M664.37,2292.73c-9.35-10.9-10.64-27-6.56-38.41,4.08-11.43,9.93-8.05,35.56-33.24,4.71-4.63,8.46-8.62,11.05-7.39,3.85,1.84.49,13.09,3.45,32.5,1.61,10.54,2.94,9.46,3.45,15.88,1.06,13.38-3.28,36.32-18.3,41.37-10.71,3.6-22.37-3.39-28.66-10.71Z"/>
    <path class="cls-8" d="M656.08,2321.5c2.72,1.72,19.92,13.02,20.72,30.29.64,14.02-10.17,17.96-12.08,40.26-.61,7.11.12,11.05-2.07,12.19-4.92,2.55-17.4-12.74-24.51-25.49-.99-1.77-5.05-9.18-8.63-21.05-4.81-15.94-10.27-34.07-3.11-41,7.04-6.81,22.88.5,29.69,4.8Z"/>
    <path class="cls-36" d="M417.84,2133.32c6.3-13.13,20.44-20.92,32.38-21.82,11.96-.9,11.14,5.91,43.9,19.34,6.02,2.47,11.1,4.31,10.97,7.21-.19,4.33-11.7,5.81-28.2,16.52-8.95,5.81-7.46,6.6-13.1,9.71-11.75,6.47-34.26,11.84-44.64-.01-7.4-8.45-5.54-22.13-1.31-30.95Z"/>
    <path class="cls-36" d="M325.12,2222.25c-.12-13.4,5.65-23.02,7.1-25.32,12.17-19.28,38.47-26.63,58.92-23.95,18.13,2.37,28.7,12.24,45.96,6.66,3.17-1.02,10.46-3.83,11.21-2.25.65,1.38-4.43,4.49-8.26,10.43-5.15,8-5.06,16.53-5.42,20.51-1.82,20.43-26.27,43.42-49.89,51.55-10.41,3.58-26.22,9.02-40.79-.6-11.63-7.68-18.7-22.45-18.83-37.03Z"/>
    <path class="cls-36" d="M826.3,2261.78c-14.52-3.41-28.96,25.06-38.41,36.64-22.16,27.16-12.86,54.69,2.35,105.6,9.62,32.22,9.99,40.4,15.08,41.48,10.77,2.28,21.89-24.63,26.61-28.61,16.83-14.21,30.51-46.58,30.73-85.84.19-32.97-24.63-66.51-36.36-69.26Z"/>
    <path class="cls-36" d="M1336.81,2177.22c5.24,7.87,15.18,13.92,25.09,12.7,15.97-1.98,24.69-21.98,26.91-27.08,6.65-15.25,2.32-22.69,11.11-35.52,5.86-8.55,13.11-13.02,12.21-14.56-.79-1.35-6.23,2.43-16.17,5.11-12.49,3.37-24.96,3.07-35.83,2.81-6.46-.15-6.49-.47-8.05,0-14.9,4.35-28.05,37.37-15.27,56.55Z"/>
    <path class="cls-8" d="M303.64,2330.99c-16.04,3.99-26.28,16.86-29.75,21.63-3.99,5.49-16.7,22.96-11.44,31.01,4.62,7.07,21,3.68,30.9-1.63,16.74-8.99,21.34-26.92,24.79-40.4.76-2.97,1.53-6.86-.38-9.38-3.02-3.98-10.82-2.04-14.11-1.22Z"/>
    <path class="cls-8" d="M111.78,2277.95c8.48,14.86,7.4,30.63,6.48,42.03-.73,9.09-2.85,35.35-11.06,36.72-7.75,1.29-16.63-20.31-21.36-31.83-6.03-14.67-10.24-25.32-7.25-37.95,2.35-9.92,9.62-23.01,18.31-22.85,7.03.13,12.02,8.86,14.88,13.87Z"/>
    <path class="cls-36" d="M167.48,2123.53c-10.07-3.86-21.71-.81-28.67,4.83-6.97,5.65-3.08,8.9-14.13,32.97-2.03,4.42-3.86,8.02-2.33,9.52,2.29,2.24,9.31-2.87,23.71-5.55,7.81-1.46,7.4-.26,12.04-1.48,9.67-2.54,24.65-11.18,24.31-22.91-.24-8.36-8.17-14.79-14.94-17.38Z"/>
    <path class="cls-36" d="M1200.61,2322.44c-7.22-15.81-25.25-27.12-42.12-24.84-20.47,2.77-32.17,24.59-37.26,34.08-16.32,30.44-8.76,58.27-28.08,74.51-2.62,2.21-9.61,7.45-8.64,9.82.76,1.85,5.96.9,11.88,0,32.85-5.02,40.95-1.58,47.52-9.82,2.69-3.37,3.65-6.86,8.1-9.24,5.35-2.86,10.57-1.36,12.96-1.16,15.69,1.36,50.45-40.94,35.64-73.36Z"/>
    <path class="cls-36" d="M1507.38,2324.23c11.22,10.58,15.68,28.41,9.38,41.75-9.32,19.72-38.31,21.47-41.68,21.63-20.5.96-32.31-9.66-51.99-3.13-4.84,1.61-9.02,3.87-10.75,2.24-2.74-2.58,3.86-11.85,13.55-28.93,15.17-26.74,12.37-27.57,17.98-32.43,14.36-12.45,45.52-18.11,63.52-1.13Z"/>
    <path class="cls-36" d="M1180.7,2161.56c4.52-9.11,14.8-17.56,24.84-16.17,2.64.36,8.3,1.82,27,33.5,14.95,25.33,14.23,29.3,12.96,31.19-2.14,3.18-6.51,1.42-28.08,1.16-15.45-.19-15.74.69-18.9-.58-14.06-5.63-27.04-30.52-17.82-49.1Z"/>
    <path class="cls-8" d="M939.83,2254.01c-8.65-12.76-32.62-11.15-44.08,0-2.82,2.74-2.04,3.31-12.69,29.29-5.99,14.61-8.02,18.81-6.01,22.15,3.44,5.72,15.45,3.41,22.04,2.14,10.8-2.08,32.61-6.27,40.74-25.72.84-2.01,7.06-17.45,0-27.86Z"/>
    <g>
      <path class="cls-45" d="M780.05,2353.22c-.98,1.24,7.34,6.39,6.97,12.62-.36,6.21-9.35,13.64-18.26,11.95-6.93-1.32-12.67-7.95-12.25-13.41.42-5.56,7.19-9.73,6.43-10.64-.34-.41-1.91.2-3.11.99-4,2.64-3.05,6.75-6.04,9.22-2.8,2.32-7.33,1.76-10.02.65-5.92-2.43-7.73-9.49-7.61-14.05.01-.47.33-8.3,6.01-12.16,4.93-3.35,10.8-1.61,11.29-3.54.45-1.8-4.7-2.97-5.73-7.04-1-3.95,2.46-8.31,5.1-10.42,5.69-4.55,15.06-4.66,18.22-.65,2.34,2.98,1.07,7.97,1.6,8.01.53.04,1.24-4.2,2.95-7.47,5.78-11.01,14.58.06,17.22,4.06,2.97,4.51-5.61,8.69-2.27,12.22,1.73,1.83,3.32.64,6.4,2.83.52.37,4.78,3.5,5.16,8.65.39,5.21-3.35,10.41-7.7,11.74-6.44,1.97-13.37-4.79-14.35-3.56Z"/>
      <circle class="cls-32" cx="770.18" cy="2344.63" r="9.04"/>
      <circle class="cls-21" cx="770.18" cy="2344.63" r="4.52"/>
    </g>
    <g>
      <path class="cls-25" d="M516.47,2320.62c15.82-21.55,25.47-46.78,33.46-72.08,2.28-7.21,4.43-14.47,6.58-21.72.46-1.55-1.95-2.21-2.41-.66-7.52,25.38-15.13,51.04-27.87,74.38-3.56,6.53-7.52,12.83-11.92,18.83-.95,1.3,1.22,2.55,2.16,1.26h0Z"/>
      <path class="cls-25" d="M544.88,2256.32c-3.5.13-6.74-2.66-9.28-4.77-2.78-2.31-5.32-4.93-7.51-7.82-.41-.54-1.07-.81-1.71-.45-.53.3-.86,1.17-.45,1.71,2.45,3.22,5.22,6.16,8.37,8.71,2.98,2.41,6.53,5.26,10.58,5.12,1.6-.06,1.61-2.56,0-2.5h0Z"/>
      <path class="cls-25" d="M536.1,2283.29c9.79-.71,18.37-5.7,26.58-10.66,1.38-.83.12-2.99-1.26-2.16-7.8,4.71-16.02,9.64-25.32,10.31-1.6.12-1.61,2.62,0,2.5h0Z"/>
    </g>
    <path class="cls-25" d="M822.53,2266.39c.63,18.09.69,36.19.15,54.29-.54,18.09-1.66,36.16-3.36,54.18-.96,10.16-2.11,20.29-3.44,30.41-.21,1.59,2.29,1.58,2.5,0,2.36-17.94,4.14-35.96,5.33-54.02,1.19-18.06,1.8-36.16,1.83-54.25.01-10.2-.16-20.4-.52-30.6-.06-1.6-2.56-1.61-2.5,0h0Z"/>
    <path class="cls-25" d="M823.07,2352.1c2.27,3.82,4.54,7.64,6.81,11.47.82,1.38,2.98.13,2.16-1.26-2.27-3.82-4.54-7.64-6.81-11.47-.82-1.38-2.98-.13-2.16,1.26h0Z"/>
    <path class="cls-25" d="M822.96,2327.87c-8.21-1.41-16.78,2.34-21.24,9.4-.86,1.36,1.3,2.62,2.16,1.26,3.81-6.04,11.35-9.47,18.42-8.25,1.57.27,2.25-2.14.66-2.41h0Z"/>
    <path class="cls-25" d="M825.24,2295.08c3.78.33,6.88,3.18,9.03,6.11,2.54,3.46,4.42,7.35,7.28,10.58,1.07,1.21,2.83-.57,1.77-1.77-3.02-3.41-4.9-7.63-7.74-11.18-2.59-3.25-6.1-5.87-10.34-6.24-1.6-.14-1.59,2.36,0,2.5h0Z"/>
    <path class="cls-25" d="M816.11,2387.75c-6.31-.06-12.45,3.73-15.13,9.46-.29.61-.17,1.35.45,1.71.54.32,1.42.17,1.71-.45,2.33-4.96,7.48-8.27,12.98-8.22,1.61.02,1.61-2.48,0-2.5h0Z"/>
    <path class="cls-25" d="M231.16,2266.32c-14.74,6.13-25.44,18.44-33.88,31.6-4.69,7.31-8.82,14.96-13.17,22.47s-9.07,15.27-13.86,22.75c-5.43,8.48-11.07,16.83-16.9,25.03-.93,1.31,1.23,2.56,2.16,1.26,10.11-14.21,19.62-28.85,28.48-43.87,8.45-14.34,15.85-29.73,27.32-41.99,5.8-6.2,12.63-11.56,20.51-14.84,1.46-.61.82-3.03-.66-2.41h0Z"/>
    <path class="cls-25" d="M171.04,2343.96c.47,12.53-.96,25.05-4.26,37.14-.42,1.55,1.99,2.22,2.41.66,3.36-12.3,4.83-25.07,4.35-37.81-.06-1.6-2.56-1.61-2.5,0h0Z"/>
    <path class="cls-25" d="M184.29,2322.13c-12.01-1.9-24.37.09-35.15,5.75-1.43.75-.16,2.91,1.26,2.16,10.13-5.32,21.91-7.29,33.22-5.49,1.57.25,2.25-2.16.66-2.41h0Z"/>
    <path class="cls-25" d="M198.34,2296.03c2.13,11.4,5.01,23.05,3.42,34.72-.22,1.57,2.19,2.25,2.41.66,1.66-12.16-1.19-24.16-3.42-36.05-.3-1.58-2.71-.91-2.41.66h0Z"/>
    <path class="cls-25" d="M212.9,2279.59c-12.6-.86-25.26-.14-37.69,2.09-1.58.28-.91,2.69.66,2.41,12.21-2.19,24.65-2.84,37.03-2,1.61.11,1.6-2.39,0-2.5h0Z"/>
    <g>
      <path class="cls-36" d="M340.21,2315.03c3.89-3.13,13.39-9.9,26.41-10.47,15.88-.7,30.29,8.12,37.87,19.88,7.46,11.58,1.98,16.19,10.87,37.45,6.41,15.35,12.86,21.54,10.26,25.93-1.71,2.88-6.03,2.84-23.4.57-35.8-4.67-42.4-7.76-48.36-12.85-6.5-5.55-9.91-11.49-10.68-12.88-10.88-19.55-4.68-41.99-2.96-47.64Z"/>
      <path class="cls-25" d="M346.19,2322.77c4.97-2.2,10.66-.88,15.18,1.78,4.98,2.93,8.52,7.62,11.55,12.43s5.81,9.98,9.16,14.71c3.3,4.65,6.98,9.05,10.99,13.1,4.61,4.65,9.66,8.85,15.06,12.56,1.33.91,2.58-1.25,1.26-2.16-9.97-6.86-18.71-15.52-25.63-25.45-6.56-9.42-11.01-21.61-21.46-27.55-5.31-3.02-11.65-4.11-17.36-1.58-1.47.65-.2,2.8,1.26,2.16h0Z"/>
      <path class="cls-25" d="M394.99,2369.49c.62,3.31-.18,6.76-2.07,9.54-.38.56-.11,1.39.45,1.71.62.36,1.33.11,1.71-.45,2.28-3.34,3.06-7.51,2.32-11.46-.13-.66-.93-1.04-1.54-.87-.7.19-1,.87-.87,1.54h0Z"/>
      <path class="cls-25" d="M390.55,2360.1c2.07-1.88,4.97-2.33,7.67-2.35,3.38-.03,6.72.43,10.09-.13,1.58-.26.91-2.67-.66-2.41-3.51.59-7.06-.13-10.58.08-3.02.18-6,.97-8.28,3.05-1.19,1.09.58,2.85,1.77,1.77h0Z"/>
      <path class="cls-25" d="M381.55,2347.39c-3.74-1.09-7.73.57-10.34,3.31-2.89,3.05-4.16,7.21-5.23,11.17-.42,1.55,1.99,2.22,2.41.66.92-3.39,1.92-7.05,4.3-9.75,2.01-2.27,5.14-3.87,8.19-2.98,1.55.45,2.21-1.96.66-2.41h0Z"/>
      <path class="cls-25" d="M374.39,2337.05c2.64-1.94,5.9-2.28,9.08-2.37,3.79-.1,7.58-.02,11.37.18,1.61.09,1.6-2.41,0-2.5-4.01-.21-8.04-.32-12.05-.16-3.37.14-6.87.63-9.66,2.69-1.28.94-.04,3.11,1.26,2.16h0Z"/>
      <path class="cls-25" d="M362.83,2322.35c-1.48-.62-3.15-.08-4.35.87-1.19.93-2.06,2.24-2.96,3.44-1.93,2.59-3.72,5.28-5.37,8.05-.82,1.39,1.34,2.65,2.16,1.26,1.46-2.46,3.03-4.85,4.71-7.16.77-1.06,1.53-2.16,2.43-3.11.73-.77,1.65-1.39,2.72-.95.62.26,1.37-.28,1.54-.87.2-.72-.25-1.28-.87-1.54h0Z"/>
    </g>
    <path class="cls-25" d="M1297.8,2293.66c-11.47-.69-21.88,7.5-23.85,18.83-.27,1.57,2.14,2.25,2.41.66.83-4.8,3.26-9.18,6.99-12.34,3.98-3.38,9.27-4.97,14.45-4.65,1.61.1,1.6-2.4,0-2.5h0Z"/>
    <path class="cls-36" d="M312.86,2366.82c-2.67,9.5-4.55,19.06-4.74,28.95s.9,19.87,2,29.75c.15,1.34,1.04,2.5,2.5,2.5,1.24,0,2.65-1.15,2.5-2.5-1.08-9.72-2.16-19.47-2.01-29.26.15-9.63,1.98-18.86,4.57-28.11.87-3.1-3.95-4.43-4.82-1.33h0Z"/>
    <g>
      <path class="cls-45" d="M1425.14,2282.86c-.89,1.12,6.62,5.77,6.29,11.39-.33,5.6-8.44,12.31-16.49,10.79-6.26-1.19-11.44-7.17-11.06-12.11.38-5.02,6.49-8.78,5.8-9.61-.31-.37-1.72.18-2.8.89-3.61,2.38-2.76,6.09-5.45,8.32-2.53,2.09-6.62,1.59-9.04.59-5.34-2.2-6.98-8.57-6.87-12.69.01-.42.3-7.49,5.43-10.98,4.45-3.02,9.75-1.45,10.19-3.2.41-1.62-4.24-2.68-5.18-6.35-.91-3.57,2.22-7.5,4.6-9.41,5.14-4.11,13.6-4.21,16.45-.59,2.11,2.69.97,7.2,1.44,7.23.48.04,1.12-3.8,2.67-6.74,5.22-9.94,13.17.05,15.55,3.67,2.68,4.07-5.07,7.85-2.05,11.03,1.56,1.65,3,.57,5.78,2.55.47.33,4.32,3.16,4.66,7.81.35,4.7-3.03,9.4-6.95,10.6-5.81,1.78-12.07-4.33-12.96-3.21Z"/>
      <circle class="cls-32" cx="1416.23" cy="2275.11" r="8.16"/>
      <circle class="cls-21" cx="1416.23" cy="2275.11" r="4.08"/>
    </g>
    <g>
      <path class="cls-45" d="M148.58,2341.34c-.98,1.24,7.34,6.39,6.97,12.62-.36,6.21-9.35,13.64-18.26,11.95-6.93-1.32-12.67-7.95-12.25-13.41.42-5.56,7.19-9.73,6.43-10.64-.34-.41-1.91.2-3.11.99-4,2.64-3.05,6.75-6.04,9.22-2.8,2.32-7.33,1.76-10.02.65-5.92-2.43-7.73-9.49-7.61-14.05.01-.47.33-8.3,6.01-12.16,4.93-3.35,10.8-1.61,11.29-3.54.45-1.8-4.7-2.97-5.73-7.04-1-3.95,2.46-8.31,5.1-10.42,5.69-4.55,15.06-4.66,18.22-.65,2.34,2.98,1.07,7.97,1.6,8.01.53.04,1.24-4.2,2.95-7.47,5.78-11.01,14.58.06,17.22,4.06,2.97,4.51-5.61,8.69-2.27,12.22,1.73,1.83,3.32.64,6.4,2.83.52.37,4.78,3.5,5.16,8.65.39,5.21-3.35,10.41-7.7,11.74-6.44,1.97-13.37-4.79-14.35-3.56Z"/>
      <circle class="cls-32" cx="138.71" cy="2332.74" r="9.04"/>
      <circle class="cls-21" cx="138.71" cy="2332.74" r="4.52"/>
    </g>
    <g>
      <path class="cls-45" d="M368.45,2134.5c-.98,1.24,7.34,6.39,6.97,12.62-.36,6.21-9.35,13.64-18.26,11.95-6.93-1.32-12.67-7.95-12.25-13.41.42-5.56,7.19-9.73,6.43-10.64-.34-.41-1.91.2-3.11.99-4,2.64-3.05,6.75-6.04,9.22-2.8,2.32-7.33,1.76-10.02.65-5.92-2.43-7.73-9.49-7.61-14.05.01-.47.33-8.3,6.01-12.16,4.93-3.35,10.8-1.61,11.29-3.54.45-1.8-4.7-2.97-5.73-7.04-1-3.95,2.46-8.31,5.1-10.42,5.69-4.55,15.06-4.66,18.22-.65,2.34,2.98,1.07,7.97,1.6,8.01.53.04,1.24-4.2,2.95-7.47,5.78-11.01,14.58.06,17.22,4.06,2.97,4.51-5.61,8.69-2.27,12.22,1.73,1.83,3.32.64,6.4,2.83.52.37,4.78,3.5,5.16,8.65.39,5.21-3.35,10.41-7.7,11.74-6.44,1.97-13.37-4.79-14.35-3.56Z"/>
      <circle class="cls-32" cx="358.58" cy="2125.9" r="9.04"/>
      <circle class="cls-21" cx="358.58" cy="2125.9" r="4.52"/>
    </g>
    <path class="cls-50" d="M227.11,2148.73c-18.53-34.41-46.52-76.15-88.63-115.56-13.48-12.61-26.9-23.57-39.83-33.1"/>
    <g>
      <path class="cls-24" d="M98.87,1998.63c1.19-3.54.38-7.51-1.36-10.82s-4.33-6.07-6.91-8.78c-1.37-1.44-2.77-2.89-4.45-3.94-1.69-1.05-3.62-1.67-5.55-2.16-4.63-1.19-9.42-1.76-14.2-1.69,4.46,7.55,9.67,14.67,15.53,21.2,4.11,4.59,9.39,9.22,15.52,8.68"/>
      <path class="cls-24" d="M101.28,1999.29c2.8-8.95-3.71-16.68-9.5-22.65-1.52-1.57-3.16-3.1-5.11-4.14-1.84-.98-3.85-1.61-5.87-2.1-4.7-1.16-9.56-1.71-14.4-1.66-1.88.02-3.14,2.11-2.16,3.76,4.24,7.14,9.12,13.9,14.57,20.17,4.73,5.44,10.82,11.49,18.64,10.94,1.35-.1,2.5-1.08,2.5-2.5,0-1.28-1.15-2.6-2.5-2.5-6.72.47-11.75-5.55-15.7-10.16-4.93-5.76-9.32-11.95-13.19-18.48l-2.16,3.76c4.09-.04,8.15.35,12.14,1.26,1.76.4,3.6.82,5.23,1.63,1.62.8,2.92,1.96,4.18,3.25,4.56,4.65,10.75,10.92,8.51,18.09-.96,3.08,3.86,4.39,4.82,1.33h0Z"/>
    </g>
    <g>
      <path class="cls-24" d="M127.21,2022.46c-.97-7.52-1.95-15.08-1.75-22.67s1.64-15.25,5.23-21.94c7.29,6.66,9.85,18,6.12,27.14-1.88,4.61-5.16,8.61-6.59,13.39"/>
      <path class="cls-24" d="M129.71,2022.46c-1.85-14.32-3.91-30.03,3.14-43.34l-3.93.51c4.84,4.5,7.35,11,7.06,17.58-.15,3.42-1.2,6.61-2.81,9.62-1.91,3.59-4.15,6.99-5.37,10.9-.96,3.08,3.87,4.4,4.82,1.33,1.25-4.03,3.83-7.45,5.64-11.23,1.71-3.57,2.68-7.38,2.74-11.35.11-7.58-2.98-15.21-8.55-20.38-1.13-1.05-3.15-.97-3.93.51-7.53,14.22-5.81,30.52-3.82,45.86.17,1.34,1.02,2.5,2.5,2.5,1.22,0,2.67-1.15,2.5-2.5h0Z"/>
    </g>
    <g>
      <path class="cls-24" d="M115.81,2014.41c-6.78-.12-13.56-.23-20.33.16-3.83.23-7.83.67-11.04,2.77-4.43,2.88-6.46,8.21-8.23,13.18,7.06,2.6,15.01,2.68,22.13.24,7.11-2.44,13.34-7.39,17.31-13.78"/>
      <path class="cls-24" d="M115.81,2011.91c-4.79-.08-9.59-.17-14.38-.07-4.36.09-8.91.1-13.16,1.19-4.01,1.02-7.27,3.3-9.69,6.64-2.21,3.05-3.52,6.67-4.78,10.19-.48,1.34.55,2.65,1.75,3.08,7.95,2.86,17.04,2.84,24.91-.3,7.16-2.85,13.23-7.86,17.35-14.39,1.72-2.73-2.6-5.24-4.32-2.52-3.45,5.46-8.67,9.91-14.72,12.23-7.06,2.71-14.79,2.71-21.89.16l1.75,3.08c1.11-3.11,2.26-6.33,4.27-8.99s4.73-3.99,7.91-4.61c3.78-.74,7.78-.7,11.62-.76,4.46-.07,8.93,0,13.39.08,3.22.06,3.22-4.94,0-5h0Z"/>
    </g>
    <g>
      <path class="cls-24" d="M137.56,2037.52c-7.14-.55-14.48.11-21.08,2.89-6.6,2.78-12.4,7.83-15.19,14.42-.16.39-.31.86-.06,1.2.17.24.48.32.76.39,3.58.89,7.29,1.78,10.94,1.22,1.85-.29,3.62-.94,5.33-1.7,8.32-3.7,15.41-10.1,19.95-18"/>
      <path class="cls-24" d="M137.56,2035.02c-12.63-.93-26.48,2.13-34.72,12.48-.93,1.16-1.79,2.37-2.52,3.66s-1.78,3.01-1.71,4.58c.09,1.99,1.7,2.83,3.42,3.25,1.87.46,3.74.86,5.64,1.1,6.82.87,13.22-2.08,18.73-5.88,5.69-3.92,10.48-9.04,13.96-15.02,1.62-2.79-2.7-5.31-4.32-2.52-3.24,5.57-7.74,10.38-13.15,13.89-2.84,1.84-5.96,3.56-9.26,4.38-1.79.45-3.65.45-5.48.22-.9-.11-1.79-.3-2.67-.49-.55-.12-1.1-.25-1.65-.38-.24-.06-.47-.11-.7-.17-.69-.24-.64-.12.15.36l.34,1.26c0-.28.55-1.19.75-1.56.39-.73.82-1.44,1.28-2.12.81-1.2,1.75-2.29,2.76-3.32,2.25-2.27,4.9-4.08,7.77-5.47,6.6-3.21,14.17-3.79,21.39-3.26,1.35.1,2.5-1.22,2.5-2.5,0-1.44-1.15-2.4-2.5-2.5h0Z"/>
    </g>
    <g>
      <path class="cls-24" d="M151.42,2042.87c-.61-6.53-1.16-13.45,1.72-19.34,1.62-3.32,4.21-6.06,6.89-8.62,2.7-2.59,5.53-5.05,8.46-7.38,3.47,7.9,2.42,17.04.19,25.38-.43,1.6-.9,3.2-1.64,4.68-2.1,4.2-6.44,7.19-11.11,7.66"/>
      <path class="cls-24" d="M153.92,2042.87c-.59-6.36-1.33-13.42,1.97-19.21,1.6-2.8,3.91-5.1,6.23-7.31,2.6-2.47,5.31-4.82,8.12-7.05-1.31-.17-2.62-.34-3.93-.51,2.81,6.56,2.14,14.11.58,20.89-.74,3.19-1.46,6.69-3.72,9.19-1.87,2.06-4.46,3.57-7.25,3.89-1.34.15-2.5,1.04-2.5,2.5,0,1.23,1.15,2.66,2.5,2.5,3.89-.45,7.48-2.03,10.28-4.82,3.04-3.03,4.33-6.99,5.32-11.07,2.06-8.5,2.64-17.41-.88-25.6-.7-1.63-2.83-1.38-3.93-.51-2.98,2.38-5.86,4.88-8.61,7.52-2.54,2.45-5.04,5.1-6.73,8.22-3.57,6.57-3.12,14.17-2.45,21.36.12,1.34,1.06,2.5,2.5,2.5,1.26,0,2.63-1.15,2.5-2.5h0Z"/>
    </g>
    <g>
      <path class="cls-36" d="M112.17,2178.86c-3.89,3.13-13.39,9.9-26.41,10.47-15.88.7-30.29-8.12-37.87-19.88-7.46-11.58-1.98-16.19-10.87-37.45-6.41-15.35-12.86-21.54-10.26-25.93,1.71-2.88,6.03-2.84,23.4-.57,35.8,4.67,42.4,7.76,48.36,12.85,6.5,5.55,9.91,11.49,10.68,12.88,10.88,19.55,4.68,41.99,2.96,47.64Z"/>
      <path class="cls-25" d="M106.19,2171.12c-4.97,2.2-10.66.88-15.18-1.78-4.98-2.93-8.52-7.62-11.55-12.43-3.08-4.89-5.81-9.98-9.16-14.71-3.3-4.65-6.98-9.05-10.99-13.1-4.61-4.65-9.66-8.85-15.06-12.56-1.33-.91-2.58,1.25-1.26,2.16,9.97,6.86,18.71,15.52,25.63,25.45,6.56,9.42,11.01,21.61,21.46,27.55,5.31,3.02,11.65,4.11,17.36,1.58,1.47-.65.2-2.8-1.26-2.16h0Z"/>
      <path class="cls-25" d="M57.39,2124.4c-.62-3.31.18-6.76,2.07-9.54.38-.56.11-1.39-.45-1.71-.62-.36-1.33-.11-1.71.45-2.28,3.34-3.06,7.51-2.32,11.46.13.66.93,1.04,1.54.87.7-.19,1-.87.87-1.54h0Z"/>
      <path class="cls-25" d="M61.83,2133.79c-2.07,1.88-4.97,2.33-7.67,2.35-3.38.03-6.72-.43-10.09.13-1.58.26-.91,2.67.66,2.41,3.51-.59,7.06.13,10.58-.08,3.02-.18,6-.97,8.28-3.05,1.19-1.09-.58-2.85-1.77-1.77h0Z"/>
      <path class="cls-25" d="M70.83,2146.49c3.74,1.09,7.73-.57,10.34-3.31,2.89-3.05,4.16-7.21,5.23-11.17.42-1.55-1.99-2.22-2.41-.66-.92,3.39-1.92,7.05-4.3,9.75-2.01,2.27-5.14,3.87-8.19,2.98-1.55-.45-2.21,1.96-.66,2.41h0Z"/>
      <path class="cls-25" d="M77.99,2156.84c-2.64,1.94-5.9,2.28-9.08,2.37-3.79.1-7.58.02-11.37-.18-1.61-.09-1.6,2.41,0,2.5,4.01.21,8.04.32,12.05.16,3.37-.14,6.87-.63,9.66-2.69,1.28-.94.04-3.11-1.26-2.16h0Z"/>
      <path class="cls-25" d="M89.55,2171.54c1.48.62,3.15.08,4.35-.87s2.06-2.24,2.96-3.44c1.93-2.59,3.72-5.28,5.37-8.05.82-1.39-1.34-2.65-2.16-1.26-1.46,2.46-3.03,4.85-4.71,7.16-.77,1.06-1.53,2.16-2.43,3.11-.73.77-1.65,1.39-2.72.95-.62-.26-1.37.28-1.54.87-.2.72.25,1.28.87,1.54h0Z"/>
    </g>
    <g>
      <path class="cls-45" d="M84.78,2160.18c3.11-1.93-10.96-19.62-5.29-32.88,5.64-13.21,31-22.35,49.05-11.7,14.05,8.29,21.33,27.18,16.16,38.74-5.26,11.76-23.24,15.53-22.29,18.11.43,1.16,4.3,1.06,7.52.28,10.75-2.62,11.91-12.29,20.34-15.33,7.91-2.85,17.32,1.91,22.29,6.41,10.97,9.92,9.39,26.68,5.57,36.51-.39,1-7.19,17.78-22.57,21.74-13.33,3.43-24.74-4.94-27.31-1.11-2.39,3.55,7.9,10.13,6.97,19.79-.9,9.37-11.85,16.14-19.23,18.67-15.93,5.45-36.4-1.63-40.13-12.82-2.77-8.3,3.9-18.17,2.79-18.67-1.12-.5-5.98,8.17-12.26,13.93-21.18,19.43-31.67-11.52-34.28-22.29-2.94-12.13,19-14.51,14.49-24.8-2.33-5.33-6.72-3.98-11.7-11.15-.83-1.2-7.66-11.34-4.46-22.85,3.24-11.63,15.42-20.01,25.92-19.51,15.54.75,25.33,20.87,28.42,18.95Z"/>
      <circle class="cls-32" cx="99.52" cy="2186.57" r="20.88"/>
      <circle class="cls-21" cx="99.52" cy="2186.57" r="10.44"/>
    </g>
    <path class="cls-25" d="M909.74,2332.61c3.06-.05,5.53,1.87,7.56,3.98,2.28,2.37,4.25,5.06,6.15,7.74,3.86,5.45,7.38,11.12,11.55,16.34,7.89,9.88,17.47,18.24,27.46,25.93,5.73,4.41,11.61,8.61,17.5,12.81,1.31.93,2.56-1.23,1.26-2.16-10.61-7.56-21.25-15.15-30.87-23.96-4.76-4.36-9.26-9.02-13.32-14.05-4.29-5.33-7.85-11.17-11.82-16.73-3.62-5.05-8.43-12.51-15.47-12.39-1.61.03-1.61,2.53,0,2.5h0Z"/>
    <path class="cls-25" d="M960.92,2383.45c6.72-.4,13.9-.82,20.12,2.25,1.44.71,2.71-1.44,1.26-2.16-6.66-3.29-14.16-3.02-21.38-2.59-1.6.09-1.61,2.59,0,2.5h0Z"/>
    <path class="cls-25" d="M945.55,2369.91c-3.35-.99-6.26,1.75-8.21,4.13-2.09,2.56-3.95,5.83-2.92,9.23.47,1.54,2.88.88,2.41-.66-.75-2.48.76-4.94,2.28-6.8,1.3-1.58,3.44-4.18,5.78-3.49,1.55.45,2.21-1.96.66-2.41h0Z"/>
    <path class="cls-25" d="M933.52,2355.34c.83-.36,1.85-.28,2.74-.31.78-.03,1.56-.05,2.34-.07,1.73-.03,3.47,0,5.19.17,3.31.32,6.51,1.27,9.18,3.31,1.28.98,2.52-1.19,1.26-2.16-3.02-2.31-6.71-3.29-10.44-3.65-1.89-.18-3.79-.21-5.69-.16s-4.02-.07-5.84.71c-1.47.63-.2,2.79,1.26,2.16h0Z"/>
    <path class="cls-25" d="M918.86,2334.94c-6.65,1.5-9.65,8.33-10.54,14.45-.1.67.17,1.34.87,1.54.59.16,1.44-.2,1.54-.87.76-5.24,2.99-11.4,8.79-12.71,1.57-.35.9-2.76-.66-2.41h0Z"/>
    <g>
      <path class="cls-36" d="M312.99,2338.46c3.63,1.26,12,4.75,18.3,13.67,7.68,10.88,9.04,25.25,5.52,36.2-3.46,10.78-8.71,9.1-17.26,25.49-6.18,11.83-6.91,19.33-10.7,19.58-2.49.16-4.45-2.91-11.05-16.25-13.61-27.5-14.8-33.63-14.5-40.26.32-7.23,2.29-12.46,2.76-13.67,6.63-16.98,22.79-23.27,26.93-24.75Z"/>
      <path class="cls-25" d="M310.95,2344.1c1.77,19.57,1.34,39.35-1.39,58.81-.77,5.51-1.73,11-2.86,16.45-.32,1.57,2.09,2.24,2.41.66,4-19.39,5.81-39.22,5.32-59.02-.14-5.65-.47-11.28-.98-16.91-.14-1.59-2.64-1.6-2.5,0h0Z"/>
      <path class="cls-25" d="M313.47,2358.28c6.16,2.14,10.37,8.51,10.08,14.99-.07,1.61,2.43,1.61,2.5,0,.33-7.63-4.74-14.91-11.92-17.4-1.52-.53-2.18,1.89-.66,2.41h0Z"/>
      <path class="cls-25" d="M313.63,2380.77c4.04,6.02,6.25,13.07,6.34,20.32.02,1.61,2.52,1.61,2.5,0-.1-7.67-2.41-15.21-6.68-21.58-.89-1.33-3.06-.08-2.16,1.26h0Z"/>
      <path class="cls-25" d="M313.02,2368.92c-4.09-1.71-7.17,2.6-9.21,5.41-2.29,3.18-4.45,6.92-3.97,10.99.08.67.52,1.25,1.25,1.25.62,0,1.33-.57,1.25-1.25-.39-3.39,1.3-6.39,3.18-9.08,1.42-2.04,3.79-6.19,6.84-4.91.62.26,1.38-.28,1.54-.87.2-.72-.25-1.28-.87-1.54h0Z"/>
    </g>
    <path class="cls-25" d="M148.26,2145.11c6.51-5.35,15.43-5.39,23.43-5.38,1.61,0,1.61-2.5,0-2.5-8.77-.01-18.09.28-25.19,6.11-1.24,1.02.53,2.78,1.77,1.77h0Z"/>
    <path class="cls-25" d="M157.87,2141.58c3.62,3.18,7.93,5.49,12.59,6.69,1.56.4,2.22-2.01.66-2.41-4.24-1.09-8.2-3.15-11.49-6.04-.51-.45-1.27-.5-1.77,0-.45.45-.51,1.32,0,1.77h0Z"/>
    <g>
      <path class="cls-45" d="M463.79,2309.53c6.9-8.87-9.45-20.95-3.5-33.89,7.64-16.62,51.01-19.47,60.01-4.74,7.55,12.35-10.07,35.43-4.74,38.96,3.46,2.29,10.51-7.69,23.16-8.42,7.82-.45,15.43,2.6,20.53,6.84,14.82,12.32,14.37,43.96,1.66,54.56-13.81,11.51-29.91-7.33-33.24-.33-1.4,2.93,2.08,5.18,3.69,12.11,2.18,9.39-.29,22.13-8.95,30.53-12.39,12.03-30.04,7.97-32.64,7.37-2.89-.67-18.24-4.2-22.11-15.27-3.64-10.41,5.1-21.06,1.58-23.69-2.44-1.82-6.54,3.38-13.69,4.21-10.9,1.26-22.56-8.39-27.9-18.43-6.9-12.95-6-31.61,3.69-39.48,11.31-9.2,26.2-2.28,32.45-10.33Z"/>
      <circle class="cls-32" cx="494.64" cy="2339.33" r="20.88"/>
      <circle class="cls-21" cx="494.64" cy="2339.33" r="10.44"/>
    </g>
    <path class="cls-25" d="M380.56,2214.06c4.84-5.73,10.62-10.59,17.15-14.3,7.02-3.98,14.7-6.69,22.31-9.3,4.53-1.56,9.1-3.02,13.7-4.38,1.54-.46.88-2.87-.66-2.41-8.24,2.45-16.42,5.15-24.43,8.29-7.31,2.87-14.27,6.36-20.46,11.24-3.43,2.7-6.56,5.76-9.38,9.09-1.03,1.22.73,3,1.77,1.77h0Z"/>
    <path class="cls-25" d="M392.73,2198.73c-3.57-2.25-6.35-6.03-5.53-10.43.84-4.57,4.46-7.78,8.24-10.09,1.37-.84.12-3-1.26-2.16-4.54,2.78-8.75,6.78-9.5,12.3-.72,5.29,2.48,9.82,6.79,12.54,1.37.86,2.62-1.3,1.26-2.16h0Z"/>
    <path class="cls-25" d="M384.33,2207.37c4.87,15.31,21.08,21.34,35.25,24.85,1.56.39,2.23-2.02.66-2.41-13.22-3.28-28.93-8.72-33.5-23.11-.49-1.53-2.9-.87-2.41.66h0Z"/>
    <path class="cls-25" d="M681.05,2220.62c5.46-9.12,10.98-18.32,18.03-26.32,3.53-4.01,7.44-7.72,11.81-10.8,4.58-3.22,9.62-5.76,14.84-7.77,6.07-2.34,12.36-4.03,18.68-5.53,1.56-.37.9-2.78-.66-2.41-11.37,2.7-22.87,6.08-32.71,12.59-9.04,5.97-16.13,14.31-22.22,23.18-3.52,5.13-6.73,10.46-9.93,15.8-.83,1.38,1.33,2.64,2.16,1.26h0Z"/>
    <path class="cls-25" d="M715.83,2178.12c-1.65.17-3.1-1.09-3.65-2.7-.79-2.3.01-4.83.66-7.07.45-1.55-1.97-2.21-2.41-.66-.81,2.82-1.66,6.01-.48,8.85.96,2.32,3.23,4.36,5.89,4.08.67-.07,1.25-.52,1.25-1.25,0-.62-.57-1.32-1.25-1.25h0Z"/>
    <path class="cls-25" d="M699.66,2192.93c3.6,5.05,9.8,8.01,16,7.4.67-.07,1.25-.53,1.25-1.25,0-.62-.57-1.32-1.25-1.25-5.29.52-10.73-1.8-13.84-6.16-.39-.55-1.09-.81-1.71-.45-.54.32-.84,1.16-.45,1.71h0Z"/>
    <path class="cls-36" d="M90.52,2279.06c9.66,16.56,4.15,41.55-6.56,57.25-5.69,8.34-18.99,15.29-45.58,29.18-18.18,9.5-24.67,11.31-27.28,8.5-2.86-3.1.94-9.65,3.8-22.16,4.9-21.43-.9-25.63,2.42-42.11.41-2.04,7.46-34.8,31.77-43.95,2.38-.9,16.48-6.21,29.69,1.48,1.4.81,7.47,4.5,11.74,11.82Z"/>
    <path class="cls-25" d="M75.79,2278.65c-4.93.52-8.13,4.38-10.61,8.33-3.37,5.36-6.49,10.89-9.72,16.34-6.59,11.11-13.11,22.26-19.79,33.32-2.58,4.28-6.29,9.74-11.92,9.49-1.61-.07-1.61,2.43,0,2.5,4.86.21,8.61-3.08,11.39-6.72,1.59-2.09,2.9-4.35,4.24-6.61,1.69-2.84,3.38-5.69,5.07-8.53,6.63-11.16,13.26-22.33,19.89-33.49,2.58-4.34,5.68-11.51,11.46-12.12,1.58-.17,1.6-2.67,0-2.5h0Z"/>
    <path class="cls-25" d="M35.04,2339.18c.22,6,.15,12.01-.21,18-.1,1.61,2.4,1.6,2.5,0,.36-5.99.43-12,.21-18-.06-1.6-2.56-1.61-2.5,0h0Z"/>
    <path class="cls-25" d="M53.36,2308.75c-4.79-.11-9.24-2.33-14.03-2.51-4.47-.17-8.92,1.06-12.72,3.39-1.37.84-.11,3,1.26,2.16,3.69-2.27,7.98-3.34,12.31-3,4.49.35,8.65,2.36,13.19,2.46,1.61.04,1.61-2.46,0-2.5h0Z"/>
    <path class="cls-25" d="M63.74,2291.88c2.22,7.46,3.03,15.22,2.4,22.98-.13,1.6,2.37,1.6,2.5,0,.64-7.96-.21-15.99-2.49-23.64-.46-1.54-2.87-.88-2.41.66h0Z"/>
    <path class="cls-36" d="M858.42,2147.8c-1.05-15.26,13.2-25.67,24.04-33.78,3.71-2.78,7.48-5.49,11.24-8.19,1.09-.79,1.62-2.18.9-3.42-.63-1.08-2.32-1.69-3.42-.9-6.95,5-13.94,9.99-20.54,15.44-5.95,4.92-11.62,10.63-14.73,17.82-1.78,4.12-2.79,8.53-2.48,13.03.09,1.35,1.08,2.5,2.5,2.5,1.28,0,2.59-1.15,2.5-2.5h0Z"/>
    <g>
      <path class="cls-17" d="M736.82,1426.94c.09,3.42-39.1-.57-80.47,13.61-70.38,24.11-105.01,86.36-114.61,80.13-4.3-2.79,1.1-16.32,2.44-19.65,6.85-17.14,20.7-27.88,38.2-38.55,29.65-18.08,62.39-38.04,110.54-40.07,21.84-.92,43.82,1.98,43.89,4.54Z"/>
      <path class="cls-17" d="M522.33,1449.6c38.16-24.72,71.77-33.65,92.57-37.36,49.25-8.77,94.84-.39,109.02-2.85,1.39-.24,5.99-1.2,10.71.71,4.28,1.73,4.11,3.97,6.89,4.62,6.46,1.52,10.56-9.91,21.8-11.38,3.8-.5,9.48,0,11.09,2.85,2.62,4.62-5.04,16.29-15.3,18.86-9.57,2.39-13.14-5.19-30.22-7.12-7.62-.86-6.8.66-24.86,1.07-13.96.31-16.6-.55-27.54-.36-10.79.19-18.22,1.2-32.51,3.2-14.31,2-28.1,3.93-46.29,8.18-28.41,6.64-43.03,10.2-58.52,20.99-9.73,6.77-21.13,13.95-25.1,18.86l8.27-20.28Z"/>
      <path class="cls-17" d="M725.5,1404.23c.33-1.04-39.24-12.25-50.45-15.43-46.84-13.28-62.38-16.71-82.61-14.8-11.89,1.12-21.39,3.72-27.42,5.67-.76,1.98-1.59,5.04,0,6.93,3.58,4.25,16.93-.4,19.64-1.26,34.66-11.04,140.31,20.59,140.85,18.89Z"/>
      <path class="cls-17" d="M723.74,1433.6c-6.98,2.12-17.41,5.84-28.83,12.38-31.55,18.04-45.77,44.43-57.11,61.88-43.02,66.22-68.84,139.57-78.74,161.59l23.29-3.27,18.3-66.01,14.97-29.91,17.19-34.04,14.97-27.33,19.96-28.36,21.07-20.63,21.07-15.99,13.86-10.31Z"/>
      <path class="cls-17" d="M724.46,1439.74c-1.56-.93-19.23,19.85-34.81,43.73-27.48,42.14-39.35,80.01-46.11,102.17-13.87,45.44-14.92,76.3-16.59,79.53-.07.13-.42.76-.14,1.2.88,1.42,7.16-.54,8.14-.84,10.89-3.39,11.36-59.79,24.86-102.59,4.7-14.89,15.19-33.89,36.17-71.9,17.47-31.64,29.91-50.45,28.48-51.3Z"/>
    </g>
    <g>
      <path class="cls-36" d="M847.09,2105.47c1.46-.27,1.92.07,4.87.33,13.04,1.13,23.47-3.89,28.07-6.1,17.88-8.61,21.53-22.62,25.92-20.79,6.12,2.55,2.26,31.09-4.86,53.72-6.31,20.07-10.19,32.41-22.14,39.86-13.39,8.35-34.49,9.04-45.36-3.47-16.91-19.47-.38-60.97,13.5-63.54Z"/>
      <path class="cls-25" d="M851.67,2162.27c.65-4.86-.97-9.91.32-14.69.62-2.29,2.07-4.19,3.55-6s3.13-3.75,4.74-5.58c6.4-7.27,13.33-14.07,20.71-20.35,4.2-3.57,8.55-6.97,13.03-10.18,1.3-.93.05-3.1-1.26-2.16-8.26,5.93-16.09,12.44-23.38,19.52-3.61,3.5-7.08,7.14-10.42,10.9-1.67,1.88-3.3,3.79-4.9,5.73-1.48,1.8-2.98,3.63-3.89,5.8-2.29,5.43-.24,11.35-.99,17-.21,1.59,2.29,1.57,2.5,0h0Z"/>
      <path class="cls-25" d="M877.27,2117.35c5.19,1.53,10.56,2.41,15.97,2.63,1.61.07,1.61-2.43,0-2.5-5.19-.21-10.32-1.07-15.31-2.54-1.55-.46-2.21,1.96-.66,2.41h0Z"/>
      <path class="cls-25" d="M866.17,2125.87c-5.21,2.09-11.91-.57-13.93-5.92-.24-.63-.84-1.06-1.54-.87-.61.17-1.11.9-.87,1.54,2.46,6.52,10.44,10.3,17,7.67.63-.25,1.07-.83.87-1.54-.16-.59-.91-1.13-1.54-.87h0Z"/>
      <path class="cls-25" d="M854.44,2142.19c4.69,3.37,10.77,4.5,16.37,3.16,1.56-.37.9-2.78-.66-2.41-5,1.19-10.29.08-14.45-2.91-1.31-.94-2.56,1.23-1.26,2.16h0Z"/>
      <path class="cls-25" d="M1319.22,2182.14c.61-1.61,2.16-2.9,3.44-3.98,1.87-1.57,3.91-2.93,5.94-4.29,3.56-2.38,7.75-4.65,10.54-7.98.86-1.03,1.53-2.17,2.46-3.14,1.21-1.27,2.58-2.39,3.93-3.52,2.8-2.34,5.65-4.61,8.57-6.81,5.62-4.23,11.44-8.2,17.45-11.88,6.87-4.21,13.96-8.03,21.25-11.46,1.45-.68.19-2.84-1.26-2.16-13.25,6.23-25.87,13.79-37.62,22.53-2.86,2.12-5.66,4.32-8.42,6.57-2.67,2.19-5.54,4.35-7.52,7.22-2.49,3.62-6.8,5.89-10.38,8.28-2.29,1.53-4.59,3.08-6.71,4.85-1.67,1.4-3.3,3-4.09,5.08-.57,1.51,1.84,2.16,2.41.66h0Z"/>
    </g>
    <g>
      <path class="cls-45" d="M887.26,2221.74c-1.77,2.23,13.17,11.47,12.52,22.66-.65,11.15-16.8,24.49-32.79,21.45-12.45-2.37-22.74-14.27-22-24.08.76-9.98,12.92-17.47,11.54-19.11-.62-.74-3.42.35-5.58,1.77-7.18,4.74-5.48,12.12-10.85,16.56-5.04,4.16-13.17,3.15-17.99,1.17-10.63-4.37-13.88-17.05-13.67-25.23.02-.84.59-14.9,10.79-21.83,8.85-6.01,19.39-2.89,20.27-6.36.81-3.22-8.44-5.33-10.3-12.64-1.8-7.09,4.42-14.92,9.15-18.71,10.22-8.17,27.05-8.38,32.72-1.17,4.21,5.34,1.93,14.32,2.87,14.39.95.07,2.23-7.55,5.3-13.41,10.38-19.78,26.19.1,30.93,7.29,5.34,8.1-10.08,15.61-4.08,21.95,3.11,3.29,5.96,1.14,11.49,5.08.93.66,8.58,6.28,9.27,15.54.69,9.36-6.02,18.69-13.83,21.08-11.56,3.54-24.01-8.61-25.77-6.39Z"/>
      <circle class="cls-32" cx="869.54" cy="2206.31" r="16.23"/>
      <circle class="cls-21" cx="869.54" cy="2206.31" r="8.12"/>
    </g>
    <path class="cls-25" d="M374.14,2215.73c-7.11-.73-14.27-4.4-16.55-11.6-2.42-7.63.72-15.39,4.84-21.79.87-1.36-1.29-2.61-2.16-1.26-4.6,7.14-7.93,16.07-4.83,24.48,2.91,7.9,10.71,11.85,18.7,12.67,1.6.16,1.59-2.34,0-2.5h0Z"/>
    <g>
      <path class="cls-45" d="M280.1,2213c6.9-8.87-9.45-20.95-3.5-33.89,7.64-16.62,51.01-19.47,60.01-4.74,7.55,12.35-10.07,35.43-4.74,38.96,3.46,2.29,10.51-7.69,23.16-8.42,7.82-.45,15.43,2.6,20.53,6.84,14.82,12.32,14.37,43.96,1.66,54.56-13.81,11.51-29.91-7.33-33.24-.33-1.4,2.93,2.08,5.18,3.69,12.11,2.18,9.39-.29,22.13-8.95,30.53-12.39,12.03-30.04,7.97-32.64,7.37-2.89-.67-18.24-4.2-22.11-15.27-3.64-10.41,5.1-21.06,1.58-23.69-2.44-1.82-6.54,3.38-13.69,4.21-10.9,1.26-22.56-8.39-27.9-18.43-6.9-12.95-6-31.61,3.69-39.48,11.31-9.2,26.2-2.28,32.45-10.33Z"/>
      <circle class="cls-32" cx="310.96" cy="2242.8" r="20.88"/>
      <circle class="cls-21" cx="310.96" cy="2242.8" r="10.44"/>
    </g>
    <path class="cls-25" d="M1176.05,2337.1c-6.22-1.01-12.1,1.5-16.78,5.5-5.05,4.33-8.23,10.27-11.17,16.12-3.02,6.01-6.1,11.86-10.44,17.05s-9.09,9.41-14.24,13.41c-5.79,4.49-11.93,8.5-18.07,12.49-1.34.87-.09,3.04,1.26,2.16,10.62-6.9,21.41-13.95,30.13-23.25,4.36-4.66,7.99-9.83,10.94-15.48,3.07-5.88,5.68-12.25,10.01-17.36,4.29-5.06,10.78-9.35,17.7-8.23,1.57.26,2.25-2.15.66-2.41h0Z"/>
    <path class="cls-25" d="M1134.84,2380.19c.77,5.71,1.07,11.48.9,17.24-.05,1.61,2.45,1.61,2.5,0,.17-5.76-.13-11.53-.9-17.24-.09-.67-.51-1.24-1.25-1.25-.61,0-1.34.58-1.25,1.25h0Z"/>
    <path class="cls-25" d="M1143.59,2368.36c-7.01-4.35-15.52-5.81-23.58-4.12-1.57.33-.91,2.74.66,2.41,7.42-1.55,15.23-.12,21.66,3.87,1.37.85,2.63-1.31,1.26-2.16h0Z"/>
    <path class="cls-25" d="M1154.44,2351.72c5.91,3.75,9.98,9.94,11.19,16.82.28,1.58,2.69.91,2.41-.66-1.32-7.51-5.91-14.24-12.34-18.32-1.36-.86-2.62,1.3-1.26,2.16h0Z"/>
    <g>
      <path class="cls-45" d="M1173.96,2280.42c7.92-10.19-10.85-24.06-4.02-38.93,8.78-19.08,58.59-22.36,68.92-5.44,8.67,14.19-11.57,40.69-5.44,44.74,3.98,2.63,12.07-8.83,26.6-9.67,8.98-.52,17.72,2.99,23.58,7.86,17.03,14.14,16.51,50.49,1.9,62.66-15.86,13.22-34.35-8.42-38.18-.38-1.6,3.36,2.39,5.95,4.23,13.91,2.5,10.78-.33,25.41-10.28,35.07-14.23,13.81-34.5,9.15-37.48,8.46-3.32-.76-20.95-4.82-25.39-17.53-4.18-11.95,5.86-24.19,1.81-27.21-2.8-2.09-7.51,3.89-15.72,4.84-12.52,1.45-25.91-9.64-32.04-21.16-7.92-14.87-6.89-36.3,4.23-45.34,12.99-10.56,30.09-2.62,37.27-11.86Z"/>
      <circle class="cls-32" cx="1209.39" cy="2314.64" r="23.99"/>
      <circle class="cls-21" cx="1209.39" cy="2314.64" r="11.99"/>
    </g>
    <path class="cls-25" d="M1505.73,2322.28c-6.61-2.41-13.8-.48-19.58,3.14-6.41,4.01-11.03,10.1-15.45,16.1-4.54,6.17-9.18,12.06-15.04,17.03-5.54,4.7-11.72,8.58-18.11,12.01-7.32,3.92-14.94,7.25-22.55,10.54-1.47.64-.2,2.79,1.26,2.16,13.09-5.66,26.35-11.45,37.74-20.18,5.79-4.44,10.79-9.57,15.21-15.38,4.54-5.96,8.66-12.44,14.42-17.35,5.8-4.94,13.9-8.41,21.45-5.66,1.51.55,2.17-1.86.66-2.41h0Z"/>
    <path class="cls-25" d="M1452.04,2362.79c-.35,6.5-1.2,12.96-2.57,19.32-.34,1.57,2.07,2.24,2.41.66,1.41-6.58,2.3-13.27,2.66-19.99.09-1.61-2.41-1.6-2.5,0h0Z"/>
    <path class="cls-25" d="M1463.93,2351.15c-6.68-6.26-15.65-9.73-24.81-9.45-1.61.05-1.61,2.55,0,2.5,8.51-.26,16.83,2.9,23.04,8.72,1.17,1.1,2.94-.66,1.77-1.77h0Z"/>
    <path class="cls-25" d="M1479.34,2334.13c5.78,5.53,8.95,13.36,8.84,21.34-.02,1.61,2.48,1.61,2.5,0,.11-8.61-3.33-17.14-9.58-23.1-1.16-1.11-2.93.65-1.77,1.77h0Z"/>
    <path class="cls-25" d="M1474.67,2343.5c2.83.74,3.3,5.1,3.52,7.48.3,3.33.5,6.71.28,10.05-.37,5.69-2.41,11.73-7.47,14.9-1.36.85-.11,3.02,1.26,2.16,5.99-3.76,8.38-10.77,8.73-17.53.2-3.85.02-7.86-.55-11.67-.47-3.07-1.72-6.92-5.1-7.81-1.56-.41-2.22,2-.66,2.41h0Z"/>
    <path class="cls-25" d="M1354.06,2148.57c-5.39-3.03-7.53-9.52-5.2-15.22.26-.63-.28-1.37-.87-1.54-.71-.2-1.28.25-1.54.87-2.74,6.7.08,14.51,6.35,18.04,1.4.79,2.67-1.37,1.26-2.16h0Z"/>
    <path class="cls-25" d="M1346.17,2156.14c-.67,2.3,1.55,4.16,3.12,5.47,1.68,1.41,3.54,2.61,5.54,3.53,4.06,1.86,8.56,2.66,13.01,2.16,1.58-.18,1.6-2.68,0-2.5-3.7.42-7.4-.07-10.86-1.44-1.69-.67-3.3-1.57-4.77-2.62-.74-.53-1.44-1.12-2.1-1.74-.52-.49-1.74-1.39-1.51-2.19.45-1.55-1.96-2.21-2.41-.66h0Z"/>
    <path class="cls-25" d="M1365.56,2140.48s.04.09-.15-.15c-.14-.17-.25-.33-.36-.53-.29-.54-.47-1.15-.65-1.73-.38-1.2-.67-2.44-.84-3.69-.35-2.62-.2-5.29.4-7.85.37-1.56-2.04-2.23-2.41-.66-.79,3.36-.87,6.82-.23,10.21.45,2.37,1.47,7.58,4.9,6.81,1.57-.35.91-2.76-.66-2.41h0Z"/>
    <path class="cls-25" d="M1360.32,2145.18c-1.2,1.7.57,3.51,1.86,4.48,1.61,1.21,3.35,2.27,5.14,3.18,3.69,1.89,7.67,3.22,11.77,3.89,1.57.26,2.25-2.15.66-2.41-3.36-.55-6.66-1.52-9.76-2.95-1.51-.7-2.99-1.5-4.39-2.39-.69-.44-1.38-.89-2.02-1.38-.3-.23-.59-.47-.83-.76-.08-.1-.21-.22-.25-.34-.06-.16-.13.1-.02-.06.93-1.32-1.23-2.57-2.16-1.26h0Z"/>
    <path class="cls-25" d="M1375.29,2135.14c-1.23,2.96,3.31,5.04,5.37,5.9,2.68,1.13,5.59,1.63,8.49,1.45,1.6-.1,1.61-2.6,0-2.5-2.31.15-4.59-.16-6.77-.94-1.06-.38-2.06-.88-3.02-1.46-.51-.31-1.98-1.02-1.66-1.78.26-.62-.28-1.37-.87-1.54-.72-.2-1.28.25-1.54.87h0Z"/>
    <path class="cls-25" d="M402.92,2195.86c2.11,4.28,5.09,8.12,8.9,11.02,4.08,3.1,8.92,4.49,13.93,5.19,1.57.22,2.25-2.19.66-2.41-4.7-.66-9.22-1.88-13.08-4.75-3.57-2.66-6.29-6.33-8.25-10.3-.71-1.44-2.87-.18-2.16,1.26h0Z"/>
    <path class="cls-36" d="M1524.82,2296.64c-8.28,13.01-24.94,20.76-39.23,17.09-21.13-5.43-28.31-33.57-29.1-36.85-4.81-19.95,3.39-33.56-6.73-51.65-2.49-4.45-5.51-8.13-4.23-10.14,2.01-3.17,12.37,1.55,30.96,7.85,29.12,9.85,29.41,6.95,35.24,11.54,14.94,11.76,26.37,41.28,13.09,62.16Z"/>
    <path class="cls-25" d="M1526.39,2294.88c1.11-6.87-1.82-13.35-6.33-18.42-5.01-5.63-11.82-9.1-18.52-12.3-6.97-3.33-13.78-6.72-19.83-11.57-5.7-4.56-10.74-9.89-15.35-15.54-5.27-6.46-9.98-13.34-14.67-20.22-.9-1.32-3.07-.07-2.16,1.26,8.04,11.81,16.26,23.79,26.99,33.37,5.46,4.88,11.49,8.87,18.05,12.11,6.74,3.33,14,6.17,19.88,10.97,5.75,4.69,10.8,11.9,9.55,19.68-.25,1.57,2.15,2.25,2.41.66h0Z"/>
    <path class="cls-25" d="M1476.42,2249.58c-6.45.89-12.96,1.23-19.46,1.1-1.61-.03-1.61,2.47,0,2.5,6.74.14,13.45-.27,20.13-1.19.67-.09,1.03-.95.87-1.54-.19-.72-.87-.96-1.54-.87h0Z"/>
    <path class="cls-25" d="M1490.23,2258.98c4.89-7.76,6.53-17.23,4.53-26.17-.35-1.57-2.76-.91-2.41.66,1.86,8.31.25,17.06-4.28,24.25-.86,1.36,1.3,2.62,2.16,1.26h0Z"/>
    <path class="cls-25" d="M1499.72,2268.24c-.21,2.91-4.59,4.16-6.85,4.81-3.15.91-6.39,1.74-9.65,2.14-5.73.69-11.99-.18-16.1-4.59-1.1-1.18-2.86.59-1.77,1.77,4.89,5.24,12.38,6.14,19.14,5.15,3.7-.54,7.52-1.41,11.03-2.69,3.02-1.1,6.44-3.02,6.7-6.59.12-1.61-2.39-1.6-2.5,0h0Z"/>
    <path class="cls-25" d="M1160.01,2101.83c-.41-8.21-.85-16.6,1.11-24.67,1.9-7.8,5.85-14.97,9.34-22.14,2.14-4.42,4.29-8.83,6.43-13.25.7-1.44-1.46-2.71-2.16-1.26-3.79,7.8-7.69,15.56-11.34,23.43-1.69,3.63-3.26,7.35-4.33,11.22s-1.63,8.15-1.81,12.29c-.21,4.79.02,9.59.27,14.38.08,1.6,2.58,1.61,2.5,0h0Z"/>
    <path class="cls-25" d="M1164.39,2061.86c-4.14,1.43-9.06-.17-10.99-4.25-.29-.61-1.16-.77-1.71-.45-.63.37-.74,1.1-.45,1.71,2.37,5.03,8.7,7.17,13.81,5.4.64-.22,1.06-.86.87-1.54-.17-.62-.9-1.09-1.54-.87h0Z"/>
    <path class="cls-25" d="M1158.97,2080.13c5.41.52,11.1.92,16.09-1.67,4.41-2.29,7.51-6.42,10.14-10.51.87-1.36-1.29-2.61-2.16-1.26-2.41,3.74-5.21,7.52-9.25,9.61-4.54,2.36-9.92,1.8-14.83,1.33-1.6-.15-1.59,2.35,0,2.5h0Z"/>
    <path class="cls-25" d="M1158.33,2094.36c-3.56.76-7.4-.06-10.32-2.26-2.74-2.06-4.45-5.21-4.94-8.58-.1-.67-.94-1.03-1.54-.87-.72.19-.97.87-.87,1.54.58,4.02,2.83,7.66,6.09,10.07,3.48,2.58,8.05,3.4,12.25,2.51,1.57-.34.91-2.75-.66-2.41h0Z"/>
    <g>
      <path class="cls-45" d="M1154.14,2136.61c-.98,1.24,7.34,6.39,6.97,12.62-.36,6.21-9.35,13.64-18.26,11.95-6.93-1.32-12.67-7.95-12.25-13.41.42-5.56,7.19-9.73,6.43-10.64-.34-.41-1.91.2-3.11.99-4,2.64-3.05,6.75-6.04,9.22-2.8,2.32-7.33,1.76-10.02.65-5.92-2.43-7.73-9.49-7.61-14.05.01-.47.33-8.3,6.01-12.16,4.93-3.35,10.8-1.61,11.29-3.54.45-1.8-4.7-2.97-5.73-7.04-1-3.95,2.46-8.31,5.1-10.42,5.69-4.55,15.06-4.66,18.22-.65,2.34,2.98,1.07,7.97,1.6,8.01.53.04,1.24-4.2,2.95-7.47,5.78-11.01,14.58.06,17.22,4.06,2.97,4.51-5.61,8.69-2.27,12.22,1.73,1.83,3.32.64,6.4,2.83.52.37,4.78,3.5,5.16,8.65.39,5.21-3.35,10.41-7.7,11.74-6.44,1.97-13.37-4.79-14.35-3.56Z"/>
      <circle class="cls-32" cx="1144.27" cy="2128.02" r="9.04"/>
      <circle class="cls-21" cx="1144.27" cy="2128.02" r="4.52"/>
    </g>
    <path class="cls-25" d="M993.89,2197.77c1.17-22.15-3.9-43.8-10.76-64.71-1.9-5.78-3.91-11.52-5.93-17.26-.53-1.51-2.95-.86-2.41.66,7.14,20.27,14.24,40.84,16.22,62.38.58,6.29.71,12.61.38,18.92-.08,1.61,2.42,1.6,2.5,0h0Z"/>
    <path class="cls-25" d="M982.81,2140.57c-2.33,2.07-5.76,2.58-8.73,3.02-3.54.52-7.15.6-10.71.25-1.6-.16-1.59,2.34,0,2.5,3.93.39,7.87.21,11.77-.4,3.36-.53,6.82-1.27,9.44-3.6,1.2-1.07-.57-2.84-1.77-1.77h0Z"/>
    <path class="cls-25" d="M990.22,2162.62c6.8-6.43,10.9-14.87,14.74-23.26.66-1.45-1.49-2.72-2.16-1.26-3.75,8.19-7.71,16.47-14.35,22.75-1.17,1.11.6,2.87,1.77,1.77h0Z"/>
    <g>
      <path class="cls-45" d="M1058.2,2243.5c-2.29,2.89,17.08,14.87,16.23,29.39-.85,14.46-21.79,31.77-42.53,27.82-16.15-3.07-29.5-18.51-28.54-31.23.98-12.95,16.75-22.66,14.97-24.78-.8-.95-4.44.46-7.23,2.3-9.31,6.15-7.11,15.72-14.07,21.47-6.53,5.4-17.08,4.09-23.33,1.52-13.78-5.67-18-22.11-17.73-32.73.03-1.08.76-19.32,14-28.31,11.48-7.8,25.15-3.75,26.28-8.25,1.05-4.18-10.94-6.92-13.35-16.39-2.34-9.2,5.73-19.35,11.87-24.27,13.25-10.6,35.08-10.86,42.43-1.52,5.46,6.93,2.5,18.57,3.72,18.66,1.23.09,2.89-9.79,6.88-17.4,13.46-25.65,35.08-3.39,44.58,2.48,25.43,15.73-17.55,27.22-9.76,35.44,4.03,4.26,7.73,1.48,14.9,6.58,1.2.85,11.13,8.15,12.02,20.16.9,12.14-7.8,24.24-17.93,27.34-15,4.59-31.14-11.16-33.42-8.28Z"/>
      <circle class="cls-32" cx="1035.22" cy="2223.49" r="21.05"/>
      <circle class="cls-21" cx="1035.22" cy="2223.49" r="10.53"/>
    </g>
    <g>
      <path class="cls-25" d="M488.98,2120.57c-19.95,4.47-37.81,14.34-54.47,25.91-4.49,3.12-8.9,6.33-13.31,9.55-1.29.94-.04,3.11,1.26,2.16,15.76-11.5,31.83-22.97,50.17-30.05,5.54-2.14,11.23-3.86,17.02-5.16,1.57-.35.91-2.76-.66-2.41h0Z"/>
      <path class="cls-25" d="M441.2,2145c2.73,1.53,4.45,4.36,5.99,6.99,1.72,2.93,3.12,6.02,4.1,9.28.47,1.54,2.88.88,2.41-.66-1.08-3.55-2.62-6.96-4.52-10.15-1.73-2.91-3.7-5.92-6.73-7.61-1.41-.79-2.67,1.37-1.26,2.16h0Z"/>
      <path class="cls-25" d="M458.68,2132.73c-8.18-4.33-17.26-5.87-26.32-7.15-1.57-.22-2.25,2.19-.66,2.41,8.83,1.25,17.75,2.68,25.72,6.9,1.42.75,2.69-1.41,1.26-2.16h0Z"/>
    </g>
    <path class="cls-25" d="M1189.41,2160.45c4.29.28,7.3,5.11,9.52,8.26,2.65,3.76,5.08,7.66,7.97,11.25,5.59,6.93,12.39,12.77,19.41,18.19,4.08,3.15,8.27,6.15,12.46,9.16,1.31.94,2.56-1.23,1.26-2.16-7.59-5.44-15.21-10.89-22.11-17.21-3.31-3.03-6.45-6.25-9.26-9.75-3.04-3.77-5.52-7.94-8.38-11.85-2.71-3.71-5.9-8.06-10.88-8.38-1.61-.1-1.6,2.4,0,2.5h0Z"/>
    <path class="cls-25" d="M1225.41,2196.01c4.98.1,10.27.18,14.8,2.51,1.43.73,2.7-1.42,1.26-2.16-4.95-2.54-10.61-2.73-16.07-2.85-1.61-.03-1.61,2.47,0,2.5h0Z"/>
    <path class="cls-25" d="M1214.49,2185.56c-2.47-.82-4.85.79-6.6,2.38-1.74,1.58-3.35,3.8-2.67,6.28.17.63.9,1.08,1.54.87s1.06-.86.87-1.54c-.03-.12-.06-.23-.08-.35.03.18,0,.02,0-.08s0-.19,0-.29c0-.34-.06.21.01-.13.05-.21.1-.42.18-.62.04-.12-.06.11.04-.09.06-.11.11-.22.17-.32.1-.18.22-.36.34-.53.23-.33-.14.16.12-.16.07-.08.14-.17.21-.25.32-.37.67-.71,1.03-1.04.18-.16.36-.32.55-.47.08-.07.16-.13.24-.2.07-.05.07-.05,0,0l.1-.08c.39-.28.78-.54,1.21-.75.03-.01.3-.14.2-.1s.18-.07.21-.08c.24-.08.48-.15.73-.19-.18.03.02,0,.1,0,.1,0,.21,0,.31,0,.34,0-.17-.06.16.02.12.03.25.06.37.11.62.21,1.39-.24,1.54-.87.16-.69-.21-1.32-.87-1.54h0Z"/>
    <path class="cls-25" d="M1206.03,2176.43c1.21-.35,2.73-.08,3.97,0s2.46.17,3.67.37c2.44.39,4.79,1.11,6.77,2.63.54.41,1.4.08,1.71-.45.38-.64.09-1.3-.45-1.71-2.2-1.68-4.91-2.51-7.61-2.92-1.4-.21-2.8-.34-4.22-.42s-3.09-.31-4.51.1c-1.54.45-.89,2.86.66,2.41h0Z"/>
    <path class="cls-25" d="M1196.27,2161.55c-2.29.27-4.39,1.3-5.98,2.98-1.61,1.71-2.55,3.92-3.1,6.19-.15.63.2,1.38.87,1.54s1.37-.19,1.54-.87c.45-1.86,1.11-3.61,2.37-4.99.65-.71,1.12-1.08,1.93-1.54.21-.12.42-.22.64-.32.1-.05-.06.02.12-.05.12-.05.25-.09.37-.13.21-.07.42-.13.64-.18.13-.03.26-.06.39-.08.04,0,.4-.06.2-.03.65-.08,1.28-.52,1.25-1.25-.03-.61-.55-1.33-1.25-1.25h0Z"/>
    <path class="cls-36" d="M1116.39,2286.91c4.62,9.67-1.61,25.75-13.06,37.51-13.28,13.64-35.55,23.5-49.19,22.82-3.2-.16-8.26-1.02-14.74,1.72-7.62,3.22-11.8,9.15-13.3,8.69-1.59-.49,3-7.18,5.65-14.57,4.75-13.21-1.47-15.41,1.32-26.26,3.87-15.04,20.14-27.67,24.09-30.73,5.52-4.28,21.68-16.83,35.21-15.88,6.41.45,10.7,3.82,15.67,7.73,2.9,2.28,6.48,5.1,8.33,8.98Z"/>
    <path class="cls-25" d="M1041.43,2344.46c5.46-9.12,10.98-18.32,18.03-26.32,3.53-4.01,7.44-7.72,11.81-10.8,4.58-3.22,9.62-5.76,14.84-7.77,6.07-2.34,12.36-4.03,18.68-5.53,1.56-.37.9-2.78-.66-2.41-11.37,2.7-22.87,6.08-32.71,12.59-9.04,5.97-16.13,14.31-22.22,23.18-3.52,5.13-6.73,10.46-9.93,15.8-.83,1.38,1.33,2.64,2.16,1.26h0Z"/>
    <path class="cls-25" d="M1076.21,2301.96c-1.65.17-3.1-1.09-3.65-2.7-.79-2.3.01-4.83.66-7.07.45-1.55-1.97-2.21-2.41-.66-.81,2.82-1.66,6.01-.48,8.85.96,2.32,3.23,4.36,5.89,4.08.67-.07,1.25-.52,1.25-1.25,0-.62-.57-1.32-1.25-1.25h0Z"/>
    <path class="cls-25" d="M1060.04,2316.77c3.6,5.05,9.8,8.01,16,7.4.67-.07,1.25-.53,1.25-1.25,0-.62-.57-1.32-1.25-1.25-5.29.52-10.73-1.8-13.84-6.16-.39-.55-1.09-.81-1.71-.45-.54.32-.84,1.16-.45,1.71h0Z"/>
    <path class="cls-50" d="M1435.99,2197.44c16.01-43.51,40.19-96.29,76.57-146.12,11.64-15.95,23.24-29.81,34.41-41.85"/>
    <g>
      <path class="cls-24" d="M1546.77,2007.64c-1.03-4.48-.33-9.5,1.17-13.68,1.5-4.18,3.74-7.68,5.97-11.1,1.18-1.82,2.39-3.65,3.85-4.98,1.46-1.33,3.13-2.11,4.79-2.73,4-1.5,8.14-2.22,12.27-2.13-3.86,9.55-8.36,18.54-13.41,26.81-3.55,5.8-8.11,11.65-13.41,10.97"/>
      <path class="cls-24" d="M1549.18,2006.97c-1.69-7.81,1.97-15.23,6.08-21.61,2-3.11,3.82-6.1,7.37-7.58,3.85-1.6,8.02-2.33,12.18-2.27-.8-1.05-1.61-2.11-2.41-3.16-3.11,7.68-6.73,15.16-10.87,22.34-1.89,3.29-3.81,6.68-6.31,9.56-1.9,2.18-4.22,4.35-7.24,4.04-1.34-.14-2.5,1.25-2.5,2.5,0,1.47,1.15,2.36,2.5,2.5,3.89.4,7.39-1.92,9.96-4.61,2.9-3.04,5.11-6.69,7.22-10.29,4.64-7.92,8.61-16.21,12.05-24.71.63-1.56-.95-3.14-2.41-3.16-4.81-.07-9.64.83-14.08,2.68-2.11.88-4.04,2.06-5.59,3.77-1.52,1.68-2.74,3.62-3.97,5.52-4.99,7.72-8.84,16.46-6.81,25.82.68,3.14,5.5,1.81,4.82-1.33h0Z"/>
    </g>
    <g>
      <path class="cls-24" d="M1522.29,2037.77c.84-9.51,1.68-19.07,1.51-28.66-.18-9.59-1.41-19.29-4.52-27.74-6.3,8.42-8.51,22.76-5.29,34.32,1.63,5.83,4.46,10.89,5.69,16.93"/>
      <path class="cls-24" d="M1524.79,2037.77c1.67-18.87,3.5-38.87-3.1-57.06-.77-2.13-3.27-2.36-4.57-.6-4.09,5.54-6.06,12.43-6.81,19.2-.81,7.29.17,14.55,2.71,21.41,1.54,4.16,3.33,8.21,4.25,12.57.66,3.15,5.48,1.82,4.82-1.33-1.51-7.18-5.35-13.62-6.57-20.89-1.07-6.36-.53-13.1,1.37-19.26,1.02-3.29,2.49-6.39,4.54-9.17-1.52-.2-3.05-.4-4.57-.6,6.45,17.78,4.55,37.3,2.92,55.73-.12,1.35,1.23,2.5,2.5,2.5,1.45,0,2.38-1.15,2.5-2.5h0Z"/>
    </g>
    <g>
      <path class="cls-24" d="M1532.14,2027.59c5.85-.15,11.71-.3,17.56.21,3.31.29,6.76.85,9.54,3.5,3.82,3.64,5.58,10.38,7.11,16.67-6.1,3.28-12.97,3.39-19.11.3s-11.52-9.35-14.96-17.42"/>
      <path class="cls-24" d="M1532.14,2030.09c4.23-.11,8.46-.21,12.69-.08,3.36.11,7.24.04,10.35,1.5,2.82,1.33,4.49,4.02,5.68,6.8,1.41,3.29,2.24,6.84,3.09,10.31.38-.94.77-1.88,1.15-2.82-6.22,3.27-13.31,2.71-19.11-1.17-5.35-3.57-9.03-9.24-11.54-15.05-.53-1.24-2.36-1.52-3.42-.9-1.28.75-1.43,2.18-.9,3.42,2.94,6.83,7.55,13.22,13.92,17.22,7.23,4.54,16.06,4.74,23.57.79,1-.52,1.4-1.78,1.15-2.82-1.72-7.05-3.69-16.21-10.72-19.92-3.59-1.9-7.78-2.12-11.76-2.3-4.71-.22-9.43-.1-14.15.02-3.21.08-3.22,5.08,0,5h0Z"/>
    </g>
    <g>
      <path class="cls-24" d="M1513.35,2056.82c6.17-.69,12.51.14,18.21,3.65,5.7,3.51,10.71,9.9,13.13,18.23.14.49.27,1.09.05,1.52-.15.3-.41.41-.66.5-3.1,1.12-6.29,2.25-9.45,1.54-1.6-.36-3.13-1.19-4.6-2.15-7.19-4.68-13.32-12.77-17.24-22.76"/>
      <path class="cls-24" d="M1513.35,2059.32c6.79-.73,13.76.48,19.18,4.88,2.29,1.86,4.26,4.09,5.85,6.57.92,1.44,1.74,2.95,2.43,4.52.3.68.57,1.38.82,2.08.14.4.27.8.4,1.2.09.27.17.54.25.81.11.56.15.51.12-.17l.9-.9c-.36.24-1.79.69-2.55.92-.88.27-1.79.54-2.7.67-1.63.23-3.2,0-4.68-.74-2.77-1.39-5.22-3.41-7.39-5.59-4.74-4.75-8.29-10.66-10.76-16.88-.5-1.25-1.67-2.13-3.08-1.75-1.19.33-2.25,1.81-1.75,3.08,2.39,6.01,5.53,11.65,9.74,16.58,1.9,2.23,4.03,4.24,6.36,6.03,2.48,1.9,5.25,3.72,8.39,4.19,1.81.27,3.61.11,5.4-.29s3.75-.9,5.32-1.76c3.51-1.92.85-7.03-.29-9.64-2.36-5.41-6.05-10.2-10.81-13.7-6.06-4.45-13.75-5.9-21.13-5.11-1.34.14-2.5,1.05-2.5,2.5,0,1.24,1.15,2.64,2.5,2.5h0Z"/>
    </g>
    <g>
      <path class="cls-24" d="M1501.37,2063.58c.53-8.26,1-17-1.48-24.46-1.4-4.2-3.64-7.66-5.95-10.9-2.33-3.27-4.77-6.39-7.31-9.33-3,9.98-2.09,21.55-.17,32.09.37,2.02.78,4.05,1.42,5.92,1.81,5.31,5.56,9.09,9.6,9.69"/>
      <path class="cls-24" d="M1503.87,2063.58c.53-8.31,1.1-17.09-1.57-25.12-1.3-3.91-3.37-7.46-5.72-10.82-2.55-3.63-5.28-7.14-8.17-10.5-1.27-1.48-3.68-.59-4.18,1.1-2.2,7.47-2.38,15.4-1.63,23.11.38,3.92.96,7.84,1.73,11.71.71,3.57,1.8,7.14,3.98,10.11,2.08,2.82,4.96,5.26,8.51,5.85,1.33.22,2.69-.35,3.08-1.75.33-1.2-.41-2.85-1.75-3.08-7.88-1.31-9.07-11.94-10-18.31-1.28-8.69-1.6-17.81.9-26.32-1.39.37-2.79.74-4.18,1.1,2.7,3.15,5.26,6.42,7.63,9.83,2.09,3.01,4,6.18,5.12,9.7,2.37,7.51,1.75,15.64,1.26,23.38-.2,3.21,4.8,3.2,5,0h0Z"/>
    </g>
    <g>
      <path class="cls-36" d="M651.62,2205.74c4.2-14.21,9.67-32.68,5.39-51.42-4.31-18.87-13.15-14.58-26.37-42.04-8.12-16.86-10.02-29.35-14.68-27.97-4.12,1.22-5,11.71-12.36,28.6-9.73,22.31-17.2,24.64-23.06,38.37-11.3,26.49-.45,57.63,18.11,71.98,9,6.95,28.38,16.59,41.13,6.7,5.94-4.61,8.12-11.66,11.84-24.22Z"/>
      <path class="cls-25" d="M634.54,2217.85c-9.71-28.36-16.19-57.8-19.76-87.56-1.06-8.79-1.86-17.62-2.43-26.45-.1-1.6-2.6-1.61-2.5,0,1.99,30.66,6.79,61.18,14.93,90.82,2.2,8.03,4.66,15.99,7.35,23.86.52,1.51,2.93.86,2.41-.66h0Z"/>
      <path class="cls-25" d="M617.71,2148.46c3.54-2.96,5.95-7.12,7.27-11.5,1.55-5.13,1.33-10.5.97-15.78-.11-1.6-2.61-1.61-2.5,0,.34,4.94.6,9.94-.78,14.75-1.18,4.14-3.41,7.99-6.74,10.76-1.24,1.03.54,2.79,1.77,1.77h0Z"/>
      <path class="cls-25" d="M617,2162.15c-2.98,5.27-10.41,3.62-15.03,2.04-5.47-1.87-10.71-4.36-16.65-3.74-1.58.17-1.6,2.67,0,2.5,6.49-.68,12.04,2.6,18.08,4.31,5.38,1.52,12.6,1.73,15.76-3.85.79-1.4-1.37-2.66-2.16-1.26h0Z"/>
      <path class="cls-25" d="M623.86,2180.15c6.31-1.86,10.82-7.95,14.46-13.08,3.95-5.57,7.17-11.68,9.22-18.21.48-1.54-1.93-2.2-2.41-.66-1.9,6.04-4.86,11.68-8.46,16.87-1.8,2.6-3.74,5.12-5.92,7.41s-4.56,4.36-7.56,5.25c-1.54.45-.88,2.87.66,2.41h0Z"/>
    </g>
    <path class="cls-8" d="M230.62,2137.5c2.72,1.72,19.92,13.02,20.72,30.29.64,14.02-10.17,17.96-12.08,40.26-.61,7.11.12,11.05-2.07,12.19-4.92,2.55-17.4-12.74-24.51-25.49-.99-1.77-5.05-9.18-8.63-21.05-4.81-15.94-10.27-34.07-3.11-41,7.04-6.81,22.88.5,29.69,4.8Z"/>
    <path class="cls-8" d="M1147.05,2174.89c2.72,1.72,19.92,13.02,20.72,30.29.64,14.02-10.17,17.96-12.08,40.26-.61,7.11.12,11.05-2.07,12.19-4.92,2.55-17.4-12.74-24.51-25.49-.99-1.77-5.05-9.18-8.63-21.05-4.81-15.94-10.27-34.07-3.11-41,7.04-6.81,22.88.5,29.69,4.8Z"/>
    <path class="cls-8" d="M1597.52,2319.08c2.72,1.72,19.92,13.02,20.72,30.29.64,14.02-10.17,17.96-12.08,40.26-.61,7.11.12,11.05-2.07,12.19-4.92,2.55-17.4-12.74-24.51-25.49-.99-1.77-5.05-9.18-8.63-21.05-4.81-15.94-10.27-34.07-3.11-41,7.04-6.81,22.88.5,29.69,4.8Z"/>
    <g>
      <path class="cls-45" d="M1503.37,2290.2c6.9-8.87-9.45-20.95-3.5-33.89,7.64-16.62,51.01-19.47,60.01-4.74,7.55,12.35-10.07,35.43-4.74,38.96,3.46,2.29,10.51-7.69,23.16-8.42,7.82-.45,15.43,2.6,20.53,6.84,14.82,12.32,14.37,43.96,1.66,54.56-13.81,11.51-29.91-7.33-33.24-.33-1.4,2.93,2.08,5.18,3.69,12.11,2.18,9.39-.29,22.13-8.95,30.53-12.39,12.03-30.04,7.97-32.64,7.37-2.89-.67-18.24-4.2-22.11-15.27-3.64-10.41,5.1-21.06,1.58-23.69-2.44-1.82-6.54,3.38-13.69,4.21-10.9,1.26-22.56-8.39-27.9-18.43-6.9-12.95-6-31.61,3.69-39.48,11.31-9.2,26.2-2.28,32.45-10.33Z"/>
      <circle class="cls-32" cx="1534.22" cy="2320" r="20.88"/>
      <circle class="cls-21" cx="1534.22" cy="2320" r="10.44"/>
    </g>
    <path class="cls-8" d="M1271.18,2094.59c2.72,1.72,19.92,13.02,20.72,30.29.64,14.02-10.17,17.96-12.08,40.26-.61,7.11.12,11.05-2.07,12.19-4.92,2.55-17.4-12.74-24.51-25.49-.99-1.77-5.05-9.18-8.63-21.05-4.81-15.94-10.27-34.07-3.11-41,7.04-6.81,22.88.5,29.69,4.8Z"/>
    <g>
      <path class="cls-45" d="M1323.05,2192.19c-1.3,1.64,9.7,8.45,9.22,16.69-.48,8.21-12.37,18.04-24.15,15.8-9.17-1.74-16.75-10.51-16.21-17.74.56-7.35,9.51-12.87,8.5-14.07-.45-.54-2.52.26-4.11,1.31-5.29,3.49-4.04,8.93-7.99,12.2-3.71,3.07-9.7,2.32-13.25.86-7.83-3.22-10.23-12.56-10.07-18.59.02-.62.43-10.97,7.95-16.08,6.52-4.43,14.28-2.13,14.93-4.69.6-2.37-6.22-3.93-7.58-9.31-1.33-5.22,3.26-10.99,6.74-13.78,7.52-6.02,19.92-6.17,24.1-.86,3.1,3.94,1.42,10.54,2.11,10.6.7.05,1.64-5.56,3.91-9.88,7.65-14.57,19.29.08,22.78,5.37,3.93,5.96-7.43,11.49-3,16.17,2.29,2.42,4.39.84,8.46,3.74.68.48,6.32,4.63,6.83,11.45.51,6.89-4.43,13.77-10.18,15.53-8.52,2.61-17.69-6.34-18.98-4.7Z"/>
      <circle class="cls-32" cx="1309.99" cy="2180.83" r="11.96"/>
      <circle class="cls-21" cx="1309.99" cy="2180.83" r="5.98"/>
    </g>
    <path class="cls-8" d="M1337.85,2327.45c2.72,1.72,19.92,13.02,20.72,30.29.64,14.02-10.17,17.96-12.08,40.26-.61,7.11.12,11.05-2.07,12.19-4.92,2.55-17.4-12.74-24.51-25.49-.99-1.77-5.05-9.18-8.63-21.05-4.81-15.94-10.27-34.07-3.11-41,7.04-6.81,22.88.5,29.69,4.8Z"/>
    <g>
      <path class="cls-36" d="M1306.08,2274.14c9.87,5.54,22.69,12.73,31.32,27.73,8.69,15.1,2.33,19.36,11.88,46.79,5.86,16.84,12.03,26.09,9.18,28.88-2.53,2.47-8.81-3.36-21.6-8.09-16.88-6.24-21.53-1.83-31.86-5.78-19.94-7.61-32.61-35.46-32.4-58.92.1-11.37,3.33-32.55,14.58-36.39,5.24-1.79,10.18.88,18.9,5.78Z"/>
      <path class="cls-25" d="M1289.85,2281.37c11.36,24.67,25.02,48.27,40.78,70.4,4.44,6.23,9.05,12.34,13.8,18.33,1,1.26,2.76-.52,1.77-1.77-16.81-21.19-31.63-43.97-44.2-67.92-3.51-6.68-6.83-13.45-9.99-20.3-.67-1.46-2.83-.19-2.16,1.26h0Z"/>
      <path class="cls-25" d="M1323.6,2338.76c7.41-2.14,13.12,4.8,17.14,9.91.42.53,1.33.43,1.77,0,.53-.52.42-1.24,0-1.77-2.47-3.13-5-6.29-8.38-8.49-3.28-2.12-7.37-3.17-11.19-2.07-1.54.44-.89,2.86.66,2.41h0Z"/>
      <path class="cls-25" d="M1315.61,2325.91c-5.94-1.2-8.75,6.4-9.99,10.83-1.53,5.45-2.09,11.33-5.42,16.08-.93,1.32,1.24,2.57,2.16,1.26,2.92-4.16,3.84-9.19,4.99-14.03.57-2.4,1.2-4.83,2.25-7.07.92-1.95,2.72-5.2,5.35-4.67,1.57.32,2.24-2.09.66-2.41h0Z"/>
      <path class="cls-25" d="M1309.5,2313.69c3.11-3.02,8.15-2.9,12.18-2.61,4.73.34,9.38,1.61,13.58,3.83,1.42.75,2.69-1.4,1.26-2.16-4.73-2.51-9.95-3.88-15.29-4.2-4.64-.28-9.97-.06-13.5,3.37-1.16,1.12.61,2.89,1.77,1.77h0Z"/>
    </g>
    <g>
      <path class="cls-45" d="M1342.73,2251.88c6.9-8.87-9.45-20.95-3.5-33.89,7.64-16.62,51.01-19.47,60.01-4.74,7.55,12.35-10.07,35.43-4.74,38.96,3.46,2.29,10.51-7.69,23.16-8.42,7.82-.45,15.43,2.6,20.53,6.84,14.82,12.32,14.37,43.96,1.66,54.56-13.81,11.51-29.91-7.33-33.24-.33-1.4,2.93,2.08,5.18,3.69,12.11,2.18,9.39-.29,22.13-8.95,30.53-12.39,12.03-30.04,7.97-32.64,7.37-2.89-.67-18.24-4.2-22.11-15.27-3.64-10.41,5.1-21.06,1.58-23.69-2.44-1.82-6.54,3.38-13.69,4.21-10.9,1.26-22.56-8.39-27.9-18.43-6.9-12.95-6-31.61,3.69-39.48,11.31-9.2,26.2-2.28,32.45-10.33Z"/>
      <circle class="cls-32" cx="1373.59" cy="2281.68" r="20.88"/>
      <circle class="cls-21" cx="1373.59" cy="2281.68" r="10.44"/>
    </g>
    <g>
      <path class="cls-45" d="M241.54,2386.51c-1.3,1.64,9.7,8.45,9.22,16.69-.48,8.21-12.37,18.04-24.15,15.8-9.17-1.74-16.75-10.51-16.21-17.74.56-7.35,9.51-12.87,8.5-14.07-.45-.54-2.52.26-4.11,1.31-5.29,3.49-4.04,8.93-7.99,12.2-3.71,3.07-9.7,2.32-13.25.86-7.83-3.22-10.23-12.56-10.07-18.59.02-.62.43-10.97,7.95-16.08,6.52-4.43,14.28-2.13,14.93-4.69.6-2.37-6.22-3.93-7.58-9.31-1.33-5.22,3.26-10.99,6.74-13.78,7.52-6.02,19.92-6.17,24.1-.86,3.1,3.94,1.42,10.54,2.11,10.6.7.05,1.64-5.56,3.91-9.88,7.65-14.57,19.29.08,22.78,5.37,3.93,5.96-7.43,11.49-3,16.17,2.29,2.42,4.39.84,8.46,3.74.68.48,6.32,4.63,6.83,11.45.51,6.89-4.43,13.77-10.18,15.53-8.52,2.61-17.69-6.34-18.98-4.7Z"/>
      <circle class="cls-32" cx="228.49" cy="2375.15" r="11.96"/>
      <circle class="cls-21" cx="228.49" cy="2375.15" r="5.98"/>
    </g>
    <g>
      <path class="cls-45" d="M770.32,2172.53c-.98,1.24,7.34,6.39,6.97,12.62-.36,6.21-9.35,13.64-18.26,11.95-6.93-1.32-12.67-7.95-12.25-13.41.42-5.56,7.19-9.73,6.43-10.64-.34-.41-1.91.2-3.11.99-4,2.64-3.05,6.75-6.04,9.22-2.8,2.32-7.33,1.76-10.02.65-5.92-2.43-7.73-9.49-7.61-14.05.01-.47.33-8.3,6.01-12.16,4.93-3.35,10.8-1.61,11.29-3.54.45-1.8-4.7-2.97-5.73-7.04-1-3.95,2.46-8.31,5.1-10.42,5.69-4.55,15.06-4.66,18.22-.65,2.34,2.98,1.07,7.97,1.6,8.01.53.04,1.24-4.2,2.95-7.47,5.78-11.01,14.58.06,17.22,4.06,2.97,4.51-5.61,8.69-2.27,12.22,1.73,1.83,3.32.64,6.4,2.83.52.37,4.78,3.5,5.16,8.65.39,5.21-3.35,10.41-7.7,11.74-6.44,1.97-13.37-4.79-14.35-3.56Z"/>
      <circle class="cls-32" cx="760.45" cy="2163.93" r="9.04"/>
      <circle class="cls-21" cx="760.45" cy="2163.93" r="4.52"/>
    </g>
    <g>
      <path class="cls-45" d="M1255.79,2099.25c-.98,1.24,7.34,6.39,6.97,12.62-.36,6.21-9.35,13.64-18.26,11.95-6.93-1.32-12.67-7.95-12.25-13.41.42-5.56,7.19-9.73,6.43-10.64-.34-.41-1.91.2-3.11.99-4,2.64-3.05,6.75-6.04,9.22-2.8,2.32-7.33,1.76-10.02.65-5.92-2.43-7.73-9.49-7.61-14.05.01-.47.33-8.3,6.01-12.16,4.93-3.35,10.8-1.61,11.29-3.54.45-1.8-4.7-2.97-5.73-7.04-1-3.95,2.46-8.31,5.1-10.42,5.69-4.55,15.06-4.66,18.22-.65,2.34,2.98,1.07,7.97,1.6,8.01.53.04,1.24-4.2,2.95-7.47,5.78-11.01,14.58.06,17.22,4.06,2.97,4.51-5.61,8.69-2.27,12.22,1.73,1.83,3.32.64,6.4,2.83.52.37,4.78,3.5,5.16,8.65.39,5.21-3.35,10.41-7.7,11.74-6.44,1.97-13.37-4.79-14.35-3.56Z"/>
      <circle class="cls-32" cx="1245.92" cy="2090.65" r="9.04"/>
      <circle class="cls-21" cx="1245.92" cy="2090.65" r="4.52"/>
    </g>
    <g>
      <path class="cls-17" d="M953.42,1432.51c-.08,3.42,34.37-.57,70.74,13.61,61.87,24.11,92.31,86.36,100.74,80.13,3.78-2.79-.97-16.32-2.14-19.65-6.02-17.14-18.2-27.88-33.58-38.55-26.06-18.08-54.84-38.04-97.17-40.07-19.2-.92-38.52,1.98-38.58,4.54Z"/>
      <path class="cls-17" d="M1138.99,1449.75c-28.43-24.72-53.47-33.65-68.96-37.36-36.69-8.77-70.65-.39-81.21-2.85-1.04-.24-4.46-1.2-7.98.71-3.19,1.73-3.06,3.97-5.13,4.62-4.82,1.52-7.87-9.91-16.24-11.38-2.83-.5-7.06,0-8.26,2.85-1.95,4.62,3.76,16.29,11.4,18.86,7.13,2.39,9.79-5.19,22.51-7.12,5.67-.86,5.07.66,18.52,1.07,10.4.31,12.37-.55,20.52-.36,8.04.19,13.57,1.2,24.22,3.2,10.66,2,20.94,3.93,34.48,8.18,21.16,6.64,32.05,10.2,43.6,20.99,7.25,6.77,15.74,13.95,18.7,18.86l-6.16-20.28Z"/>
      <path class="cls-17" d="M931.04,1405.09c-.56-.92,29.71-21.39,38.28-27.19,35.84-24.24,48-31.35,65.61-34.47,10.35-1.83,19.1-1.67,24.73-1.28,1.19,1.72,2.75,4.45,1.93,6.65-1.84,4.96-14.4,3.77-16.93,3.61-32.34-2.1-112.7,54.18-113.63,52.68Z"/>
      <path class="cls-17" d="M964.91,1441.47c6.14,2.12,15.3,5.84,25.35,12.38,27.73,18.04,40.24,44.43,50.21,61.88,37.82,66.22,60.51,139.57,69.21,161.59l-20.47-3.27-16.09-66.01-13.16-29.91-15.11-34.04-13.16-27.33-17.55-28.36-18.52-20.63-18.52-15.99-12.19-10.31Z"/>
      <path class="cls-17" d="M953.51,1450.18c1.37-.93,16.91,19.85,30.6,43.73,24.16,42.14,34.59,80.01,40.54,102.17,12.2,45.44,13.12,76.3,14.58,79.53.06.13.37.76.12,1.2-.77,1.42-6.29-.54-7.15-.84-9.57-3.39-9.99-59.79-21.86-102.59-4.13-14.89-13.35-33.89-31.79-71.9-15.35-31.64-26.29-50.45-25.04-51.3Z"/>
    </g>
    <path class="cls-47" d="M809.4,1543.93c-11.04,64.28-49.19,113.31-71.95,109.4-22.76-3.91-21.52-59.27-10.48-123.55,11.04-64.28,14.54-104.37,44.84-101.86,34.55,2.87,48.63,51.73,37.59,116.01Z"/>
    <path class="cls-47" d="M975.04,1529.91c6.03,64.95-18.08,122.19-41.08,124.32-23,2.13-36.17-51.65-42.19-116.6-6.03-64.95-13.05-104.57,16.86-110,34.11-6.2,60.39,37.33,66.41,102.28Z"/>
    <path class="cls-17" d="M875.59,1412.18c-2.27-10.37,13.2-19.78,28.34-33.7,34.66-31.86,44.06-65.72,46.72-64.33,1.76.91-10.06,25.12-33.7,73.52-10.29,21.07-17.42,35.23-27.57,35.23-6,0-12.52-4.94-13.79-10.72Z"/>
  </g>
  <g id="_Слой_14" data-name="Слой 14">
    <g>
      <polygon class="cls-2" points="1499.6 1616.42 141.09 1616.42 202.37 1580.53 1435.71 1580.53 1499.6 1616.42"/>
      <rect class="cls-35" x="141.09" y="1616.42" width="1358.51" height="84.02"/>
      <path class="cls-30" d="M919.82,1490.71c.4,9.21.31,40.77-17.67,67.17-12.84,18.86-28.88,28.4-37.26,32.61l7.67,11.31-75.6,1.98,5.04-14.35c-1.06-.47-2.1-.97-3.12-1.48-33.98-17.25-48.03-60.77-54-97.24"/>
      <path class="cls-30" d="M915.01,1516.97c4.74-10.11,13.1-16.7,21.77-16.59,1.11.01,8.81.12,12.09,5.53,3.82,6.29-2.96,15.85-5.87,20.04-11.17,16.08-29.82,22.31-41.47,24.88-.61,2.37-.96,5.32.62,7.04,4.85,5.29,24.92-4.24,38.08-14.65,7.43-5.87,17.09-13.74,20.04-26.95.93-4.15,2.77-12.43-2.07-19.35-5.94-8.48-17.35-8.36-19.35-8.29-13.9.45-21.72,12.62-22.46,13.82"/>
      <ellipse class="cls-40" cx="832.39" cy="1488.63" rx="87.52" ry="12.76"/>
    </g>
    <path class="cls-25" d="M1166.16,2344.67c-11.16,1.7-20.18,9.35-27.27,17.7-7.24,8.52-12.91,18.29-20.73,26.32-4.21,4.32-9.07,8.12-14.76,10.28-1.26.48-2.13,1.69-1.75,3.08.33,1.21,1.81,2.23,3.08,1.75,21.96-8.31,29.48-32.9,46.74-46.91,4.65-3.78,10.07-6.48,16.02-7.39,1.34-.2,2.07-1.88,1.75-3.08-.39-1.43-1.74-1.95-3.08-1.75h0Z"/>
    <polygon class="cls-10" points="661.69 1168.94 666.23 1178.95 681.58 1200.16 740.67 1251.36 815.61 1301.96 787.88 1277.71 736.82 1239.15 703.22 1207.72 661.69 1168.94"/>
    <polygon class="cls-10" points="988.63 1180.59 990.5 1176.24 980.42 1207 913.8 1258.21 833.26 1309.52 860.56 1284.55 918.14 1246 956.03 1214.56 988.63 1180.59"/>
    <path class="cls-27" d="M876.45,1508.81c5.64.58,12.85,30.29,0,42.71-2.86,2.76-8.11,6.02-11.07,4.35-4.74-2.67-1.41-16.63,0-22.54.46-1.92,5.97-25.04,11.07-24.52Z"/>
    <g>
      <path class="cls-45" d="M476.12,2075.88c6.9-8.87-9.45-20.95-3.5-33.89,7.64-16.62,51.01-19.47,60.01-4.74,7.55,12.35-10.07,35.43-4.74,38.96,3.46,2.29,10.51-7.69,23.16-8.42,7.82-.45,15.43,2.6,20.53,6.84,14.82,12.32,14.37,43.96,1.66,54.56-13.81,11.51-29.91-7.33-33.24-.33-1.4,2.93,2.08,5.18,3.69,12.11,2.18,9.39-.29,22.13-8.95,30.53-12.39,12.03-30.04,7.97-32.64,7.37-2.89-.67-18.24-4.2-22.11-15.27-3.64-10.41,5.1-21.06,1.58-23.69-2.44-1.82-6.54,3.38-13.69,4.21-10.9,1.26-22.56-8.39-27.9-18.43-6.9-12.95-6-31.61,3.69-39.48,11.31-9.2,26.2-2.28,32.45-10.33Z"/>
      <circle class="cls-32" cx="506.98" cy="2105.68" r="20.88"/>
      <circle class="cls-21" cx="506.98" cy="2105.68" r="10.44"/>
    </g>
    <path class="cls-26" d="M202.38,414.65l13.84,37.41,37.41,13.84c3.19,1.18,3.19,5.7,0,6.88l-37.41,13.84-13.84,37.41c-1.18,3.19-5.7,3.19-6.88,0l-13.84-37.41-37.41-13.84c-3.19-1.18-3.19-5.7,0-6.88l37.41-13.84,13.84-37.41c1.18-3.19,5.7-3.19,6.88,0Z"/>
    <path class="cls-26" d="M1443.74,1114.25l13.84,37.41,37.41,13.84c3.19,1.18,3.19,5.7,0,6.88l-37.41,13.84-13.84,37.41c-1.18,3.19-5.7,3.19-6.88,0l-13.84-37.41-37.41-13.84c-3.19-1.18-3.19-5.7,0-6.88l37.41-13.84,13.84-37.41c1.18-3.19,5.7-3.19,6.88,0Z"/>
    <circle class="cls-26" cx="1195.55" cy="249.01" r="10.15"/>
    <circle class="cls-44" cx="1152.84" cy="1034.27" r="9.54"/>
    <circle class="cls-44" cx="221.56" cy="1192.14" r="8.27"/>
    <circle class="cls-44" cx="556.13" cy="109.89" r="10.1"/>
    <circle class="cls-26" cx="1186.57" cy="975.41" r="8.98"/>
    <circle class="cls-26" cx="238.82" cy="1112.38" r="8.98"/>
    <circle class="cls-26" cx="122.46" cy="109.89" r="8.98"/>
    <circle class="cls-26" cx="1178.23" cy="1341.9" r="8.98"/>
    <circle class="cls-26" cx="590.49" cy="109.89" r="8.98"/>
    <path class="cls-53" d="M1340.27,195.49l9.86,55.79,55.79,9.86c5.81,1.03,5.81,9.37,0,10.39l-55.79,9.86-9.86,55.79c-1.03,5.81-9.37,5.81-10.39,0l-9.86-55.79-55.79-9.86c-5.81-1.03-5.81-9.37,0-10.39l55.79-9.86,9.86-55.79c1.03-5.81,9.37-5.81,10.39,0Z"/>
  </g>
</svg>