<svg width="1512" height="982" viewBox="0 0 1512 982" fill="none" xmlns="http://www.w3.org/2000/svg">
<path d="M1295.71 644.411C1307.38 720.093 1302.3 781.371 1295.71 822.747C1284.56 892.057 1260.85 938.496 1217.26 1046.56C1185.79 1124.69 1169.65 1167.64 1149.5 1198.8C1097 1280.24 1078.54 1292.03 1068.2 1310.62C1059.11 1327.03 1095.66 1328.51 1511.89 1303.81V644.411L1294.01 628L1295.62 644.411H1295.71Z" fill="#F5B167"/>
<path d="M828.775 -186.254C842.593 -135.538 863.989 -62.824 894.923 23.0709C954.206 187.441 1008.67 338.717 1125.37 490.08C1125.37 490.08 1194.19 584.879 1353.32 712.499C1369.36 725.331 1398.52 747.503 1441.57 757.018C1470.81 763.477 1495.95 761.732 1512 759.462V-186.254H828.775Z" fill="#FDCF72"/>
<path d="M1365.25 816.201C1390.93 968.001 1377.64 1127.31 1315.6 1269.07C1309.8 1282.43 1305.43 1299.1 1306.86 1313.5C1300.35 1322.75 1276.19 1318.83 1267.9 1310.97C1259.61 1303.11 1257.92 1290.54 1260.5 1279.72C1263.09 1268.89 1269.24 1259.12 1274.77 1249.25C1309 1189.37 1325.49 1121.98 1341.72 1055.47C1358.65 985.634 1375.77 914.23 1367.39 843" fill="#D3875F"/>
<path d="M1356.25 767.754C1365.96 843.611 1350.27 919.554 1343.68 995.76C1336.64 1077.12 1298.12 1143.46 1273.7 1215.21C1263.62 1244.8 1248.83 1286.53 1236.34 1314.98C1227.7 1334.63 1225.91 1343.01 1206.12 1345.19C1184.91 1347.54 1164.58 1326.16 1144.17 1332.79C1166.1 1337.94 1165.56 1321.36 1180 1302.59C1194.45 1283.73 1202.2 1259.82 1209.69 1236.6C1238.66 1145.9 1283.41 1060.62 1312.48 969.921C1326.03 927.672 1335.03 881.059 1347.6 837.849C1354.02 815.852 1345.55 788.53 1360.08 771.857" fill="#F5D580"/>
<path d="M1298.07 667C1335.98 712.125 1327.95 780.259 1321.88 828.724C1312.16 906.729 1295.12 984.135 1270.95 1060C1294.77 1018.47 1315.91 976.001 1334.1 932.588C1348.64 898.081 1361.4 862.717 1365.5 826.412C1369.61 790.106 1358.19 754.999 1350.61 718.437C1347.22 702.168 1320.67 685.5 1305.6 672.5" fill="#C0716F"/>
<path d="M1489.71 576.674C1437.29 547.256 1378.9 543.939 1326.48 514.522C1268.36 481.962 1177.07 386.378 1132.5 335.749C1184.21 461.623 1337.27 593.172 1466.98 618.137C1471.71 619.01 1476.7 619.883 1481.24 618.399C1488.64 616.042 1493.46 608.186 1494.79 600.242C1496.04 592.299 1494.44 584.181 1492.83 576.324" fill="#F4B06C"/>
<path d="M1325.95 558.954C1381.93 590.815 1432.84 610.456 1493.28 617.439C1465.91 628.001 1434.8 623.2 1408.14 610.979C1381.49 598.759 1347.61 582.26 1324.79 563.318" fill="#D28260"/>
<path d="M1468.94 -80.3696C1454.77 0.636947 1414.21 74.8347 1362.23 137.074C1342.71 160.38 1319.8 183.251 1290.65 189.798C1252.05 198.439 1211.93 175.22 1187.95 142.66C1163.97 110.1 1152.74 69.5972 1142.04 30.2288C1126.17 -28.2565 1110.21 -86.8291 1094.34 -145.314C1090.16 -160.852 1084.9 -177.787 1071.7 -186.167C1091.58 -65.3554 1124.21 53.2737 1168.78 166.753C1180.73 197.13 1193.65 227.42 1212.29 253.87C1231.01 280.319 1256.06 302.927 1286.1 313.14C1224.32 317.069 1165.75 278.66 1127.69 228.119C1089.62 177.577 1068.31 115.949 1047.72 55.456C1023.83 -14.5518 999.938 -84.4723 976.136 -154.48C972.748 -164.344 968.915 -174.906 960.446 -180.667C951.977 -186.429 937.802 -183.723 935.663 -173.51C934.771 -169.232 936.198 -164.78 937.535 -160.59C975.422 -46.675 1013.4 67.5022 1061.36 177.315C1076.96 213.017 1094.26 249.069 1121.89 275.78C1142.22 295.508 1167.18 309.125 1191.96 322.219C1222.81 338.455 1256.41 354.691 1290.74 349.454C1334.86 342.82 1366.51 303.364 1393.79 266.789C1418.57 233.531 1443.36 200.185 1468.14 166.927C1478.57 152.873 1489.18 138.645 1495.33 122.059C1506.83 91.0709 1501.3 56.2416 1492.83 24.2056C1484.36 -7.83034 1472.95 -39.6917 1473.04 -72.8625" fill="#F8B766"/>
<path d="M1496.31 195.559C1468.41 249.243 1440.33 303.364 1423.57 361.762C1418.13 380.878 1413.85 401.305 1418.66 420.683C1423.48 439.975 1439.97 457.52 1459.14 456.735C1476.25 456.036 1490.43 441.284 1496.4 424.699C1502.37 408.113 1501.93 389.782 1501.39 372.062C1499.34 308.863 1497.38 245.664 1495.33 182.465" fill="#F6C36C"/>
<path d="M890.465 -188C897.864 -69.8946 918.457 56.3289 965.705 164.047C989.597 218.429 1010.99 274.296 1041.84 324.75C1066.8 365.603 1097.47 402.352 1127.95 438.928C1175.91 496.365 1224.05 557.731 1277.36 609.932C1233.06 588.982 1201.14 574.491 1165.84 539.662C1125.37 499.682 1079.9 451.41 1049.68 402.614C942.616 229.428 867.733 20.0156 822 -180.144C836.888 -189.484 834.213 -186.254 852.488 -186.254" fill="#F6AD63"/>
<path d="M1306.77 1317.25C1325.94 1255.54 1346.62 1194.35 1368.82 1133.77C1387.54 1082.53 1396.54 1031.72 1399.75 977.08C1404.83 890.399 1387.54 805.552 1374.79 719.744C1373.63 711.888 1362.58 698.358 1369.89 696.088C1377.02 693.906 1378.36 704.119 1381.74 710.928C1419.81 786.61 1427.12 867.965 1441.38 952.027C1448.43 993.665 1444.68 1049.88 1439.33 1091.69C1434.25 1130.97 1423.02 1163.62 1409.02 1200.46C1397.52 1230.75 1371.49 1259.12 1365.79 1291.07C1360.62 1319.87 1338.15 1318.65 1306.77 1317.17" fill="#FCD172"/>
<path d="M1481.69 654.188C1445.5 667.719 1405.02 665.449 1368.12 654.188C1331.21 642.928 1297.24 623.113 1264.62 601.901C1231.99 580.689 1200.16 557.906 1165.93 539.749C1227.8 616.478 1314.81 670.948 1409.03 691.898C1424.9 695.477 1441.75 698.009 1457.17 692.684C1472.6 687.359 1485.79 671.734 1483.65 654.974" fill="#F4B06C"/>
<path d="M1298.81 668.506C1300.91 680.213 1302.03 691.966 1302.69 703.876C1303.46 717.537 1303.61 731.172 1303.23 744.786C1302.9 759.013 1302.05 773.218 1300.74 787.405C1299.47 800.981 1297.83 814.63 1295.57 828.078C1293.66 839.793 1291.21 851.486 1288.06 862.975C1287.74 864.272 1287.33 865.478 1287.01 866.775C1286.18 869.449 1290.5 870.852 1291.24 868.086C1294.65 856.696 1297.1 845.003 1299.2 833.295C1301.53 819.938 1303.34 806.471 1304.71 792.899C1306.1 778.629 1307.05 764.34 1307.56 750.033C1308.06 735.725 1307.99 722.355 1307.4 708.614C1306.85 696.273 1305.84 683.912 1303.85 671.686C1303.64 670.279 1303.43 668.96 1303.13 667.637C1302.62 664.907 1298.29 665.863 1298.8 668.593L1298.81 668.506Z" fill="#F5D580"/>
<path d="M186.202 635.266C176.148 700.418 180.522 753.171 186.202 788.791C195.795 848.457 216.209 888.435 253.736 981.467C280.827 1048.72 294.718 1085.69 312.062 1112.52C357.264 1182.63 373.15 1192.78 382.053 1208.78C389.881 1222.91 358.415 1224.19 0.0969803 1202.92V635.266L187.66 621.139L186.278 635.266H186.202Z" fill="#F5B167"/>
<path d="M588.167 -79.8276C576.272 -36.1675 557.853 26.4296 531.223 100.374C480.188 241.875 433.297 372.104 332.839 502.408C332.839 502.408 273.593 584.017 136.604 693.881C122.791 704.928 97.6952 724.015 60.6278 732.206C35.4557 737.767 13.8138 736.264 -0.000109335 734.31V-79.8276H588.167Z" fill="#FDCF72"/>
<path d="M126.332 783.155C104.23 913.835 115.665 1050.98 169.078 1173.02C174.067 1184.51 177.827 1198.87 176.599 1211.27C182.202 1219.23 202.999 1215.85 210.137 1209.09C217.274 1202.32 218.732 1191.5 216.506 1182.18C214.281 1172.87 208.985 1164.45 204.227 1155.96C174.757 1104.41 160.56 1046.39 146.592 989.132C132.011 929.015 117.276 867.545 124.49 806.225" fill="#D3875F"/>
<path d="M134.082 741.449C125.717 806.751 139.224 872.129 144.903 937.732C150.966 1007.77 184.12 1064.88 205.148 1126.65C213.82 1152.13 226.559 1188.05 237.303 1212.54C244.748 1229.45 246.282 1236.66 263.32 1238.54C281.585 1240.57 299.082 1222.16 316.657 1227.87C297.778 1232.31 298.238 1218.03 285.806 1201.87C273.373 1185.64 266.696 1165.05 260.25 1145.06C235.308 1066.98 196.782 993.566 171.764 915.489C160.099 879.118 152.348 838.989 141.527 801.792C136.001 782.855 143.292 759.334 130.782 744.981" fill="#F5D580"/>
<path d="M184.166 654.713C151.531 693.559 158.443 752.214 163.665 793.935C172.035 861.088 186.701 927.725 207.511 993.034C187.009 957.283 168.81 920.722 153.145 883.349C140.629 853.643 129.648 823.2 126.116 791.945C122.584 760.691 132.412 730.469 138.939 698.993C141.857 684.988 164.712 670.639 177.681 659.447" fill="#C0716F"/>
<path d="M19.1858 576.953C64.3114 551.629 114.579 548.773 159.704 523.449C209.742 495.419 288.328 413.134 326.7 369.549C282.188 477.91 150.418 591.156 38.7556 612.648C34.6882 613.399 30.3905 614.151 26.4765 612.873C20.1068 610.844 15.9626 604.081 14.8115 597.243C13.737 590.405 15.1184 583.416 16.4998 576.653" fill="#F4B06C"/>
<path d="M160.165 561.699C111.97 589.127 68.1492 606.035 16.1166 612.047C39.6771 621.14 66.4608 617.007 89.4073 606.486C112.354 595.966 141.517 581.763 161.163 565.456" fill="#D28260"/>
<path d="M37.0678 11.3251C49.2701 81.0611 84.1886 144.936 128.93 198.515C145.737 218.579 165.461 238.268 190.556 243.904C223.786 251.343 258.321 231.354 278.965 203.325C299.609 175.295 309.279 140.427 318.488 106.536C332.149 56.1876 345.886 5.76424 359.547 -44.584C363.154 -57.96 367.682 -72.5385 379.04 -79.7526C361.926 24.2503 333.837 126.374 295.465 224.065C285.182 250.216 274.054 276.292 258.014 299.061C241.898 321.831 220.333 341.294 194.47 350.086C247.654 353.467 298.075 320.403 330.844 276.893C363.614 233.383 381.956 180.33 399.684 128.253C420.251 67.9856 440.819 7.7932 461.309 -52.4743C464.226 -60.9659 467.526 -70.0586 474.816 -75.0183C482.107 -79.978 494.309 -77.6485 496.151 -68.8563C496.919 -65.1741 495.691 -61.3416 494.54 -57.7346C461.923 40.3317 429.23 138.623 387.942 233.158C374.512 263.893 359.623 294.928 335.833 317.923C318.335 334.906 296.847 346.629 275.512 357.901C248.958 371.878 220.026 385.856 190.479 381.347C152.491 375.636 125.247 341.669 101.763 310.183C80.4282 281.552 59.0934 252.846 37.7585 224.215C28.7794 212.117 19.6469 199.868 14.3515 185.59C4.45152 158.913 9.2096 128.929 16.5003 101.351C23.791 73.7719 33.6143 46.3434 33.5376 17.7877" fill="#F8B766"/>
<path d="M13.5073 248.863C37.5282 295.078 61.7026 341.669 76.1305 391.942C80.8119 408.399 84.4956 425.984 80.3514 442.666C76.2073 459.274 62.0096 474.378 45.5096 473.702C30.7747 473.101 18.5723 460.401 13.4305 446.123C8.28862 431.845 8.67236 416.064 9.13283 400.81C10.8979 346.404 12.5864 291.997 14.3515 237.591" fill="#F6C36C"/>
<path d="M535.061 -81.3306C528.691 20.3427 510.963 129.005 470.288 221.736C449.721 268.552 431.302 316.646 404.749 360.08C383.261 395.249 356.861 426.886 330.614 458.372C289.326 507.819 247.884 560.647 201.991 605.584C240.133 587.549 267.607 575.075 297.998 545.091C332.84 510.674 371.979 469.118 397.995 427.111C490.165 278.02 554.63 97.7437 594 -74.5674C581.184 -82.6081 583.486 -79.8276 567.753 -79.8276" fill="#F6AD63"/>
<path d="M176.675 1214.5C160.175 1161.37 142.37 1108.69 123.261 1056.54C107.145 1012.43 99.3934 968.692 96.6306 921.651C92.2562 847.03 107.145 773.988 118.119 700.119C119.117 693.355 128.633 681.708 122.34 679.754C116.2 677.875 115.049 686.667 112.133 692.529C79.3631 757.681 73.0702 827.717 60.7911 900.084C54.7283 935.928 57.9515 984.323 62.5562 1020.32C66.9306 1054.13 76.6004 1082.24 88.6492 1113.95C98.5492 1140.03 120.958 1164.45 125.87 1191.95C130.321 1216.75 149.661 1215.7 176.675 1214.42" fill="#FCD172"/>
<path d="M26.094 643.684C57.2522 655.331 92.094 653.378 123.866 643.684C155.638 633.99 184.878 616.931 212.966 598.671C241.054 580.41 268.452 560.797 297.922 545.167C244.661 611.22 169.759 658.112 88.6405 676.147C74.9801 679.228 60.4754 681.407 47.1987 676.823C33.9219 672.239 22.5638 658.788 24.4057 644.36" fill="#F4B06C"/>
<path d="M183.531 656.009C181.722 666.087 180.759 676.205 180.186 686.458C179.522 698.218 179.395 709.957 179.728 721.676C180.006 733.924 180.744 746.153 181.865 758.365C182.965 770.053 184.374 781.802 186.314 793.38C187.962 803.465 190.069 813.531 192.784 823.421C193.061 824.538 193.411 825.576 193.688 826.693C194.398 828.995 190.684 830.202 190.048 827.822C187.106 818.016 184.999 807.95 183.198 797.871C181.184 786.372 179.628 774.779 178.451 763.095C177.25 750.81 176.432 738.51 175.998 726.193C175.563 713.876 175.623 702.367 176.131 690.537C176.612 679.913 177.476 669.272 179.19 658.746C179.37 657.535 179.553 656.4 179.813 655.261C180.253 652.911 183.974 653.734 183.534 656.084L183.531 656.009Z" fill="#F5D580"/>
</svg>
