<svg width="516" height="315" viewBox="0 0 516 315" fill="none" xmlns="http://www.w3.org/2000/svg">
<path d="M67.6121 260.008H66.3291V272.154H67.6121V260.008Z" fill="#E28FA4"/>
<path d="M87.1959 304.319C87.1959 306.989 77.4717 310.792 68.6254 310.792C59.7791 310.792 51.7432 309.591 51.7432 306.922C51.7432 304.252 59.7116 301.116 68.6254 301.116C77.5392 301.116 87.1959 301.583 87.1959 304.252V304.319Z" fill="#AD6678"/>
<path d="M60.6566 271.753H73.1494C73.4871 273.021 73.4195 274.356 73.8247 275.624C77.3362 287.235 81.9282 296.778 87.8032 304.653L81.9957 306.788L78.4842 304.386L73.0144 307.322H67.0043L67.4095 301.917L64.033 306.988L51.4727 307.122C52.6882 305.387 53.3635 303.718 54.4439 301.65C59.9138 291.173 61.1293 280.896 60.8592 273.822L60.7241 271.686L60.6566 271.753Z" fill="#F08AA4"/>
<path d="M133.456 258.947L132.253 259.388L136.532 270.774L137.735 270.332L133.456 258.947Z" fill="#E28FA4"/>
<path d="M167.425 293.748C168.366 296.251 160.59 303.162 152.297 306.205C144.004 309.249 136.048 310.887 135.107 308.385C134.167 305.883 140.532 300.201 148.888 297.134C157.244 294.068 166.461 291.183 167.402 293.686L167.425 293.748Z" fill="#AD6678"/>
<path d="M131.074 272.35L142.785 268.052C143.548 269.124 143.955 270.399 144.782 271.448C152.164 281.125 159.831 288.491 168.112 293.852L163.42 297.852L159.182 299.381L154.792 297.852L155.189 301.442L149.555 303.51L148.03 298.303L146.652 304.219L134.924 308.666C135.453 306.621 135.498 304.825 135.782 302.514C137.219 290.81 134.738 280.758 131.993 274.219L131.114 272.264L131.074 272.35Z" fill="#F08AA4"/>
<path d="M113.823 260.008C115.153 261.716 117.014 265.553 113.823 267.241C110.633 268.929 110.077 269.351 110.198 269.351" stroke="#E28FA4" stroke-width="2"/>
<path d="M120.405 303.477C119.513 305.997 109.335 306.364 101.535 303.669C93.7341 300.974 86.9716 297.419 87.863 294.899C88.7545 292.379 96.906 291.819 104.766 294.535C112.626 297.25 120.985 300.633 120.094 303.153L120.405 303.477Z" fill="#AD6678"/>
<path d="M106.572 265.699L117.857 269.598C117.757 270.848 117.27 272.033 117.23 273.305C116.692 284.891 117.79 294.945 120.581 303.892L114.652 304.009L110.138 303.476L110.138 301.241L106.906 299.964L100.938 299.812L103.032 295.055L98.3607 298.583L92.0426 296.77L89.4577 295.055L86.8725 294.535C88.5251 293.347 89.767 292.299 91.4043 290.768C99.6941 283.01 104.077 274.105 106.093 267.631L106.654 265.659L106.572 265.699Z" fill="#F08AA4"/>
<path d="M322.25 258.741H323.65V272.001H322.25V258.741Z" fill="#E28FA4"/>
<path d="M300.869 307.118C300.869 310.033 311.486 314.186 321.144 314.186C330.802 314.186 339.575 312.874 339.575 309.96C339.575 307.046 330.876 303.621 321.144 303.621C311.412 303.621 300.869 304.131 300.869 307.046V307.118Z" fill="#AD6678"/>
<path d="M329.843 271.564H316.204C315.835 272.948 315.909 274.405 315.467 275.79C311.633 288.467 306.62 298.885 300.206 307.483L306.546 309.814L310.38 307.191L316.352 310.397H322.913L322.471 304.496L326.157 310.033L339.87 310.178C338.543 308.284 337.806 306.463 336.626 304.204C330.654 292.765 329.327 281.545 329.622 273.823L329.77 271.491L329.843 271.564Z" fill="#F08AA4"/>
<path d="M229.681 255.697L231.05 255.403L233.899 268.361L232.53 268.655L229.681 255.697Z" fill="#E28FA4"/>
<path d="M219.182 307.457C219.808 310.305 231.074 312.136 240.512 310.11C249.95 308.083 258.242 304.961 257.616 302.113C256.99 299.265 247.753 297.744 238.243 299.786C228.733 301.828 218.54 304.538 219.166 307.386L219.182 307.457Z" fill="#AD6678"/>
<path d="M239.857 266.634L226.529 269.496C226.466 270.926 226.851 272.335 226.716 273.78C225.693 286.973 223.033 298.206 218.612 307.953L225.308 308.901L230.117 307.841L233.241 303.881L235.016 307.413L241.428 306.036L239.728 300.362L244.52 305L257.951 302.265C256.247 300.692 255.136 299.067 253.498 297.107C245.205 287.183 241.497 276.497 240.126 268.888L239.769 266.579L239.857 266.634Z" fill="#F08AA4"/>
<path d="M271.798 258.741C270.347 260.605 268.315 264.795 271.798 266.638C275.282 268.48 275.889 268.941 275.757 268.941" stroke="#E28FA4" stroke-width="2"/>
<path d="M264.613 306.2C265.586 308.951 276.698 309.351 285.215 306.409C293.731 303.466 301.114 299.585 300.141 296.834C299.167 294.083 290.268 293.471 281.687 296.436C273.105 299.401 263.979 303.094 264.952 305.845L264.613 306.2Z" fill="#AD6678"/>
<path d="M279.715 264.954L267.394 269.211C267.503 270.576 268.035 271.869 268.078 273.258C268.667 285.907 267.467 296.884 264.42 306.652L270.893 306.78L275.822 306.198L275.822 303.758L279.35 302.363L285.866 302.198L283.58 297.005L288.68 300.856L295.578 298.877L298.4 297.005L301.222 296.437C299.418 295.14 298.062 293.995 296.274 292.323C287.224 283.854 282.439 274.132 280.237 267.063L279.625 264.911L279.715 264.954Z" fill="#F08AA4"/>
<path d="M217.364 307.401C216.458 310.152 206.116 310.553 198.189 307.61C190.262 304.668 183.39 300.787 184.296 298.036C185.202 295.285 193.485 294.673 201.473 297.638C209.46 300.603 217.954 304.296 217.048 307.047L217.364 307.401Z" fill="#AD6678"/>
<path d="M364.104 260.008H362.821V272.154H364.104V260.008Z" fill="#E28FA4"/>
<path d="M383.689 304.319C383.689 306.989 373.964 310.792 365.118 310.792C356.272 310.792 348.236 309.591 348.236 306.922C348.236 304.252 356.204 301.116 365.118 301.116C374.032 301.116 383.689 301.583 383.689 304.252V304.319Z" fill="#AD6678"/>
<path d="M357.149 271.753H369.642C369.98 273.021 369.912 274.356 370.317 275.624C373.829 287.235 378.421 296.778 384.296 304.653L378.488 306.788L374.977 304.386L369.507 307.322H363.497L363.902 301.917L360.526 306.988L347.965 307.122C349.181 305.387 349.856 303.718 350.937 301.65C356.406 291.173 357.622 280.896 357.352 273.822L357.217 271.686L357.149 271.753Z" fill="#F08AA4"/>
<path d="M429.949 258.947L428.746 259.388L433.025 270.774L434.228 270.332L429.949 258.947Z" fill="#E28FA4"/>
<path d="M463.918 293.748C464.858 296.251 457.083 303.162 448.79 306.205C440.497 309.249 432.54 310.887 431.6 308.385C430.66 305.883 437.025 300.201 445.381 297.134C453.737 294.068 462.954 291.183 463.895 293.686L463.918 293.748Z" fill="#AD6678"/>
<path d="M427.567 272.35L439.278 268.052C440.041 269.124 440.448 270.399 441.274 271.448C448.657 281.125 456.323 288.491 464.605 293.852L459.913 297.852L455.675 299.381L451.285 297.852L451.682 301.442L446.048 303.51L444.523 298.303L443.145 304.219L431.417 308.666C431.945 306.621 431.991 304.825 432.275 302.514C433.711 290.81 431.23 280.758 428.485 274.219L427.606 272.264L427.567 272.35Z" fill="#F08AA4"/>
<path d="M410.316 260.008C411.646 261.716 413.507 265.553 410.316 267.241C407.126 268.929 406.57 269.351 406.691 269.351" stroke="#E28FA4" stroke-width="2"/>
<path d="M416.898 303.477C416.006 305.997 405.828 306.364 398.028 303.669C390.227 300.974 383.465 297.419 384.356 294.899C385.248 292.379 393.399 291.819 401.259 294.535C409.119 297.25 417.478 300.633 416.587 303.153L416.898 303.477Z" fill="#AD6678"/>
<path d="M403.064 265.699L414.35 269.598C414.25 270.848 413.762 272.033 413.723 273.305C413.184 284.891 414.283 294.945 417.074 303.892L411.145 304.009L406.63 303.476L406.63 301.241L403.399 299.964L397.431 299.812L399.525 295.055L394.853 298.583L388.535 296.77L385.95 295.055L383.365 294.535C385.018 293.347 386.26 292.299 387.897 290.768C396.187 283.01 400.569 274.105 402.586 267.631L403.147 265.659L403.064 265.699Z" fill="#F08AA4"/>
<path d="M203.856 266.221L215.189 270.478C215.088 271.843 214.599 273.137 214.559 274.525C214.018 287.174 215.121 298.151 217.924 307.919L211.97 308.047L207.437 307.465L207.437 305.025L204.192 303.63L198.199 303.465L200.301 298.272L195.61 302.123L189.265 300.144L186.67 298.272L184.074 297.704C185.733 296.407 186.98 295.263 188.625 293.59C196.949 285.121 201.35 275.399 203.375 268.33L203.938 266.178L203.856 266.221Z" fill="#F08AA4"/>
<path d="M206 268C207.333 267.229 210 265.171 210 263.114C210 261.057 209.515 259.514 209.273 259" stroke="#E28FA4" stroke-width="2"/>
<path d="M507.3 221.2C511.8 221.2 515.4 217 515.4 211.6V137.2C515.4 131.9 511.7 127.6 507.3 127.6C491.7 127.6 478.7 114.4 475.7 96.8C474.9 92.3 471.7 89 467.9 89H53.7999C49.9999 89 46.6999 92.3 45.9999 96.8C42.9999 114.4 29.9999 127.6 14.3999 127.6C-1.20007 127.6 11.1999 127.5 9.59991 127.2C4.79991 126.3 0.399902 130.8 0.399902 136.7V212.1C0.399902 217.9 4.69991 222.4 9.59991 221.6C14.4999 220.8 12.7999 221.2 14.3999 221.2C29.9999 221.2 42.9999 234.4 45.9999 252C48.9999 269.6 49.9999 259.8 53.7999 259.8H467.9C471.7 259.8 475 256.5 475.7 252C478.7 234.4 491.7 221.2 507.3 221.2Z" fill="#F08AA4"/>
<path d="M498.8 217.2C503.1 217.2 506.6 213.4 506.6 208.5V141.1C506.6 136.3 503.1 132.4 498.8 132.4C483.8 132.4 471.2 120.4 468.3 104.5C467.6 100.4 464.4 97.5 460.7 97.5H60.7998C57.0998 97.5 53.9998 100.5 53.1998 104.5C50.2998 120.4 37.6998 132.4 22.6998 132.4C7.69983 132.4 19.5998 132.3 18.0998 132C13.3998 131.2 9.2998 135.3 9.2998 140.6V208.9C9.2998 214.2 13.4998 218.2 18.0998 217.5C22.6998 216.8 21.0998 217.1 22.6998 217.1C37.6998 217.1 50.2998 229.1 53.1998 245C53.8998 249.1 57.0998 252 60.7998 252H460.7C464.4 252 467.5 249 468.3 245C471.2 229.1 483.8 217.1 498.8 217.1V217.2Z" stroke="#AF7181" stroke-miterlimit="10"/>
<path d="M57.9 103.4C59.5017 103.4 60.8 102.102 60.8 100.5C60.8 98.8985 59.5017 97.6001 57.9 97.6001C56.2984 97.6001 55 98.8985 55 100.5C55 102.102 56.2984 103.4 57.9 103.4Z" fill="#526762"/>
<path d="M459.2 100.5C460.801 100.5 462.1 99.2017 462.1 97.6001C462.1 95.9984 460.801 94.7001 459.2 94.7001C457.598 94.7001 456.3 95.9984 456.3 97.6001C456.3 99.2017 457.598 100.5 459.2 100.5Z" fill="#526762"/>
<path d="M56.7998 100.5C116.4 55.2 198.9 -12 258.4 -57.2L459.2 97.6001" stroke="#AF7181" stroke-width="3" stroke-miterlimit="10"/>
<path d="M232.2 194.6C234.4 191.8 244.6 179.3 261.7 177.5C276 175.9 287.1 182.7 291.9 185.6C297.3 188.9 301.2 192.5 303.7 195.2M268 177.2L266.9 135.1M274.7 178.2L281 140.2M280.8 180L292.1 148M287.1 182.7L301.4 156.2M292 185.5L307.7 164M296.5 188.6L311.9 172.4M259.9 177.7L254 140M253.8 179.2L243.8 149.4M248.2 181.5L234.2 156.2M243.6 184.1L226.5 162.8M238.2 188.3L223.8 173.4M237.3 196.5C239 194.3 247.2 183.7 261.9 181.8C282.4 179 295.9 195.7 296.6 196.5C295.8 197.6 294.6 199 293 200.5C290.6 202.8 281.1 212 267.1 212.1C251.1 212.2 241 200.3 239.6 198.6L237.4 196.5H237.3ZM270.1 189.9C267.7 190.6 266.5 191.4 265.2 193.9C263.7 196.8 265.6 201.7 268.5 202.9C269.9 203.5 271.2 203.1 271.3 203.5C271.4 204 268.8 205.6 266.3 205.3C263 204.9 260.4 201.3 260 197.8C259.6 194.6 260.9 190.8 263.7 189.3C264 189.1 266.4 187.9 268.6 188.8C269.1 189 270.6 189.8 270.2 190L270.1 189.9Z" stroke="#EFC4C3" stroke-width="3" stroke-miterlimit="10"/>
<path d="M30.96 178.232H38.832C43.184 178.232 45.84 178.36 46.8 178.616C47.76 178.872 48.24 179.608 48.24 180.824C48.24 182.04 47.792 182.776 46.896 183.032C46 183.288 43.376 183.4 39.024 183.368H30.96C30.96 189.096 30.768 192.344 30.384 193.112C30.032 193.88 29.408 194.328 28.512 194.456C27.616 194.584 26.848 194.344 26.208 193.736C25.792 193.32 25.552 192.504 25.488 191.288C25.424 190.072 25.472 186.216 25.632 179.72C25.792 173.224 25.872 168.872 25.872 166.664C25.84 165.992 26.176 165.304 26.88 164.6C27.584 163.896 28.24 163.496 28.848 163.4C29.456 163.304 31.2 163.32 34.08 163.448C36.96 163.576 39.6 163.928 42 164.504C44.4 165.08 46.048 165.736 46.944 166.472C47.456 166.888 47.712 167.432 47.712 168.104C47.712 168.776 47.456 169.384 46.944 169.928C46.432 170.472 45.824 170.744 45.12 170.744C44.416 170.744 43.12 170.424 41.232 169.784C39.376 169.144 35.952 168.856 30.96 168.92V178.232ZM66.9675 168.2C65.6875 167.528 64.8555 167.176 64.4715 167.144C64.0875 167.112 63.3995 167.32 62.4075 167.768C60.3915 168.6 58.9675 169.624 58.1355 170.84C57.3035 172.056 56.7595 173.784 56.5035 176.024C56.2475 178.264 56.7915 180.12 58.1355 181.592C59.4795 183.064 61.3035 183.832 63.6075 183.896C64.9515 183.896 66.1355 183.64 67.1595 183.128C68.1835 182.616 69.2075 181.816 70.2315 180.728C71.2555 179.576 71.9435 178.424 72.2955 177.272C72.6475 176.12 72.6155 175.112 72.1995 174.248C70.8555 171.304 69.1115 169.288 66.9675 168.2ZM51.1275 176.936C51.1275 173.416 52.0875 170.36 54.0075 167.768C55.9275 165.176 58.5355 163.368 61.8315 162.344C62.9515 161.992 64.0235 161.896 65.0475 162.056C66.0715 162.216 67.3355 162.648 68.8395 163.352C71.3675 164.504 73.4635 166.296 75.1275 168.728C76.7915 171.16 77.6395 173.624 77.6715 176.12C77.6395 178.616 76.6315 181.112 74.6475 183.608C72.6635 186.104 70.2955 187.8 67.5435 188.696C64.7915 189.528 62.1355 189.528 59.5755 188.696C57.0155 187.864 54.9675 186.392 53.4315 184.28C51.8955 182.168 51.1275 179.72 51.1275 176.936ZM93.717 167.192C91.861 166.232 90.405 165.752 89.349 165.752C88.293 165.752 87.109 166.072 85.797 166.712C86.053 171.864 86.309 174.712 86.565 175.256C86.789 175.512 87.989 175.384 90.165 174.872C92.341 174.36 94.069 173.752 95.349 173.048C96.629 172.344 97.429 171.72 97.749 171.176C98.069 170.632 97.941 170.072 97.365 169.496C96.789 168.92 95.573 168.152 93.717 167.192ZM100.869 194.12C99.941 194.12 99.173 193.72 98.565 192.92C98.149 192.408 96.325 190.664 93.093 187.688C89.861 184.712 87.989 183.064 87.477 182.744C87.285 182.616 87.221 183.928 87.285 186.68C87.349 189.432 87.333 191.064 87.237 191.576C87.141 192.088 86.821 192.52 86.277 192.872C85.541 193.416 84.789 193.528 84.021 193.208C83.253 192.888 82.773 192.36 82.581 191.624C82.389 190.888 82.197 188.92 82.005 185.72C81.813 182.52 81.477 180.568 80.997 179.864C80.549 179.16 80.453 178.504 80.709 177.896C80.965 177.288 80.981 174.84 80.757 170.552C80.533 166.264 80.485 163.896 80.613 163.448C80.773 162.616 81.157 161.976 81.765 161.528C82.373 161.08 83.061 160.952 83.829 161.144C84.597 161.336 85.333 161.304 86.037 161.048C87.445 160.472 89.141 160.376 91.125 160.76C93.109 161.144 95.317 162.04 97.749 163.448C100.181 164.856 101.829 166.328 102.693 167.864C103.557 169.4 103.557 171.112 102.693 173C102.085 174.312 101.173 175.448 99.957 176.408C98.741 177.368 96.965 178.264 94.629 179.096L92.373 179.96C98.549 185.304 102.101 188.728 103.029 190.232C103.413 190.936 103.605 191.448 103.605 191.768C103.605 192.088 103.381 192.568 102.933 193.208C102.485 193.848 101.797 194.152 100.869 194.12ZM120.407 167.96C120.055 167.96 119.975 168.232 120.167 168.776C120.359 169.704 120.535 173.144 120.695 179.096C120.887 185.048 120.951 188.664 120.887 189.944C120.823 191.224 120.583 192.056 120.167 192.44C119.751 192.824 119.191 193.048 118.487 193.112C117.783 193.176 117.191 193.016 116.711 192.632C116.231 192.248 115.895 191.032 115.703 188.984C115.511 186.936 115.319 182.728 115.127 176.36L114.839 167.768L111.335 167.528C109.511 167.368 108.247 167.096 107.543 166.712C106.839 166.328 106.487 165.592 106.487 164.504C106.487 163.416 107.063 162.712 108.215 162.392C109.367 162.072 111.255 162.056 113.879 162.344C116.503 162.632 118.167 162.744 118.871 162.68C119.575 162.616 120.567 162.36 121.847 161.912C123.127 161.4 124.055 161.112 124.631 161.048C125.207 160.984 125.847 161.112 126.551 161.432C127.063 161.752 127.351 162.36 127.415 163.256C127.479 164.152 127.287 164.824 126.839 165.272C126.391 165.72 125.319 166.28 123.623 166.952C121.959 167.624 120.887 167.96 120.407 167.96ZM150.267 163.16C150.651 162.328 151.275 161.912 152.139 161.912C153.003 161.912 153.595 162.008 153.915 162.2C154.235 162.392 154.491 162.888 154.683 163.688C154.875 164.488 154.955 165.688 154.923 167.288C154.859 168.888 154.827 171.048 154.827 173.768C154.571 182.12 154.907 187.528 155.835 189.992C156.027 190.408 155.771 191.032 155.067 191.864C154.363 192.696 153.755 193.128 153.243 193.16C152.731 193.128 152.139 192.664 151.467 191.768C150.795 190.872 150.395 190.072 150.267 189.368C150.139 188.664 150.043 188.2 149.979 187.976C149.915 187.752 149.851 187.48 149.787 187.16C149.723 186.84 149.643 186.68 149.547 186.68C149.451 186.68 149.355 186.648 149.259 186.584C149.163 186.52 148.987 186.584 148.731 186.776C148.475 186.968 148.283 187.16 148.155 187.352C147.963 187.512 147.659 187.784 147.243 188.168C144.907 190.344 142.523 191.192 140.091 190.712C137.659 190.232 135.403 188.488 133.323 185.48C132.011 183.528 131.163 181.592 130.779 179.672C130.395 177.752 130.235 174.84 130.299 170.936C130.363 167.032 130.443 164.632 130.539 163.736C130.667 162.84 130.955 162.184 131.403 161.768C132.075 161.288 132.507 161.048 132.699 161.048C132.891 161.048 133.307 161.24 133.947 161.624C134.587 162.008 135.003 162.344 135.195 162.632C135.387 162.92 135.467 164.952 135.435 168.728C135.339 172.504 135.355 175 135.483 176.216C135.611 177.432 135.867 178.632 136.251 179.816C136.635 181 137.435 182.264 138.651 183.608C139.803 184.952 140.699 185.64 141.339 185.672C141.979 185.64 142.811 185.112 143.835 184.088C144.859 183.064 145.771 181.896 146.571 180.584C148.075 178.152 149.035 174.136 149.451 168.536C149.611 165.784 149.883 163.992 150.267 163.16ZM159.617 178.616C159.041 174.392 158.753 171.8 158.753 170.84C158.753 169.88 159.041 169.016 159.617 168.248C160.192 167.48 160.833 167.08 161.537 167.048C162.241 167.08 162.769 167.224 163.121 167.48C163.473 167.736 163.888 168.248 164.368 169.016C165.233 170.456 166.625 172.072 168.545 173.864C170.081 175.368 172.257 177.24 175.073 179.48C177.889 181.72 179.489 182.856 179.873 182.888C180.161 182.888 180.241 182.376 180.113 181.352C179.921 177.928 179.761 174.744 179.633 171.8C179.473 168.856 179.425 166.936 179.489 166.04C179.553 165.144 179.777 164.488 180.161 164.072C180.545 163.656 181.185 163.416 182.081 163.352C182.977 163.288 183.569 163.432 183.857 163.784C184.145 164.136 184.385 165.464 184.577 167.768C184.769 170.072 184.977 173.816 185.201 179C185.425 184.184 185.505 187.064 185.441 187.64C185.377 188.216 185.073 188.696 184.529 189.08C183.281 190.04 181.729 190.072 179.873 189.176C178.017 188.28 175.105 186.264 171.137 183.128C167.169 179.928 165.137 178.376 165.041 178.472C164.945 178.568 165.121 179.944 165.569 182.6C166.017 185.256 166.241 186.904 166.241 187.544C166.241 188.184 166.065 188.744 165.713 189.224C165.041 190.28 164.177 190.616 163.121 190.232C162.065 189.848 161.361 188.872 161.009 187.304C160.657 185.736 160.192 182.84 159.617 178.616ZM195.243 166.808C194.859 166.936 194.667 167.256 194.667 167.768C194.667 168.28 194.459 170.408 194.043 174.152C198.139 173.864 200.923 173.624 202.395 173.432C203.867 173.24 204.795 173.208 205.179 173.336C205.563 173.464 206.075 173.816 206.715 174.392C207.291 174.968 207.579 175.448 207.579 175.832C207.579 176.216 207.307 176.712 206.763 177.32C206.187 177.864 205.515 178.232 204.747 178.424C203.979 178.616 202.347 178.776 199.851 178.904L194.187 179.24C194.091 181.192 194.235 182.968 194.619 184.568C195.003 186.168 195.659 187.096 196.587 187.352C197.611 187.608 203.099 187.912 213.051 188.264L213.675 189.56C213.963 190.136 214.107 190.552 214.107 190.808C214.107 191.064 213.963 191.4 213.675 191.816C213.387 192.232 213.179 192.504 213.051 192.632C212.923 192.76 212.555 192.872 211.947 192.968C211.339 193.064 210.635 193.112 209.835 193.112C209.035 193.112 207.659 193.128 205.707 193.16C200.427 193.16 196.731 192.808 194.619 192.104C192.507 191.4 191.003 190.04 190.107 188.024C189.659 186.904 189.211 184.584 188.763 181.064C188.315 177.544 188.219 175.56 188.475 175.112C188.731 174.632 188.955 173.272 189.147 171.032C189.339 168.792 189.467 167.288 189.531 166.52C189.595 165.752 189.787 165.032 190.107 164.36C190.427 163.688 190.763 163.192 191.115 162.872C191.467 162.552 192.059 162.264 192.891 162.008C193.755 161.752 194.635 161.56 195.531 161.432C196.427 161.304 198.283 161.112 201.099 160.856C203.915 160.6 205.723 160.344 206.523 160.088C208.603 159.448 210.107 159.544 211.035 160.376C211.547 160.824 211.803 161.4 211.803 162.104C211.803 162.808 211.547 163.416 211.035 163.928C210.555 164.44 209.195 164.92 206.955 165.368C204.715 165.816 202.299 166.136 199.707 166.328C197.115 166.52 195.627 166.68 195.243 166.808Z" fill="#EFC4C3"/>
<path d="M339.16 167.96C338.808 167.96 338.728 168.232 338.92 168.776C339.112 169.704 339.288 173.144 339.448 179.096C339.64 185.048 339.704 188.664 339.64 189.944C339.576 191.224 339.336 192.056 338.92 192.44C338.504 192.824 337.944 193.048 337.24 193.112C336.536 193.176 335.944 193.016 335.464 192.632C334.984 192.248 334.648 191.032 334.456 188.984C334.264 186.936 334.072 182.728 333.88 176.36L333.592 167.768L330.088 167.528C328.264 167.368 327 167.096 326.296 166.712C325.592 166.328 325.24 165.592 325.24 164.504C325.24 163.416 325.816 162.712 326.968 162.392C328.12 162.072 330.008 162.056 332.632 162.344C335.256 162.632 336.92 162.744 337.624 162.68C338.328 162.616 339.32 162.36 340.6 161.912C341.88 161.4 342.808 161.112 343.384 161.048C343.96 160.984 344.6 161.112 345.304 161.432C345.816 161.752 346.104 162.36 346.168 163.256C346.232 164.152 346.04 164.824 345.592 165.272C345.144 165.72 344.072 166.28 342.376 166.952C340.712 167.624 339.64 167.96 339.16 167.96ZM355.965 166.808C355.581 166.936 355.389 167.256 355.389 167.768C355.389 168.28 355.181 170.408 354.765 174.152C358.861 173.864 361.645 173.624 363.117 173.432C364.589 173.24 365.517 173.208 365.901 173.336C366.285 173.464 366.797 173.816 367.437 174.392C368.013 174.968 368.301 175.448 368.301 175.832C368.301 176.216 368.029 176.712 367.485 177.32C366.909 177.864 366.237 178.232 365.469 178.424C364.701 178.616 363.069 178.776 360.573 178.904L354.909 179.24C354.813 181.192 354.957 182.968 355.341 184.568C355.725 186.168 356.381 187.096 357.309 187.352C358.333 187.608 363.821 187.912 373.773 188.264L374.397 189.56C374.685 190.136 374.829 190.552 374.829 190.808C374.829 191.064 374.685 191.4 374.397 191.816C374.109 192.232 373.901 192.504 373.773 192.632C373.645 192.76 373.277 192.872 372.669 192.968C372.061 193.064 371.357 193.112 370.557 193.112C369.757 193.112 368.381 193.128 366.429 193.16C361.149 193.16 357.453 192.808 355.341 192.104C353.229 191.4 351.725 190.04 350.829 188.024C350.381 186.904 349.933 184.584 349.485 181.064C349.037 177.544 348.941 175.56 349.197 175.112C349.453 174.632 349.677 173.272 349.869 171.032C350.061 168.792 350.189 167.288 350.253 166.52C350.317 165.752 350.509 165.032 350.829 164.36C351.149 163.688 351.485 163.192 351.837 162.872C352.189 162.552 352.781 162.264 353.613 162.008C354.477 161.752 355.357 161.56 356.253 161.432C357.149 161.304 359.005 161.112 361.821 160.856C364.637 160.6 366.445 160.344 367.245 160.088C369.325 159.448 370.829 159.544 371.757 160.376C372.269 160.824 372.525 161.4 372.525 162.104C372.525 162.808 372.269 163.416 371.757 163.928C371.277 164.44 369.917 164.92 367.677 165.368C365.437 165.816 363.021 166.136 360.429 166.328C357.837 166.52 356.349 166.68 355.965 166.808ZM378.797 161.768C379.469 161.288 379.997 161.048 380.381 161.048C380.765 161.048 381.229 161.24 381.773 161.624C382.317 162.008 382.653 162.456 382.781 162.968C382.909 163.48 382.989 164.84 383.021 167.048C383.053 169.256 383.197 172.216 383.453 175.928C383.709 179.64 384.029 182.248 384.413 183.752C392.413 183.976 397.325 184.248 399.149 184.568C400.269 184.824 400.893 185.56 401.021 186.776C401.149 187.992 400.685 188.824 399.629 189.272C398.893 189.592 395.997 189.624 390.941 189.368C385.885 189.112 382.941 188.792 382.109 188.408C380.637 187.672 379.645 186.184 379.133 183.944C378.621 181.704 378.237 177.304 377.981 170.744L377.693 162.536L378.797 161.768ZM405.001 161.768C405.673 161.288 406.201 161.048 406.585 161.048C406.969 161.048 407.433 161.24 407.977 161.624C408.521 162.008 408.857 162.456 408.985 162.968C409.113 163.48 409.193 164.84 409.225 167.048C409.257 169.256 409.401 172.216 409.657 175.928C409.913 179.64 410.233 182.248 410.617 183.752C418.617 183.976 423.529 184.248 425.353 184.568C426.473 184.824 427.097 185.56 427.225 186.776C427.353 187.992 426.889 188.824 425.833 189.272C425.097 189.592 422.201 189.624 417.145 189.368C412.089 189.112 409.145 188.792 408.313 188.408C406.841 187.672 405.849 186.184 405.337 183.944C404.825 181.704 404.441 177.304 404.185 170.744L403.897 162.536L405.001 161.768ZM437.012 166.808C436.628 166.936 436.436 167.256 436.436 167.768C436.436 168.28 436.228 170.408 435.812 174.152C439.908 173.864 442.692 173.624 444.164 173.432C445.636 173.24 446.564 173.208 446.948 173.336C447.332 173.464 447.844 173.816 448.484 174.392C449.06 174.968 449.348 175.448 449.348 175.832C449.348 176.216 449.076 176.712 448.532 177.32C447.956 177.864 447.284 178.232 446.516 178.424C445.748 178.616 444.116 178.776 441.62 178.904L435.956 179.24C435.86 181.192 436.004 182.968 436.388 184.568C436.772 186.168 437.428 187.096 438.356 187.352C439.38 187.608 444.868 187.912 454.82 188.264L455.444 189.56C455.732 190.136 455.876 190.552 455.876 190.808C455.876 191.064 455.732 191.4 455.444 191.816C455.156 192.232 454.948 192.504 454.82 192.632C454.692 192.76 454.324 192.872 453.716 192.968C453.108 193.064 452.404 193.112 451.604 193.112C450.804 193.112 449.428 193.128 447.476 193.16C442.196 193.16 438.5 192.808 436.388 192.104C434.276 191.4 432.772 190.04 431.876 188.024C431.428 186.904 430.98 184.584 430.532 181.064C430.084 177.544 429.988 175.56 430.244 175.112C430.5 174.632 430.724 173.272 430.916 171.032C431.108 168.792 431.236 167.288 431.3 166.52C431.364 165.752 431.556 165.032 431.876 164.36C432.196 163.688 432.532 163.192 432.884 162.872C433.236 162.552 433.828 162.264 434.66 162.008C435.524 161.752 436.404 161.56 437.3 161.432C438.196 161.304 440.052 161.112 442.868 160.856C445.684 160.6 447.492 160.344 448.292 160.088C450.372 159.448 451.876 159.544 452.804 160.376C453.316 160.824 453.572 161.4 453.572 162.104C453.572 162.808 453.316 163.416 452.804 163.928C452.324 164.44 450.964 164.92 448.724 165.368C446.484 165.816 444.068 166.136 441.476 166.328C438.884 166.52 437.396 166.68 437.012 166.808ZM471.892 167.192C470.036 166.232 468.58 165.752 467.524 165.752C466.468 165.752 465.284 166.072 463.972 166.712C464.228 171.864 464.484 174.712 464.74 175.256C464.964 175.512 466.164 175.384 468.34 174.872C470.516 174.36 472.244 173.752 473.524 173.048C474.804 172.344 475.604 171.72 475.924 171.176C476.244 170.632 476.116 170.072 475.54 169.496C474.964 168.92 473.748 168.152 471.892 167.192ZM479.044 194.12C478.116 194.12 477.348 193.72 476.74 192.92C476.324 192.408 474.5 190.664 471.268 187.688C468.036 184.712 466.164 183.064 465.652 182.744C465.46 182.616 465.396 183.928 465.46 186.68C465.524 189.432 465.508 191.064 465.412 191.576C465.316 192.088 464.996 192.52 464.452 192.872C463.716 193.416 462.964 193.528 462.196 193.208C461.428 192.888 460.948 192.36 460.756 191.624C460.564 190.888 460.372 188.92 460.18 185.72C459.988 182.52 459.652 180.568 459.172 179.864C458.724 179.16 458.628 178.504 458.884 177.896C459.14 177.288 459.156 174.84 458.932 170.552C458.708 166.264 458.66 163.896 458.788 163.448C458.948 162.616 459.332 161.976 459.94 161.528C460.548 161.08 461.236 160.952 462.004 161.144C462.772 161.336 463.508 161.304 464.212 161.048C465.62 160.472 467.316 160.376 469.3 160.76C471.284 161.144 473.492 162.04 475.924 163.448C478.356 164.856 480.004 166.328 480.868 167.864C481.732 169.4 481.732 171.112 480.868 173C480.26 174.312 479.348 175.448 478.132 176.408C476.916 177.368 475.14 178.264 472.804 179.096L470.548 179.96C476.724 185.304 480.276 188.728 481.204 190.232C481.588 190.936 481.78 191.448 481.78 191.768C481.78 192.088 481.556 192.568 481.108 193.208C480.66 193.848 479.972 194.152 479.044 194.12Z" fill="#EFC4C3"/>
<path d="M237.773 116.273C237.705 115.697 237.428 115.25 236.943 114.932C236.458 114.614 235.864 114.455 235.159 114.455C234.644 114.455 234.193 114.538 233.807 114.705C233.424 114.871 233.125 115.1 232.909 115.392C232.697 115.684 232.591 116.015 232.591 116.386C232.591 116.697 232.665 116.964 232.812 117.188C232.964 117.407 233.157 117.591 233.392 117.739C233.627 117.883 233.873 118.002 234.131 118.097C234.388 118.187 234.625 118.261 234.841 118.318L236.023 118.636C236.326 118.716 236.663 118.826 237.034 118.966C237.409 119.106 237.767 119.297 238.108 119.54C238.453 119.778 238.737 120.085 238.96 120.46C239.184 120.835 239.295 121.295 239.295 121.841C239.295 122.47 239.131 123.038 238.801 123.545C238.475 124.053 237.998 124.456 237.369 124.756C236.744 125.055 235.985 125.205 235.091 125.205C234.258 125.205 233.536 125.07 232.926 124.801C232.32 124.532 231.843 124.157 231.494 123.676C231.15 123.195 230.955 122.636 230.909 122H232.364C232.402 122.439 232.549 122.803 232.807 123.091C233.068 123.375 233.398 123.587 233.795 123.727C234.197 123.864 234.629 123.932 235.091 123.932C235.629 123.932 236.112 123.845 236.54 123.67C236.968 123.492 237.307 123.246 237.557 122.932C237.807 122.614 237.932 122.242 237.932 121.818C237.932 121.432 237.824 121.117 237.608 120.875C237.392 120.633 237.108 120.436 236.756 120.284C236.403 120.133 236.023 120 235.614 119.886L234.182 119.477C233.273 119.216 232.553 118.843 232.023 118.358C231.492 117.873 231.227 117.239 231.227 116.455C231.227 115.803 231.403 115.235 231.756 114.75C232.112 114.261 232.589 113.883 233.188 113.614C233.79 113.341 234.462 113.205 235.205 113.205C235.955 113.205 236.621 113.339 237.205 113.608C237.788 113.873 238.25 114.237 238.591 114.699C238.936 115.161 239.117 115.686 239.136 116.273H237.773ZM241.612 125V113.364H248.635V114.614H243.021V118.545H248.271V119.795H243.021V123.75H248.726V125H241.612ZM251.175 125V113.364H258.197V114.614H252.584V118.545H257.834V119.795H252.584V123.75H258.288V125H251.175ZM267.101 116.273C267.033 115.697 266.756 115.25 266.271 114.932C265.786 114.614 265.192 114.455 264.487 114.455C263.972 114.455 263.521 114.538 263.135 114.705C262.752 114.871 262.453 115.1 262.237 115.392C262.025 115.684 261.919 116.015 261.919 116.386C261.919 116.697 261.993 116.964 262.141 117.188C262.292 117.407 262.485 117.591 262.72 117.739C262.955 117.883 263.201 118.002 263.459 118.097C263.716 118.187 263.953 118.261 264.169 118.318L265.351 118.636C265.654 118.716 265.991 118.826 266.362 118.966C266.737 119.106 267.095 119.297 267.436 119.54C267.781 119.778 268.065 120.085 268.288 120.46C268.512 120.835 268.624 121.295 268.624 121.841C268.624 122.47 268.459 123.038 268.129 123.545C267.804 124.053 267.326 124.456 266.697 124.756C266.072 125.055 265.313 125.205 264.419 125.205C263.586 125.205 262.864 125.07 262.254 124.801C261.648 124.532 261.171 124.157 260.822 123.676C260.478 123.195 260.283 122.636 260.237 122H261.692C261.73 122.439 261.877 122.803 262.135 123.091C262.396 123.375 262.726 123.587 263.124 123.727C263.525 123.864 263.957 123.932 264.419 123.932C264.957 123.932 265.44 123.845 265.868 123.67C266.296 123.492 266.635 123.246 266.885 122.932C267.135 122.614 267.26 122.242 267.26 121.818C267.26 121.432 267.152 121.117 266.936 120.875C266.72 120.633 266.436 120.436 266.084 120.284C265.732 120.133 265.351 120 264.942 119.886L263.51 119.477C262.601 119.216 261.881 118.843 261.351 118.358C260.821 117.873 260.555 117.239 260.555 116.455C260.555 115.803 260.732 115.235 261.084 114.75C261.44 114.261 261.917 113.883 262.516 113.614C263.118 113.341 263.79 113.205 264.533 113.205C265.283 113.205 265.949 113.339 266.533 113.608C267.116 113.873 267.578 114.237 267.919 114.699C268.264 115.161 268.446 115.686 268.464 116.273H267.101ZM275.918 125H274.44L278.713 113.364H280.168L284.44 125H282.963L279.486 115.205H279.395L275.918 125ZM276.463 120.455H282.418V121.705H276.463V120.455ZM286.253 125V113.364H287.662V123.75H293.071V125H286.253ZM295.253 125V113.364H296.662V123.75H302.071V125H295.253Z" fill="#EFC4C3"/>
<path d="M237.773 116.273L237.673 116.284L237.684 116.373H237.773V116.273ZM236.943 114.932L236.888 115.015L236.943 114.932ZM233.807 114.705L233.767 114.613L233.767 114.613L233.807 114.705ZM232.909 115.392L232.829 115.333L232.828 115.333L232.909 115.392ZM232.812 117.188L232.729 117.243L232.73 117.244L232.812 117.188ZM233.392 117.739L233.339 117.823L233.34 117.824L233.392 117.739ZM234.131 118.097L234.096 118.19L234.097 118.191L234.131 118.097ZM234.841 118.318L234.867 118.222L234.866 118.221L234.841 118.318ZM236.023 118.636L235.997 118.733L235.997 118.733L236.023 118.636ZM237.034 118.966L236.999 119.059L236.999 119.06L237.034 118.966ZM238.108 119.54L238.05 119.621L238.051 119.622L238.108 119.54ZM238.96 120.46L239.046 120.409L238.96 120.46ZM238.801 123.545L238.717 123.491L238.717 123.491L238.801 123.545ZM237.369 124.756L237.326 124.665L237.326 124.665L237.369 124.756ZM232.926 124.801L232.886 124.893L232.886 124.893L232.926 124.801ZM231.494 123.676L231.413 123.734L231.413 123.735L231.494 123.676ZM230.909 122V121.9H230.802L230.809 122.007L230.909 122ZM232.364 122L232.463 121.991L232.455 121.9H232.364V122ZM232.807 123.091L232.732 123.158L232.733 123.159L232.807 123.091ZM233.795 123.727L233.762 123.822L233.763 123.822L233.795 123.727ZM236.54 123.67L236.577 123.763L236.578 123.763L236.54 123.67ZM237.557 122.932L237.635 122.994L237.635 122.994L237.557 122.932ZM237.608 120.875L237.683 120.808L237.608 120.875ZM236.756 120.284L236.716 120.376L236.756 120.284ZM235.614 119.886L235.586 119.983L235.587 119.983L235.614 119.886ZM234.182 119.477L234.154 119.573L234.154 119.573L234.182 119.477ZM232.023 118.358L231.955 118.432H231.955L232.023 118.358ZM231.756 114.75L231.675 114.691L231.675 114.691L231.756 114.75ZM233.188 113.614L233.228 113.705L233.229 113.705L233.188 113.614ZM237.205 113.608L237.163 113.699L237.163 113.699L237.205 113.608ZM238.591 114.699L238.51 114.758L238.511 114.759L238.591 114.699ZM239.136 116.273V116.373H239.24L239.236 116.27L239.136 116.273ZM237.872 116.261C237.8 115.656 237.508 115.183 236.998 114.848L236.888 115.015C237.348 115.317 237.609 115.738 237.673 116.284L237.872 116.261ZM236.998 114.848C236.494 114.517 235.879 114.355 235.159 114.355V114.555C235.848 114.555 236.423 114.71 236.888 115.015L236.998 114.848ZM235.159 114.355C234.633 114.355 234.169 114.44 233.767 114.613L233.846 114.796C234.218 114.636 234.655 114.555 235.159 114.555V114.355ZM233.767 114.613C233.371 114.785 233.057 115.025 232.829 115.333L232.989 115.452C233.193 115.176 233.478 114.957 233.847 114.796L233.767 114.613ZM232.828 115.333C232.603 115.643 232.491 115.995 232.491 116.386H232.691C232.691 116.036 232.791 115.725 232.99 115.451L232.828 115.333ZM232.491 116.386C232.491 116.713 232.569 117 232.729 117.243L232.896 117.132C232.761 116.928 232.691 116.681 232.691 116.386H232.491ZM232.73 117.244C232.89 117.476 233.093 117.669 233.339 117.823L233.445 117.654C233.221 117.513 233.038 117.339 232.895 117.131L232.73 117.244ZM233.34 117.824C233.58 117.971 233.832 118.093 234.096 118.19L234.165 118.003C233.914 117.91 233.674 117.794 233.444 117.653L233.34 117.824ZM234.097 118.191C234.357 118.283 234.596 118.357 234.815 118.415L234.866 118.221C234.654 118.165 234.42 118.092 234.164 118.002L234.097 118.191ZM234.815 118.415L235.997 118.733L236.049 118.54L234.867 118.222L234.815 118.415ZM235.997 118.733C236.296 118.812 236.63 118.92 236.999 119.059L237.069 118.872C236.696 118.731 236.355 118.62 236.048 118.54L235.997 118.733ZM236.999 119.06C237.366 119.197 237.716 119.384 238.05 119.621L238.166 119.458C237.818 119.211 237.453 119.016 237.069 118.872L236.999 119.06ZM238.051 119.622C238.383 119.852 238.658 120.148 238.874 120.511L239.046 120.409C238.816 120.022 238.522 119.705 238.165 119.458L238.051 119.622ZM238.874 120.511C239.087 120.868 239.195 121.309 239.195 121.841H239.395C239.395 121.282 239.281 120.803 239.046 120.409L238.874 120.511ZM239.195 121.841C239.195 122.451 239.036 123 238.717 123.491L238.885 123.6C239.226 123.075 239.395 122.488 239.395 121.841H239.195ZM238.717 123.491C238.403 123.981 237.941 124.373 237.326 124.665L237.412 124.846C238.055 124.54 238.548 124.125 238.885 123.599L238.717 123.491ZM237.326 124.665C236.718 124.957 235.974 125.105 235.091 125.105V125.305C235.996 125.305 236.771 125.153 237.413 124.846L237.326 124.665ZM235.091 125.105C234.268 125.105 233.561 124.972 232.966 124.71L232.886 124.893C233.511 125.168 234.247 125.305 235.091 125.305V125.105ZM232.967 124.71C232.375 124.447 231.912 124.083 231.575 123.617L231.413 123.735C231.773 124.232 232.265 124.617 232.886 124.893L232.967 124.71ZM231.576 123.618C231.243 123.153 231.053 122.612 231.009 121.993L230.809 122.007C230.856 122.66 231.057 123.237 231.413 123.734L231.576 123.618ZM230.909 122.1H232.364V121.9H230.909V122.1ZM232.264 122.009C232.303 122.466 232.458 122.851 232.732 123.158L232.881 123.024C232.64 122.755 232.5 122.412 232.463 121.991L232.264 122.009ZM232.733 123.159C233.007 123.456 233.351 123.677 233.762 123.822L233.829 123.633C233.445 123.498 233.13 123.294 232.88 123.023L232.733 123.159ZM233.763 123.822C234.176 123.962 234.619 124.032 235.091 124.032V123.832C234.639 123.832 234.218 123.765 233.828 123.633L233.763 123.822ZM235.091 124.032C235.64 124.032 236.136 123.943 236.577 123.763L236.502 123.578C236.088 123.746 235.618 123.832 235.091 123.832V124.032ZM236.578 123.763C237.019 123.579 237.373 123.324 237.635 122.994L237.479 122.87C237.241 123.169 236.916 123.406 236.501 123.578L236.578 123.763ZM237.635 122.994C237.9 122.657 238.032 122.264 238.032 121.818H237.832C237.832 122.221 237.714 122.57 237.478 122.87L237.635 122.994ZM238.032 121.818C238.032 121.412 237.918 121.073 237.683 120.808L237.533 120.942C237.73 121.162 237.832 121.451 237.832 121.818H238.032ZM237.683 120.808C237.455 120.553 237.158 120.348 236.795 120.192L236.716 120.376C237.057 120.523 237.329 120.712 237.533 120.942L237.683 120.808ZM236.795 120.192C236.438 120.039 236.053 119.905 235.64 119.79L235.587 119.983C235.992 120.095 236.368 120.226 236.716 120.376L236.795 120.192ZM235.641 119.79L234.209 119.381L234.154 119.573L235.586 119.983L235.641 119.79ZM234.209 119.381C233.311 119.123 232.606 118.756 232.09 118.284L231.955 118.432C232.5 118.93 233.235 119.309 234.154 119.573L234.209 119.381ZM232.09 118.284C231.583 117.82 231.327 117.213 231.327 116.455H231.127C231.127 117.264 231.402 117.926 231.955 118.432L232.09 118.284ZM231.327 116.455C231.327 115.822 231.498 115.275 231.837 114.809L231.675 114.691C231.309 115.195 231.127 115.784 231.127 116.455H231.327ZM231.837 114.809C232.181 114.335 232.644 113.967 233.228 113.705L233.147 113.522C232.534 113.798 232.042 114.187 231.675 114.691L231.837 114.809ZM233.229 113.705C233.817 113.439 234.475 113.305 235.205 113.305V113.105C234.45 113.105 233.763 113.243 233.146 113.523L233.229 113.705ZM235.205 113.305C235.942 113.305 236.594 113.437 237.163 113.699L237.246 113.517C236.648 113.241 235.967 113.105 235.205 113.105V113.305ZM237.163 113.699C237.733 113.958 238.181 114.311 238.51 114.758L238.671 114.639C238.319 114.162 237.843 113.788 237.246 113.517L237.163 113.699ZM238.511 114.759C238.843 115.204 239.018 115.709 239.036 116.276L239.236 116.27C239.217 115.662 239.028 115.118 238.671 114.639L238.511 114.759ZM239.136 116.173H237.773V116.373H239.136V116.173ZM241.612 125H241.512V125.1H241.612V125ZM241.612 113.364V113.264H241.512V113.364H241.612ZM248.635 113.364H248.735V113.264H248.635V113.364ZM248.635 114.614V114.714H248.735V114.614H248.635ZM243.021 114.614V114.514H242.921V114.614H243.021ZM243.021 118.545H242.921V118.645H243.021V118.545ZM248.271 118.545H248.371V118.445H248.271V118.545ZM248.271 119.795V119.895H248.371V119.795H248.271ZM243.021 119.795V119.695H242.921V119.795H243.021ZM243.021 123.75H242.921V123.85H243.021V123.75ZM248.726 123.75H248.826V123.65H248.726V123.75ZM248.726 125V125.1H248.826V125H248.726ZM241.712 125V113.364H241.512V125H241.712ZM241.612 113.464H248.635V113.264H241.612V113.464ZM248.535 113.364V114.614H248.735V113.364H248.535ZM248.635 114.514H243.021V114.714H248.635V114.514ZM242.921 114.614V118.545H243.121V114.614H242.921ZM243.021 118.645H248.271V118.445H243.021V118.645ZM248.171 118.545V119.795H248.371V118.545H248.171ZM248.271 119.695H243.021V119.895H248.271V119.695ZM242.921 119.795V123.75H243.121V119.795H242.921ZM243.021 123.85H248.726V123.65H243.021V123.85ZM248.626 123.75V125H248.826V123.75H248.626ZM248.726 124.9H241.612V125.1H248.726V124.9ZM251.175 125H251.075V125.1H251.175V125ZM251.175 113.364V113.264H251.075V113.364H251.175ZM258.197 113.364H258.297V113.264H258.197V113.364ZM258.197 114.614V114.714H258.297V114.614H258.197ZM252.584 114.614V114.514H252.484V114.614H252.584ZM252.584 118.545H252.484V118.645H252.584V118.545ZM257.834 118.545H257.934V118.445H257.834V118.545ZM257.834 119.795V119.895H257.934V119.795H257.834ZM252.584 119.795V119.695H252.484V119.795H252.584ZM252.584 123.75H252.484V123.85H252.584V123.75ZM258.288 123.75H258.388V123.65H258.288V123.75ZM258.288 125V125.1H258.388V125H258.288ZM251.275 125V113.364H251.075V125H251.275ZM251.175 113.464H258.197V113.264H251.175V113.464ZM258.097 113.364V114.614H258.297V113.364H258.097ZM258.197 114.514H252.584V114.714H258.197V114.514ZM252.484 114.614V118.545H252.684V114.614H252.484ZM252.584 118.645H257.834V118.445H252.584V118.645ZM257.734 118.545V119.795H257.934V118.545H257.734ZM257.834 119.695H252.584V119.895H257.834V119.695ZM252.484 119.795V123.75H252.684V119.795H252.484ZM252.584 123.85H258.288V123.65H252.584V123.85ZM258.188 123.75V125H258.388V123.75H258.188ZM258.288 124.9H251.175V125.1H258.288V124.9ZM267.101 116.273L267.002 116.284L267.012 116.373H267.101V116.273ZM266.271 114.932L266.216 115.015L266.271 114.932ZM263.135 114.705L263.095 114.613L263.095 114.613L263.135 114.705ZM262.237 115.392L262.157 115.333L262.156 115.333L262.237 115.392ZM262.141 117.188L262.057 117.243L262.058 117.244L262.141 117.188ZM262.72 117.739L262.667 117.823L262.668 117.824L262.72 117.739ZM263.459 118.097L263.424 118.19L263.426 118.191L263.459 118.097ZM264.169 118.318L264.195 118.222L264.194 118.221L264.169 118.318ZM265.351 118.636L265.325 118.733L265.325 118.733L265.351 118.636ZM266.362 118.966L266.327 119.059L266.327 119.06L266.362 118.966ZM267.436 119.54L267.378 119.621L267.379 119.622L267.436 119.54ZM268.288 120.46L268.374 120.409L268.288 120.46ZM268.129 123.545L268.045 123.491L268.045 123.491L268.129 123.545ZM266.697 124.756L266.654 124.665L266.654 124.665L266.697 124.756ZM262.254 124.801L262.214 124.893L262.214 124.893L262.254 124.801ZM260.822 123.676L260.741 123.734L260.741 123.735L260.822 123.676ZM260.237 122V121.9H260.13L260.137 122.007L260.237 122ZM261.692 122L261.791 121.991L261.784 121.9H261.692V122ZM262.135 123.091L262.06 123.158L262.061 123.159L262.135 123.091ZM263.124 123.727L263.09 123.822L263.091 123.822L263.124 123.727ZM265.868 123.67L265.906 123.763L265.906 123.763L265.868 123.67ZM266.885 122.932L266.963 122.994L266.964 122.994L266.885 122.932ZM266.936 120.875L267.011 120.808L266.936 120.875ZM266.084 120.284L266.044 120.376L266.084 120.284ZM264.942 119.886L264.914 119.983L264.915 119.983L264.942 119.886ZM263.51 119.477L263.482 119.573L263.482 119.573L263.51 119.477ZM261.351 118.358L261.283 118.432L261.351 118.358ZM261.084 114.75L261.003 114.691L261.003 114.691L261.084 114.75ZM262.516 113.614L262.557 113.705L262.557 113.705L262.516 113.614ZM266.533 113.608L266.491 113.699L266.491 113.699L266.533 113.608ZM267.919 114.699L267.839 114.758L267.839 114.759L267.919 114.699ZM268.464 116.273V116.373H268.568L268.564 116.27L268.464 116.273ZM267.2 116.261C267.129 115.656 266.836 115.183 266.326 114.848L266.216 115.015C266.677 115.317 266.937 115.738 267.002 116.284L267.2 116.261ZM266.326 114.848C265.822 114.517 265.207 114.355 264.487 114.355V114.555C265.176 114.555 265.751 114.71 266.216 115.015L266.326 114.848ZM264.487 114.355C263.961 114.355 263.497 114.44 263.095 114.613L263.175 114.796C263.546 114.636 263.983 114.555 264.487 114.555V114.355ZM263.095 114.613C262.699 114.785 262.385 115.025 262.157 115.333L262.318 115.452C262.522 115.176 262.806 114.957 263.175 114.796L263.095 114.613ZM262.156 115.333C261.931 115.643 261.819 115.995 261.819 116.386H262.019C262.019 116.036 262.119 115.725 262.318 115.451L262.156 115.333ZM261.819 116.386C261.819 116.713 261.897 117 262.057 117.243L262.224 117.132C262.089 116.928 262.019 116.681 262.019 116.386H261.819ZM262.058 117.244C262.218 117.476 262.421 117.669 262.667 117.823L262.773 117.654C262.55 117.513 262.366 117.339 262.223 117.131L262.058 117.244ZM262.668 117.824C262.908 117.971 263.161 118.093 263.424 118.19L263.493 118.003C263.242 117.91 263.002 117.794 262.772 117.653L262.668 117.824ZM263.426 118.191C263.685 118.283 263.925 118.357 264.144 118.415L264.194 118.221C263.982 118.165 263.748 118.092 263.492 118.002L263.426 118.191ZM264.143 118.415L265.325 118.733L265.377 118.54L264.195 118.222L264.143 118.415ZM265.325 118.733C265.624 118.812 265.958 118.92 266.327 119.059L266.398 118.872C266.024 118.731 265.683 118.62 265.376 118.54L265.325 118.733ZM266.327 119.06C266.694 119.197 267.044 119.384 267.378 119.621L267.494 119.458C267.146 119.211 266.781 119.016 266.397 118.872L266.327 119.06ZM267.379 119.622C267.712 119.852 267.986 120.148 268.202 120.511L268.374 120.409C268.144 120.022 267.85 119.705 267.493 119.458L267.379 119.622ZM268.202 120.511C268.415 120.868 268.524 121.309 268.524 121.841H268.724C268.724 121.282 268.609 120.803 268.374 120.409L268.202 120.511ZM268.524 121.841C268.524 122.451 268.364 123 268.045 123.491L268.213 123.6C268.554 123.075 268.724 122.488 268.724 121.841H268.524ZM268.045 123.491C267.731 123.981 267.269 124.373 266.654 124.665L266.74 124.846C267.383 124.54 267.876 124.125 268.213 123.599L268.045 123.491ZM266.654 124.665C266.046 124.957 265.302 125.105 264.419 125.105V125.305C265.324 125.305 266.099 125.153 266.741 124.846L266.654 124.665ZM264.419 125.105C263.596 125.105 262.889 124.972 262.295 124.71L262.214 124.893C262.839 125.168 263.575 125.305 264.419 125.305V125.105ZM262.295 124.71C261.703 124.447 261.24 124.083 260.903 123.617L260.741 123.735C261.101 124.232 261.593 124.617 262.214 124.893L262.295 124.71ZM260.904 123.618C260.571 123.153 260.381 122.612 260.337 121.993L260.137 122.007C260.184 122.66 260.385 123.237 260.741 123.734L260.904 123.618ZM260.237 122.1H261.692V121.9H260.237V122.1ZM261.592 122.009C261.632 122.466 261.786 122.851 262.06 123.158L262.209 123.024C261.968 122.755 261.828 122.412 261.791 121.991L261.592 122.009ZM262.061 123.159C262.335 123.456 262.679 123.677 263.09 123.822L263.157 123.633C262.773 123.498 262.458 123.294 262.209 123.023L262.061 123.159ZM263.091 123.822C263.504 123.962 263.947 124.032 264.419 124.032V123.832C263.967 123.832 263.546 123.765 263.156 123.633L263.091 123.822ZM264.419 124.032C264.968 124.032 265.464 123.943 265.906 123.763L265.83 123.578C265.416 123.746 264.946 123.832 264.419 123.832V124.032ZM265.906 123.763C266.348 123.579 266.701 123.324 266.963 122.994L266.807 122.87C266.569 123.169 266.244 123.406 265.829 123.578L265.906 123.763ZM266.964 122.994C267.228 122.657 267.36 122.264 267.36 121.818H267.16C267.16 122.221 267.042 122.57 266.806 122.87L266.964 122.994ZM267.36 121.818C267.36 121.412 267.246 121.073 267.011 120.808L266.861 120.942C267.058 121.162 267.16 121.451 267.16 121.818H267.36ZM267.011 120.808C266.784 120.553 266.487 120.348 266.123 120.192L266.044 120.376C266.386 120.523 266.657 120.712 266.861 120.942L267.011 120.808ZM266.123 120.192C265.766 120.039 265.382 119.905 264.969 119.79L264.915 119.983C265.32 120.095 265.697 120.226 266.044 120.376L266.123 120.192ZM264.969 119.79L263.537 119.381L263.482 119.573L264.914 119.983L264.969 119.79ZM263.538 119.381C262.639 119.123 261.934 118.756 261.418 118.284L261.283 118.432C261.828 118.93 262.563 119.309 263.482 119.573L263.538 119.381ZM261.418 118.284C260.911 117.82 260.655 117.213 260.655 116.455H260.455C260.455 117.264 260.73 117.926 261.283 118.432L261.418 118.284ZM260.655 116.455C260.655 115.822 260.826 115.275 261.165 114.809L261.003 114.691C260.637 115.195 260.455 115.784 260.455 116.455H260.655ZM261.165 114.809C261.51 114.335 261.973 113.967 262.557 113.705L262.475 113.522C261.862 113.798 261.37 114.187 261.003 114.691L261.165 114.809ZM262.557 113.705C263.145 113.439 263.803 113.305 264.533 113.305V113.105C263.778 113.105 263.091 113.243 262.474 113.523L262.557 113.705ZM264.533 113.305C265.271 113.305 265.923 113.437 266.491 113.699L266.575 113.517C265.976 113.241 265.295 113.105 264.533 113.105V113.305ZM266.491 113.699C267.061 113.958 267.509 114.311 267.839 114.758L268 114.639C267.647 114.162 267.171 113.788 266.574 113.517L266.491 113.699ZM267.839 114.759C268.171 115.204 268.346 115.709 268.365 116.276L268.564 116.27C268.545 115.662 268.356 115.118 267.999 114.639L267.839 114.759ZM268.464 116.173H267.101V116.373H268.464V116.173ZM275.918 125V125.1H275.988L276.012 125.033L275.918 125ZM274.44 125L274.346 124.966L274.297 125.1H274.44V125ZM278.713 113.364V113.264H278.643L278.619 113.329L278.713 113.364ZM280.168 113.364L280.261 113.329L280.237 113.264H280.168V113.364ZM284.44 125V125.1H284.584L284.534 124.966L284.44 125ZM282.963 125L282.869 125.033L282.892 125.1H282.963V125ZM279.486 115.205L279.58 115.171L279.556 115.105H279.486V115.205ZM279.395 115.205V115.105H279.324L279.301 115.171L279.395 115.205ZM276.463 120.455V120.355H276.363V120.455H276.463ZM282.418 120.455H282.518V120.355H282.418V120.455ZM282.418 121.705V121.805H282.518V121.705H282.418ZM276.463 121.705H276.363V121.805H276.463V121.705ZM275.918 124.9H274.44V125.1H275.918V124.9ZM274.534 125.034L278.807 113.398L278.619 113.329L274.346 124.966L274.534 125.034ZM278.713 113.464H280.168V113.264H278.713V113.464ZM280.074 113.398L284.346 125.034L284.534 124.966L280.261 113.329L280.074 113.398ZM284.44 124.9H282.963V125.1H284.44V124.9ZM283.057 124.967L279.58 115.171L279.392 115.238L282.869 125.033L283.057 124.967ZM279.486 115.105H279.395V115.305H279.486V115.105ZM279.301 115.171L275.823 124.967L276.012 125.033L279.489 115.238L279.301 115.171ZM276.463 120.555H282.418V120.355H276.463V120.555ZM282.318 120.455V121.705H282.518V120.455H282.318ZM282.418 121.605H276.463V121.805H282.418V121.605ZM276.563 121.705V120.455H276.363V121.705H276.563ZM286.253 125H286.153V125.1H286.253V125ZM286.253 113.364V113.264H286.153V113.364H286.253ZM287.662 113.364H287.762V113.264H287.662V113.364ZM287.662 123.75H287.562V123.85H287.662V123.75ZM293.071 123.75H293.171V123.65H293.071V123.75ZM293.071 125V125.1H293.171V125H293.071ZM286.353 125V113.364H286.153V125H286.353ZM286.253 113.464H287.662V113.264H286.253V113.464ZM287.562 113.364V123.75H287.762V113.364H287.562ZM287.662 123.85H293.071V123.65H287.662V123.85ZM292.971 123.75V125H293.171V123.75H292.971ZM293.071 124.9H286.253V125.1H293.071V124.9ZM295.253 125H295.153V125.1H295.253V125ZM295.253 113.364V113.264H295.153V113.364H295.253ZM296.662 113.364H296.762V113.264H296.662V113.364ZM296.662 123.75H296.562V123.85H296.662V123.75ZM302.071 123.75H302.171V123.65H302.071V123.75ZM302.071 125V125.1H302.171V125H302.071ZM295.353 125V113.364H295.153V125H295.353ZM295.253 113.464H296.662V113.264H295.253V113.464ZM296.562 113.364V123.75H296.762V113.364H296.562ZM296.662 123.85H302.071V123.65H296.662V123.85ZM301.971 123.75V125H302.171V123.75H301.971ZM302.071 124.9H295.253V125.1H302.071V124.9Z" fill="#EFC4C3"/>
<path d="M220.409 239V227.364H221.818V233.136H221.955L227.182 227.364H229.023L224.136 232.614L229.023 239H227.318L223.273 233.591L221.818 235.227V239H220.409ZM240.074 227.364V239H238.71L232.369 229.864H232.256V239H230.847V227.364H232.21L238.574 236.523H238.688V227.364H240.074ZM252.712 233.182C252.712 234.409 252.49 235.47 252.047 236.364C251.604 237.258 250.996 237.947 250.223 238.432C249.45 238.917 248.568 239.159 247.575 239.159C246.583 239.159 245.7 238.917 244.928 238.432C244.155 237.947 243.547 237.258 243.104 236.364C242.661 235.47 242.439 234.409 242.439 233.182C242.439 231.955 242.661 230.894 243.104 230C243.547 229.106 244.155 228.417 244.928 227.932C245.7 227.447 246.583 227.205 247.575 227.205C248.568 227.205 249.45 227.447 250.223 227.932C250.996 228.417 251.604 229.106 252.047 230C252.49 230.894 252.712 231.955 252.712 233.182ZM251.348 233.182C251.348 232.174 251.179 231.324 250.842 230.631C250.509 229.938 250.056 229.413 249.484 229.057C248.916 228.701 248.28 228.523 247.575 228.523C246.871 228.523 246.232 228.701 245.661 229.057C245.092 229.413 244.64 229.938 244.303 230.631C243.969 231.324 243.803 232.174 243.803 233.182C243.803 234.189 243.969 235.04 244.303 235.733C244.64 236.426 245.092 236.951 245.661 237.307C246.232 237.663 246.871 237.841 247.575 237.841C248.28 237.841 248.916 237.663 249.484 237.307C250.056 236.951 250.509 236.426 250.842 235.733C251.179 235.04 251.348 234.189 251.348 233.182ZM257.195 239L254.013 227.364H255.445L257.876 236.841H257.99L260.467 227.364H262.058L264.536 236.841H264.649L267.081 227.364H268.513L265.331 239H263.876L261.308 229.727H261.217L258.649 239H257.195ZM276.632 230.273C276.564 229.697 276.287 229.25 275.803 228.932C275.318 228.614 274.723 228.455 274.018 228.455C273.503 228.455 273.053 228.538 272.666 228.705C272.284 228.871 271.984 229.1 271.768 229.392C271.556 229.684 271.45 230.015 271.45 230.386C271.45 230.697 271.524 230.964 271.672 231.188C271.823 231.407 272.017 231.591 272.251 231.739C272.486 231.883 272.732 232.002 272.99 232.097C273.248 232.187 273.484 232.261 273.7 232.318L274.882 232.636C275.185 232.716 275.522 232.826 275.893 232.966C276.268 233.106 276.626 233.297 276.967 233.54C277.312 233.778 277.596 234.085 277.82 234.46C278.043 234.835 278.155 235.295 278.155 235.841C278.155 236.47 277.99 237.038 277.661 237.545C277.335 238.053 276.857 238.456 276.229 238.756C275.604 239.055 274.844 239.205 273.95 239.205C273.117 239.205 272.395 239.07 271.786 238.801C271.179 238.532 270.702 238.157 270.354 237.676C270.009 237.195 269.814 236.636 269.768 236H271.223C271.261 236.439 271.409 236.803 271.666 237.091C271.928 237.375 272.257 237.587 272.655 237.727C273.056 237.864 273.488 237.932 273.95 237.932C274.488 237.932 274.971 237.845 275.399 237.67C275.827 237.492 276.166 237.246 276.416 236.932C276.666 236.614 276.791 236.242 276.791 235.818C276.791 235.432 276.683 235.117 276.467 234.875C276.251 234.633 275.967 234.436 275.615 234.284C275.263 234.133 274.882 234 274.473 233.886L273.041 233.477C272.132 233.216 271.412 232.843 270.882 232.358C270.352 231.873 270.087 231.239 270.087 230.455C270.087 229.803 270.263 229.235 270.615 228.75C270.971 228.261 271.448 227.883 272.047 227.614C272.649 227.341 273.321 227.205 274.064 227.205C274.814 227.205 275.481 227.339 276.064 227.608C276.647 227.873 277.109 228.237 277.45 228.699C277.795 229.161 277.977 229.686 277.996 230.273H276.632ZM285.449 239H283.972L288.244 227.364H289.699L293.972 239H292.494L289.017 229.205H288.926L285.449 239ZM285.994 234.455H291.949V235.705H285.994V234.455ZM295.784 239V227.364H297.193V237.75H302.602V239H295.784ZM304.784 239V227.364H306.193V237.75H311.602V239H304.784Z" fill="#EFC4C3"/>
</svg>
