<svg width="856" height="489" viewBox="0 0 856 489" fill="none" xmlns="http://www.w3.org/2000/svg">
<path d="M855.8 493.3C850.9 437.9 849.1 373.6 844.2 318.2H7.50018L0.200195 493.3" fill="#939552"/>
<path d="M57.2002 493.3C57.5002 401.2 59.1002 379.6 60.7002 379.5C62.1002 379.5 63.3002 395.5 69.7002 450.6C71.9002 469.7 73.8002 485.6 75.2002 496.8" fill="#646737"/>
<path d="M287 493.3C289.5 474.6 296.1 424.2 304.6 424.2C313.5 424.2 320.1 475.5 322.2 493.3" fill="#646737"/>
<path d="M546 493.3C545.3 457.5 546.2 429.9 547.9 429.8C549.9 429.7 553.6 444.4 558.9 493.3" fill="#646737"/>
<path d="M695.5 413.1L688.5 477.6L685 493.3H705.7L695.5 413.1Z" fill="#646737"/>
<path d="M806.8 495.3C804.5 469.6 800 448.5 796 433C793.5 423.5 791.7 416.7 790.4 416.8C787.2 417 788.5 455.5 791.8 487.1C792.2 490.5 792.5 493.4 792.7 495.4" fill="#646737"/>
<path d="M845.2 318.2C845.2 376.3 657.9 423.4 426.9 423.4C195.9 423.4 8.6001 376.3 8.6001 318.2C8.6001 260.1 195.9 213 426.9 213C492.5 211.5 504.7 214.1 526.8 216C657 227.3 845.2 272 845.2 318.1V318.2Z" fill="#A3A550"/>
<path d="M538.6 245.4C537.7 250.5 713.8 271.3 713.8 303.8C713.8 348.9 375.3 370.2 376.8 392.9C377.7 406.7 503.7 418.1 635.9 390.9C647.8 388.5 826.6 350.8 824.4 311C821.6 261.5 539.8 239 538.6 245.4Z" fill="#999B4B"/>
<path d="M147.5 269.352C147.9 272.652 69.3 286.152 69.3 307.352C69.3 336.652 220.5 350.452 219.8 365.252C219.4 374.252 163.1 381.652 104.1 363.952C98.7999 362.352 18.8999 337.852 19.8999 312.052C21.0999 279.852 147 265.252 147.5 269.452V269.352Z" fill="#999B4B"/>
<path d="M187.005 284.324C187.287 285.858 131.545 297.379 131.545 306.969C131.545 320.202 210.506 336.991 238 327.669C237.718 331.696 198.892 344.388 157.278 336.429C153.54 335.757 96.3011 315.298 97.0065 303.599C97.8528 289.023 186.653 282.406 187.005 284.324Z" fill="#999B4B"/>
<path d="M578.677 283.745C578.702 284.045 590.955 289.685 591.448 297.654C592.418 312.386 551.779 322.843 552.221 325.225C552.607 327.914 602.162 320.348 601.674 304.519C601.376 293.964 578.815 283.431 578.771 283.889L578.677 283.745Z" fill="#999B4B"/>
<path d="M678.8 96.1001L674.6 131.4L645.1 130.9L640.9 91.6001L678.8 96.1001Z" fill="#F6BE60"/>
<path d="M664 131H655.3V293.4H664V131Z" fill="#F6BE60"/>
<path d="M660.8 316.1C683.885 316.1 702.6 310.145 702.6 302.8C702.6 295.455 683.885 289.5 660.8 289.5C637.714 289.5 619 295.455 619 302.8C619 310.145 637.714 316.1 660.8 316.1Z" fill="#F6BE60"/>
<path d="M663.8 254.3C663.5 262.1 664.3 274.3 670.4 283C677.4 292.9 686.4 294.3 685.8 298C684.6 305.6 643 309.3 640 300.3C639.2 297.8 642.1 295.5 645.5 290.6C650.4 283.6 655 272.6 655.4 254.9" fill="#F6BE60"/>
<path d="M659.9 146.7C666.527 146.7 671.9 145.402 671.9 143.8C671.9 142.198 666.527 140.9 659.9 140.9C653.272 140.9 647.9 142.198 647.9 143.8C647.9 145.402 653.272 146.7 659.9 146.7Z" fill="#F6BE60"/>
<path d="M662 99.4001C681.33 99.4001 697 96.0423 697 91.9001C697 87.758 681.33 84.4001 662 84.4001C642.67 84.4001 627 87.758 627 91.9001C627 96.0423 642.67 99.4001 662 99.4001Z" fill="#F6BE60"/>
<path d="M676.7 0.300049H643.1V94.7001H676.7V0.300049Z" fill="#FFF4CD"/>
<path d="M641.7 99C641.7 98.7 641.4 98 641.6 98C643 98 648.7 99.2 654 99.2C665.8 99.2 676.1 98.5 678.5 98.5C680.9 98.5 678.5 98.5 678.5 99.1C678.3 100.7 666.3 100.3 660.4 102.5C653.1 105.1 648.3 106.2 643.8 106.6C639.3 107 641.9 100.4 641.7 99.1V99Z" fill="#D8AF66"/>
<path d="M655.3 131.2C658.4 131.2 661.4 131.1 664.5 131.2C664.3 131.4 664 131.9 663.7 132.1C661.1 133.7 657.3 133.9 655.4 133.9V131.2H655.3Z" fill="#D8AF66"/>
<path d="M672.4 128.6H670.9L673 102.1L676.2 101.2L672.4 128.6Z" fill="#F3CF83"/>
<path d="M679.6 86.9001C684.5 86.2001 691.5 89.6 694.2 90.6C696.9 91.6 691.5 93.6001 690.1 94.2001C686.4 96.0001 682.4 95.6 682.4 95.1C682.4 94.5 689.1 93.7 689 92.3C689 91.5 686.5 90.7001 681.5 89.2001C679.3 88.5001 677.6 88.1 677.6 87.6C677.6 87.2 679 87.0001 679.5 86.9001H679.6Z" fill="#F3CF83"/>
<path d="M666.6 142.8C667.594 142.8 668.4 142.621 668.4 142.4C668.4 142.179 667.594 142 666.6 142C665.606 142 664.8 142.179 664.8 142.4C664.8 142.621 665.606 142.8 666.6 142.8Z" fill="#F3CF83"/>
<path d="M655.3 141C656.8 140.7 658.5 140.6 660.6 140.6C661.9 140.6 663 140.8 664 140.9H664.3V140.7L660.9 140.2C660.3 140.2 659.7 140.2 659 140.2H655.2V140.9L655.3 141Z" fill="#D8AF66"/>
<path d="M664.5 146.4C663 146.7 661.2 146.4 659.1 146.4C657.8 146.4 656.7 146.4 655.6 146.4H655.3V147V150C655.9 150 660 147.3 660.7 147.2L664.5 147V146.3V146.4Z" fill="#D8AF66"/>
<path d="M686.6 294C692.1 294.7 698.1 299.1 697.7 303C697 308.6 683.2 310.3 682.8 309.5C682.5 308.8 691.9 306 691.6 302.5C691.3 298.7 679.1 297.5 679.3 295.5C679.4 294.4 683.2 293.6 686.5 294H686.6Z" fill="#F3CF83"/>
<path d="M210.8 97.8L206.6 133.1L177.1 132.6L172.9 93.3L210.8 97.8Z" fill="#F6BE60"/>
<path d="M196 132.7H187.3V295.1H196V132.7Z" fill="#F6BE60"/>
<path d="M192.8 317.8C215.885 317.8 234.6 311.845 234.6 304.5C234.6 297.155 215.885 291.2 192.8 291.2C169.714 291.2 151 297.155 151 304.5C151 311.845 169.714 317.8 192.8 317.8Z" fill="#F6BE60"/>
<path d="M195.8 256C195.5 263.8 196.3 276 202.4 284.7C209.4 294.6 218.4 296 217.8 299.7C216.6 307.3 175 311 172 302C171.2 299.5 174.1 297.2 177.5 292.3C182.4 285.3 187 274.3 187.4 256.6" fill="#F6BE60"/>
<path d="M191.9 148.4C198.527 148.4 203.9 147.102 203.9 145.5C203.9 143.898 198.527 142.6 191.9 142.6C185.272 142.6 179.9 143.898 179.9 145.5C179.9 147.102 185.272 148.4 191.9 148.4Z" fill="#F6BE60"/>
<path d="M194 101.1C213.33 101.1 229 97.7422 229 93.6001C229 89.458 213.33 86.1001 194 86.1001C174.67 86.1001 159 89.458 159 93.6001C159 97.7422 174.67 101.1 194 101.1Z" fill="#F6BE60"/>
<path d="M208.7 2H175.1V96.4H208.7V2Z" fill="#FFF4CD"/>
<path d="M173.7 100.7C173.7 100.4 173.4 99.7 173.6 99.7C175 99.7 180.7 100.9 186 100.9C197.8 100.9 208.1 100.2 210.5 100.2C212.9 100.2 210.5 100.2 210.5 100.8C210.3 102.4 198.3 102 192.4 104.2C185.1 106.8 180.3 107.9 175.8 108.3C171.3 108.7 173.9 102.1 173.7 100.8V100.7Z" fill="#D8AF66"/>
<path d="M187.3 132.9C190.4 132.9 193.4 132.8 196.5 132.9C196.3 133.1 196 133.6 195.7 133.8C193.1 135.4 189.3 135.6 187.4 135.6V132.9H187.3Z" fill="#D8AF66"/>
<path d="M204.4 130.3H202.9L205 103.8L208.2 102.9L204.4 130.3Z" fill="#F3CF83"/>
<path d="M211.6 88.6C216.5 87.9 223.5 91.3 226.2 92.3C228.9 93.3 223.5 95.3 222.1 95.9C218.4 97.7 214.4 97.3 214.4 96.8C214.4 96.2 221.1 95.4 221 94C221 93.2 218.5 92.4 213.5 90.9C211.3 90.2 209.6 89.8 209.6 89.3C209.6 88.9 211 88.7 211.5 88.6H211.6Z" fill="#F3CF83"/>
<path d="M198.6 144.5C199.594 144.5 200.4 144.321 200.4 144.1C200.4 143.879 199.594 143.7 198.6 143.7C197.606 143.7 196.8 143.879 196.8 144.1C196.8 144.321 197.606 144.5 198.6 144.5Z" fill="#F3CF83"/>
<path d="M187.3 142.7C188.8 142.4 190.5 142.3 192.6 142.3C193.9 142.3 195 142.5 196 142.6H196.3V142.4L192.9 141.9C192.3 141.9 191.7 141.9 191 141.9H187.2V142.6L187.3 142.7Z" fill="#D8AF66"/>
<path d="M196.5 148.1C195 148.4 193.2 148.1 191.1 148.1C189.8 148.1 188.7 148.1 187.6 148.1H187.3V148.7V151.7C187.9 151.7 192 149 192.7 148.9L196.5 148.7V148V148.1Z" fill="#D8AF66"/>
<path d="M218.6 295.7C224.1 296.4 230.1 300.8 229.7 304.7C229 310.3 215.2 312 214.8 311.2C214.5 310.5 223.9 307.7 223.6 304.2C223.3 300.4 211.1 299.2 211.3 297.2C211.4 296.1 215.2 295.3 218.5 295.7H218.6Z" fill="#F3CF83"/>
<ellipse cx="425.5" cy="295.5" rx="153.5" ry="26.5" fill="#999B4B"/>
</svg>
