<svg width="589" height="622" viewBox="0 0 589 622" fill="none" xmlns="http://www.w3.org/2000/svg">
<rect x="9.48926" y="198.125" width="39.4187" height="47.0231" transform="rotate(-59.7331 9.48926 198.125)" fill="#F6BE61"/>
<rect x="45.9214" y="181.152" width="39.4187" height="47.0231" transform="rotate(-59.7331 45.9214 181.152)" fill="#F6BE61"/>
<rect x="82.3535" y="164.179" width="39.4187" height="47.0231" transform="rotate(-59.7331 82.3535 164.179)" fill="#F6BE61"/>
<rect x="118.786" y="147.205" width="39.4187" height="47.0231" transform="rotate(-59.7331 118.786 147.205)" fill="#F6BE61"/>
<rect x="155.217" y="130.232" width="39.4187" height="47.0231" transform="rotate(-59.7331 155.217 130.232)" fill="#F6BE61"/>
<rect x="191.649" y="113.259" width="39.4187" height="47.0231" transform="rotate(-59.7331 191.649 113.259)" fill="#F6BE61"/>
<rect x="228.082" y="96.2853" width="39.4187" height="47.0231" transform="rotate(-59.7331 228.082 96.2853)" fill="#F6BE61"/>
<rect x="264.514" y="79.312" width="39.4187" height="47.0231" transform="rotate(-59.7331 264.514 79.312)" fill="#F6BE61"/>
<rect x="300.946" y="62.3387" width="39.4187" height="47.0231" transform="rotate(-59.7331 300.946 62.3387)" fill="#F6BE61"/>
<rect x="337.378" y="45.3653" width="39.4187" height="47.0231" transform="rotate(-59.7331 337.378 45.3653)" fill="#F6BE61"/>
<rect x="29.584" y="241.257" width="39.4187" height="47.0231" transform="rotate(-59.7331 29.584 241.257)" fill="#F6BE61"/>
<rect x="66.0161" y="224.284" width="39.4187" height="47.0231" transform="rotate(-59.7331 66.0161 224.284)" fill="#F6BE61"/>
<rect x="102.448" y="207.31" width="39.4187" height="47.0231" transform="rotate(-59.7331 102.448 207.31)" fill="#F6BE61"/>
<rect x="138.88" y="190.337" width="39.4187" height="47.0231" transform="rotate(-59.7331 138.88 190.337)" fill="#F6BE61"/>
<rect x="175.312" y="173.364" width="39.4187" height="47.0231" transform="rotate(-59.7331 175.312 173.364)" fill="#F6BE61"/>
<rect x="211.744" y="156.39" width="39.4187" height="47.0231" transform="rotate(-59.7331 211.744 156.39)" fill="#F6BE61"/>
<rect x="248.176" y="139.417" width="39.4187" height="47.0231" transform="rotate(-59.7331 248.176 139.417)" fill="#F6BE61"/>
<rect x="284.608" y="122.444" width="39.4187" height="47.0231" transform="rotate(-59.7331 284.608 122.444)" fill="#F6BE61"/>
<rect x="321.041" y="105.47" width="39.4187" height="47.0231" transform="rotate(-59.7331 321.041 105.47)" fill="#F6BE61"/>
<rect x="357.473" y="88.4971" width="39.4187" height="47.0231" transform="rotate(-59.7331 357.473 88.4971)" fill="#F6BE61"/>
<rect x="49.6787" y="284.389" width="39.4187" height="47.0231" transform="rotate(-59.7331 49.6787 284.389)" fill="#F6BE61"/>
<rect x="86.1108" y="267.415" width="39.4187" height="47.0231" transform="rotate(-59.7331 86.1108 267.415)" fill="#F6BE61"/>
<rect x="122.542" y="250.442" width="39.4187" height="47.0231" transform="rotate(-59.7331 122.542 250.442)" fill="#F6BE61"/>
<rect x="158.975" y="233.469" width="39.4187" height="47.0231" transform="rotate(-59.7331 158.975 233.469)" fill="#F6BE61"/>
<rect x="195.407" y="216.495" width="39.4187" height="47.0231" transform="rotate(-59.7331 195.407 216.495)" fill="#F6BE61"/>
<rect x="231.839" y="199.522" width="39.4187" height="47.0231" transform="rotate(-59.7331 231.839 199.522)" fill="#F6BE61"/>
<rect x="268.271" y="182.549" width="39.4187" height="47.0231" transform="rotate(-59.7331 268.271 182.549)" fill="#F6BE61"/>
<rect x="304.703" y="165.575" width="39.4187" height="47.0231" transform="rotate(-59.7331 304.703 165.575)" fill="#F6BE61"/>
<rect x="341.135" y="148.602" width="39.4187" height="47.0231" transform="rotate(-59.7331 341.135 148.602)" fill="#F6BE61"/>
<rect x="377.567" y="131.629" width="39.4187" height="47.0231" transform="rotate(-59.7331 377.567 131.629)" fill="#F6BE61"/>
<rect x="69.7734" y="327.52" width="39.4187" height="47.0231" transform="rotate(-59.7331 69.7734 327.52)" fill="#F6BE61"/>
<rect x="106.205" y="310.547" width="39.4187" height="47.0231" transform="rotate(-59.7331 106.205 310.547)" fill="#F6BE61"/>
<rect x="142.637" y="293.574" width="39.4187" height="47.0231" transform="rotate(-59.7331 142.637 293.574)" fill="#F6BE61"/>
<rect x="179.069" y="276.601" width="39.4187" height="47.0231" transform="rotate(-59.7331 179.069 276.601)" fill="#F6BE61"/>
<rect x="215.501" y="259.627" width="39.4187" height="47.0231" transform="rotate(-59.7331 215.501 259.627)" fill="#F6BE61"/>
<rect x="251.934" y="242.654" width="39.4187" height="47.0231" transform="rotate(-59.7331 251.934 242.654)" fill="#F6BE61"/>
<rect x="288.366" y="225.681" width="39.4187" height="47.0231" transform="rotate(-59.7331 288.366 225.681)" fill="#F6BE61"/>
<rect x="324.798" y="208.707" width="39.4187" height="47.0231" transform="rotate(-59.7331 324.798 208.707)" fill="#F6BE61"/>
<rect x="361.229" y="191.734" width="39.4187" height="47.0231" transform="rotate(-59.7331 361.229 191.734)" fill="#F6BE61"/>
<rect x="397.662" y="174.761" width="39.4187" height="47.0231" transform="rotate(-59.7331 397.662 174.761)" fill="#F6BE61"/>
<rect x="89.8677" y="370.652" width="39.4187" height="47.0231" transform="rotate(-59.7331 89.8677 370.652)" fill="#F6BE61"/>
<rect x="126.3" y="353.679" width="39.4187" height="47.0231" transform="rotate(-59.7331 126.3 353.679)" fill="#F6BE61"/>
<rect x="162.732" y="336.706" width="39.4187" height="47.0231" transform="rotate(-59.7331 162.732 336.706)" fill="#F6BE61"/>
<rect x="199.164" y="319.732" width="39.4187" height="47.0231" transform="rotate(-59.7331 199.164 319.732)" fill="#F6BE61"/>
<rect x="235.596" y="302.759" width="39.4187" height="47.0231" transform="rotate(-59.7331 235.596 302.759)" fill="#F6BE61"/>
<rect x="272.028" y="285.786" width="39.4187" height="47.0231" transform="rotate(-59.7331 272.028 285.786)" fill="#F6BE61"/>
<rect x="308.46" y="268.812" width="39.4187" height="47.0231" transform="rotate(-59.7331 308.46 268.812)" fill="#F6BE61"/>
<rect x="344.893" y="251.839" width="39.4187" height="47.0231" transform="rotate(-59.7331 344.893 251.839)" fill="#F6BE61"/>
<rect x="381.324" y="234.866" width="39.4187" height="47.0231" transform="rotate(-59.7331 381.324 234.866)" fill="#F6BE61"/>
<rect x="417.757" y="217.892" width="39.4187" height="47.0231" transform="rotate(-59.7331 417.757 217.892)" fill="#F6BE61"/>
<rect x="109.962" y="413.784" width="39.4187" height="47.0231" transform="rotate(-59.7331 109.962 413.784)" fill="#F6BE61"/>
<rect x="146.395" y="396.811" width="39.4187" height="47.0231" transform="rotate(-59.7331 146.395 396.811)" fill="#F6BE61"/>
<rect x="182.827" y="379.837" width="39.4187" height="47.0231" transform="rotate(-59.7331 182.827 379.837)" fill="#F6BE61"/>
<rect x="219.259" y="362.864" width="39.4187" height="47.0231" transform="rotate(-59.7331 219.259 362.864)" fill="#F6BE61"/>
<rect x="255.691" y="345.891" width="39.4187" height="47.0231" transform="rotate(-59.7331 255.691 345.891)" fill="#F6BE61"/>
<rect x="292.123" y="328.917" width="39.4187" height="47.0231" transform="rotate(-59.7331 292.123 328.917)" fill="#F6BE61"/>
<rect x="328.555" y="311.944" width="39.4187" height="47.0231" transform="rotate(-59.7331 328.555 311.944)" fill="#F6BE61"/>
<rect x="364.987" y="294.971" width="39.4187" height="47.0231" transform="rotate(-59.7331 364.987 294.971)" fill="#F6BE61"/>
<rect x="401.419" y="277.997" width="39.4187" height="47.0231" transform="rotate(-59.7331 401.419 277.997)" fill="#F6BE61"/>
<rect x="437.851" y="261.024" width="39.4187" height="47.0231" transform="rotate(-59.7331 437.851 261.024)" fill="#F6BE61"/>
<rect x="130.057" y="456.916" width="39.4187" height="47.0231" transform="rotate(-59.7331 130.057 456.916)" fill="#F6BE61"/>
<rect x="166.489" y="439.942" width="39.4187" height="47.0231" transform="rotate(-59.7331 166.489 439.942)" fill="#F6BE61"/>
<rect x="202.921" y="422.969" width="39.4187" height="47.0231" transform="rotate(-59.7331 202.921 422.969)" fill="#F6BE61"/>
<rect x="239.354" y="405.996" width="39.4187" height="47.0231" transform="rotate(-59.7331 239.354 405.996)" fill="#F6BE61"/>
<rect x="275.785" y="389.022" width="39.4187" height="47.0231" transform="rotate(-59.7331 275.785 389.022)" fill="#F6BE61"/>
<rect x="312.217" y="372.049" width="39.4187" height="47.0231" transform="rotate(-59.7331 312.217 372.049)" fill="#F6BE61"/>
<rect x="348.649" y="355.076" width="39.4187" height="47.0231" transform="rotate(-59.7331 348.649 355.076)" fill="#F6BE61"/>
<rect x="385.082" y="338.102" width="39.4187" height="47.0231" transform="rotate(-59.7331 385.082 338.102)" fill="#F6BE61"/>
<rect x="421.514" y="321.129" width="39.4187" height="47.0231" transform="rotate(-59.7331 421.514 321.129)" fill="#F6BE61"/>
<rect x="457.945" y="304.156" width="39.4187" height="47.0231" transform="rotate(-59.7331 457.945 304.156)" fill="#F6BE61"/>
<rect x="150.152" y="500.047" width="39.4187" height="47.0231" transform="rotate(-59.7331 150.152 500.047)" fill="#F6BE61"/>
<rect x="186.584" y="483.074" width="39.4187" height="47.0231" transform="rotate(-59.7331 186.584 483.074)" fill="#F6BE61"/>
<rect x="223.016" y="466.101" width="39.4187" height="47.0231" transform="rotate(-59.7331 223.016 466.101)" fill="#F6BE61"/>
<rect x="259.448" y="449.128" width="39.4187" height="47.0231" transform="rotate(-59.7331 259.448 449.128)" fill="#F6BE61"/>
<rect x="295.88" y="432.154" width="39.4187" height="47.0231" transform="rotate(-59.7331 295.88 432.154)" fill="#F6BE61"/>
<rect x="332.312" y="415.181" width="39.4187" height="47.0231" transform="rotate(-59.7331 332.312 415.181)" fill="#F6BE61"/>
<rect x="368.744" y="398.208" width="39.4187" height="47.0231" transform="rotate(-59.7331 368.744 398.208)" fill="#F6BE61"/>
<rect x="405.176" y="381.234" width="39.4187" height="47.0231" transform="rotate(-59.7331 405.176 381.234)" fill="#F6BE61"/>
<rect x="441.608" y="364.261" width="39.4187" height="47.0231" transform="rotate(-59.7331 441.608 364.261)" fill="#F6BE61"/>
<rect x="478.04" y="347.288" width="39.4187" height="47.0231" transform="rotate(-59.7331 478.04 347.288)" fill="#F6BE61"/>
<rect x="170.247" y="543.179" width="39.4187" height="47.0231" transform="rotate(-59.7331 170.247 543.179)" fill="#F6BE61"/>
<rect x="206.679" y="526.206" width="39.4187" height="47.0231" transform="rotate(-59.7331 206.679 526.206)" fill="#F6BE61"/>
<rect x="243.11" y="509.232" width="39.4187" height="47.0231" transform="rotate(-59.7331 243.11 509.232)" fill="#F6BE61"/>
<rect x="279.542" y="492.259" width="39.4187" height="47.0231" transform="rotate(-59.7331 279.542 492.259)" fill="#F6BE61"/>
<rect x="315.975" y="475.286" width="39.4187" height="47.0231" transform="rotate(-59.7331 315.975 475.286)" fill="#F6BE61"/>
<rect x="352.406" y="458.312" width="39.4187" height="47.0231" transform="rotate(-59.7331 352.406 458.312)" fill="#F6BE61"/>
<rect x="388.839" y="441.339" width="39.4187" height="47.0231" transform="rotate(-59.7331 388.839 441.339)" fill="#F6BE61"/>
<rect x="425.271" y="424.366" width="39.4187" height="47.0231" transform="rotate(-59.7331 425.271 424.366)" fill="#F6BE61"/>
<rect x="461.703" y="407.393" width="39.4187" height="47.0231" transform="rotate(-59.7331 461.703 407.393)" fill="#F6BE61"/>
<rect x="498.135" y="390.419" width="39.4187" height="47.0231" transform="rotate(-59.7331 498.135 390.419)" fill="#F6BE61"/>
<rect x="190.341" y="586.311" width="39.4187" height="47.0231" transform="rotate(-59.7331 190.341 586.311)" fill="#F6BE61"/>
<rect x="226.773" y="569.338" width="39.4187" height="47.0231" transform="rotate(-59.7331 226.773 569.338)" fill="#F6BE61"/>
<rect x="263.205" y="552.364" width="39.4187" height="47.0231" transform="rotate(-59.7331 263.205 552.364)" fill="#F6BE61"/>
<rect x="299.637" y="535.391" width="39.4187" height="47.0231" transform="rotate(-59.7331 299.637 535.391)" fill="#F6BE61"/>
<rect x="336.069" y="518.418" width="39.4187" height="47.0231" transform="rotate(-59.7331 336.069 518.418)" fill="#F6BE61"/>
<rect x="372.501" y="501.444" width="39.4187" height="47.0231" transform="rotate(-59.7331 372.501 501.444)" fill="#F6BE61"/>
<rect x="408.934" y="484.471" width="39.4187" height="47.0231" transform="rotate(-59.7331 408.934 484.471)" fill="#F6BE61"/>
<rect x="445.365" y="467.498" width="39.4187" height="47.0231" transform="rotate(-59.7331 445.365 467.498)" fill="#F6BE61"/>
<rect x="481.798" y="450.524" width="39.4187" height="47.0231" transform="rotate(-59.7331 481.798 450.524)" fill="#F6BE61"/>
<rect x="518.229" y="433.551" width="39.4187" height="47.0231" transform="rotate(-59.7331 518.229 433.551)" fill="#F6BE61"/>
</svg>
